<ttFont>
    <TTGlyph name=".notdef" xMin="91" yMin="-220" xMax="524" yMax="1030">
      <contour>
        <pt x="91" y="1030" on="1"/>
        <pt x="524" y="1030" on="1"/>
        <pt x="524" y="-220" on="1"/>
        <pt x="91" y="-220" on="1"/>
      </contour>
      <contour>
        <pt x="469" y="-167" on="1"/>
        <pt x="469" y="978" on="1"/>
        <pt x="145" y="978" on="1"/>
        <pt x="145" y="-167" on="1"/>
      </contour>
    </TTGlyph>
    <TTGlyph name="A" xMin="8" yMin="0" xMax="529" yMax="740">
      <contour>
        <pt x="8" y="6" on="1"/>
        <pt x="230" y="740" on="1"/>
        <pt x="307" y="740" on="1"/>
        <pt x="529" y="6" on="1"/>
        <pt x="529" y="0" on="1"/>
        <pt x="475" y="0" on="1"/>
        <pt x="402" y="237" on="1"/>
        <pt x="135" y="237" on="1"/>
        <pt x="62" y="0" on="1"/>
        <pt x="8" y="0" on="1"/>
      </contour>
      <contour>
        <pt x="388" y="287" on="1"/>
        <pt x="301" y="572" on="1"/>
        <pt x="270" y="683" on="1"/>
        <pt x="265" y="683" on="1"/>
        <pt x="235" y="572" on="1"/>
        <pt x="148" y="287" on="1"/>
      </contour>
    </TTGlyph>
    <TTGlyph name="A.sc" xMin="13" yMin="0" xMax="471" yMax="577">
      <contour>
        <pt x="13" y="5" on="1"/>
        <pt x="204" y="577" on="1"/>
        <pt x="281" y="577" on="1"/>
        <pt x="471" y="5" on="1"/>
        <pt x="471" y="0" on="1"/>
        <pt x="418" y="0" on="1"/>
        <pt x="358" y="178" on="1"/>
        <pt x="126" y="178" on="1"/>
        <pt x="65" y="0" on="1"/>
        <pt x="13" y="0" on="1"/>
      </contour>
      <contour>
        <pt x="345" y="222" on="1"/>
        <pt x="271" y="441" on="1"/>
        <pt x="244" y="527" on="1"/>
        <pt x="239" y="527" on="1"/>
        <pt x="213" y="441" on="1"/>
        <pt x="138" y="222" on="1"/>
      </contour>
    </TTGlyph>
    <TTGlyph name="AE" xMin="6" yMin="0" xMax="701" yMax="740">
      <contour>
        <pt x="6" y="6" on="1"/>
        <pt x="250" y="740" on="1"/>
        <pt x="692" y="740" on="1"/>
        <pt x="692" y="688" on="1"/>
        <pt x="398" y="688" on="1"/>
        <pt x="411" y="401" on="1"/>
        <pt x="663" y="401" on="1"/>
        <pt x="663" y="349" on="1"/>
        <pt x="414" y="349" on="1"/>
        <pt x="428" y="52" on="1"/>
        <pt x="701" y="52" on="1"/>
        <pt x="701" y="0" on="1"/>
        <pt x="372" y="0" on="1"/>
        <pt x="362" y="236" on="1"/>
        <pt x="141" y="236" on="1"/>
        <pt x="63" y="0" on="1"/>
        <pt x="6" y="0" on="1"/>
      </contour>
      <contour>
        <pt x="159" y="288" on="1"/>
        <pt x="360" y="288" on="1"/>
        <pt x="344" y="689" on="1"/>
        <pt x="292" y="689" on="1"/>
      </contour>
    </TTGlyph>
    <TTGlyph name="AE.sc" xMin="15" yMin="0" xMax="622" yMax="577">
      <contour>
        <pt x="15" y="5" on="1"/>
        <pt x="225" y="577" on="1"/>
        <pt x="615" y="577" on="1"/>
        <pt x="615" y="529" on="1"/>
        <pt x="363" y="529" on="1"/>
        <pt x="374" y="316" on="1"/>
        <pt x="590" y="316" on="1"/>
        <pt x="590" y="269" on="1"/>
        <pt x="376" y="269" on="1"/>
        <pt x="389" y="49" on="1"/>
        <pt x="622" y="49" on="1"/>
        <pt x="622" y="0" on="1"/>
        <pt x="334" y="0" on="1"/>
        <pt x="327" y="178" on="1"/>
        <pt x="137" y="178" on="1"/>
        <pt x="71" y="0" on="1"/>
        <pt x="15" y="0" on="1"/>
      </contour>
      <contour>
        <pt x="153" y="224" on="1"/>
        <pt x="324" y="224" on="1"/>
        <pt x="311" y="530" on="1"/>
        <pt x="267" y="530" on="1"/>
      </contour>
    </TTGlyph>
    <TTGlyph name="AEacute" xMin="6" yMin="0" xMax="701" yMax="921">
      <contour>
        <pt x="420" y="789" on="1"/>
        <pt x="496" y="921" on="1"/>
        <pt x="556" y="921" on="1"/>
        <pt x="466" y="785" on="1"/>
      </contour>
      <contour>
        <pt x="6" y="6" on="1"/>
        <pt x="250" y="740" on="1"/>
        <pt x="692" y="740" on="1"/>
        <pt x="692" y="688" on="1"/>
        <pt x="398" y="688" on="1"/>
        <pt x="411" y="401" on="1"/>
        <pt x="663" y="401" on="1"/>
        <pt x="663" y="349" on="1"/>
        <pt x="414" y="349" on="1"/>
        <pt x="428" y="52" on="1"/>
        <pt x="701" y="52" on="1"/>
        <pt x="701" y="0" on="1"/>
        <pt x="372" y="0" on="1"/>
        <pt x="362" y="236" on="1"/>
        <pt x="141" y="236" on="1"/>
        <pt x="63" y="0" on="1"/>
        <pt x="6" y="0" on="1"/>
      </contour>
      <contour>
        <pt x="159" y="288" on="1"/>
        <pt x="360" y="288" on="1"/>
        <pt x="344" y="689" on="1"/>
        <pt x="292" y="689" on="1"/>
      </contour>
    </TTGlyph>
    <TTGlyph name="AEacute.sc" xMin="15" yMin="0" xMax="622" yMax="724">
      <contour>
        <pt x="15" y="5" on="1"/>
        <pt x="225" y="577" on="1"/>
        <pt x="615" y="577" on="1"/>
        <pt x="615" y="529" on="1"/>
        <pt x="363" y="529" on="1"/>
        <pt x="374" y="316" on="1"/>
        <pt x="590" y="316" on="1"/>
        <pt x="590" y="269" on="1"/>
        <pt x="376" y="269" on="1"/>
        <pt x="389" y="49" on="1"/>
        <pt x="622" y="49" on="1"/>
        <pt x="622" y="0" on="1"/>
        <pt x="334" y="0" on="1"/>
        <pt x="327" y="178" on="1"/>
        <pt x="137" y="178" on="1"/>
        <pt x="71" y="0" on="1"/>
        <pt x="15" y="0" on="1"/>
      </contour>
      <contour>
        <pt x="324" y="224" on="1"/>
        <pt x="311" y="530" on="1"/>
        <pt x="267" y="530" on="1"/>
        <pt x="153" y="224" on="1"/>
      </contour>
      <contour>
        <pt x="372" y="617" on="1"/>
        <pt x="438" y="724" on="1"/>
        <pt x="496" y="724" on="1"/>
        <pt x="417" y="614" on="1"/>
      </contour>
    </TTGlyph>
    <TTGlyph name="Aacute" xMin="8" yMin="0" xMax="529" yMax="921">
      <contour>
        <pt x="8" y="6" on="1"/>
        <pt x="230" y="740" on="1"/>
        <pt x="307" y="740" on="1"/>
        <pt x="529" y="6" on="1"/>
        <pt x="529" y="0" on="1"/>
        <pt x="475" y="0" on="1"/>
        <pt x="402" y="237" on="1"/>
        <pt x="135" y="237" on="1"/>
        <pt x="62" y="0" on="1"/>
        <pt x="8" y="0" on="1"/>
      </contour>
      <contour>
        <pt x="388" y="287" on="1"/>
        <pt x="301" y="572" on="1"/>
        <pt x="270" y="683" on="1"/>
        <pt x="265" y="683" on="1"/>
        <pt x="235" y="572" on="1"/>
        <pt x="148" y="287" on="1"/>
      </contour>
      <contour>
        <pt x="242" y="789" on="1"/>
        <pt x="318" y="921" on="1"/>
        <pt x="378" y="921" on="1"/>
        <pt x="288" y="785" on="1"/>
      </contour>
    </TTGlyph>
    <TTGlyph name="Aacute.sc" xMin="13" yMin="0" xMax="471" yMax="724">
      <contour>
        <pt x="13" y="5" on="1"/>
        <pt x="204" y="577" on="1"/>
        <pt x="281" y="577" on="1"/>
        <pt x="471" y="5" on="1"/>
        <pt x="471" y="0" on="1"/>
        <pt x="418" y="0" on="1"/>
        <pt x="358" y="178" on="1"/>
        <pt x="126" y="178" on="1"/>
        <pt x="65" y="0" on="1"/>
        <pt x="13" y="0" on="1"/>
      </contour>
      <contour>
        <pt x="345" y="222" on="1"/>
        <pt x="271" y="441" on="1"/>
        <pt x="244" y="527" on="1"/>
        <pt x="239" y="527" on="1"/>
        <pt x="213" y="441" on="1"/>
        <pt x="138" y="222" on="1"/>
      </contour>
      <contour>
        <pt x="216" y="617" on="1"/>
        <pt x="282" y="724" on="1"/>
        <pt x="340" y="724" on="1"/>
        <pt x="261" y="614" on="1"/>
      </contour>
    </TTGlyph>
    <TTGlyph name="Abreve" xMin="8" yMin="0" xMax="529" yMax="952">
      <contour>
        <pt x="8" y="6" on="1"/>
        <pt x="230" y="740" on="1"/>
        <pt x="307" y="740" on="1"/>
        <pt x="529" y="6" on="1"/>
        <pt x="529" y="0" on="1"/>
        <pt x="475" y="0" on="1"/>
        <pt x="402" y="237" on="1"/>
        <pt x="135" y="237" on="1"/>
        <pt x="62" y="0" on="1"/>
        <pt x="8" y="0" on="1"/>
      </contour>
      <contour>
        <pt x="388" y="287" on="1"/>
        <pt x="301" y="572" on="1"/>
        <pt x="270" y="683" on="1"/>
        <pt x="265" y="683" on="1"/>
        <pt x="235" y="572" on="1"/>
        <pt x="148" y="287" on="1"/>
      </contour>
      <contour>
        <pt x="270" y="812" on="1"/>
        <pt x="202" y="812" on="0"/>
        <pt x="127" y="886" on="0"/>
        <pt x="127" y="952" on="1"/>
        <pt x="174" y="952" on="1"/>
        <pt x="174" y="904" on="0"/>
        <pt x="223" y="854" on="0"/>
        <pt x="270" y="854" on="1"/>
        <pt x="315" y="854" on="0"/>
        <pt x="365" y="904" on="0"/>
        <pt x="365" y="952" on="1"/>
        <pt x="412" y="952" on="1"/>
        <pt x="412" y="887" on="0"/>
        <pt x="337" y="812" on="0"/>
      </contour>
    </TTGlyph>
    <TTGlyph name="Abreve.sc" xMin="13" yMin="0" xMax="471" yMax="745">
      <contour>
        <pt x="243" y="632" on="1"/>
        <pt x="183" y="632" on="0"/>
        <pt x="117" y="692" on="0"/>
        <pt x="117" y="745" on="1"/>
        <pt x="162" y="745" on="1"/>
        <pt x="162" y="668" on="0"/>
        <pt x="243" y="668" on="1"/>
        <pt x="325" y="668" on="0"/>
        <pt x="325" y="745" on="1"/>
        <pt x="369" y="745" on="1"/>
        <pt x="369" y="692" on="0"/>
        <pt x="303" y="632" on="0"/>
      </contour>
      <contour>
        <pt x="13" y="5" on="1"/>
        <pt x="204" y="577" on="1"/>
        <pt x="281" y="577" on="1"/>
        <pt x="471" y="5" on="1"/>
        <pt x="471" y="0" on="1"/>
        <pt x="418" y="0" on="1"/>
        <pt x="358" y="178" on="1"/>
        <pt x="126" y="178" on="1"/>
        <pt x="65" y="0" on="1"/>
        <pt x="13" y="0" on="1"/>
      </contour>
      <contour>
        <pt x="345" y="222" on="1"/>
        <pt x="271" y="441" on="1"/>
        <pt x="244" y="527" on="1"/>
        <pt x="239" y="527" on="1"/>
        <pt x="213" y="441" on="1"/>
        <pt x="138" y="222" on="1"/>
      </contour>
    </TTGlyph>
    <TTGlyph name="Acircumflex" xMin="8" yMin="0" xMax="529" yMax="939">
      <contour>
        <pt x="8" y="6" on="1"/>
        <pt x="230" y="740" on="1"/>
        <pt x="307" y="740" on="1"/>
        <pt x="529" y="6" on="1"/>
        <pt x="529" y="0" on="1"/>
        <pt x="475" y="0" on="1"/>
        <pt x="402" y="237" on="1"/>
        <pt x="135" y="237" on="1"/>
        <pt x="62" y="0" on="1"/>
        <pt x="8" y="0" on="1"/>
      </contour>
      <contour>
        <pt x="388" y="287" on="1"/>
        <pt x="301" y="572" on="1"/>
        <pt x="270" y="683" on="1"/>
        <pt x="265" y="683" on="1"/>
        <pt x="235" y="572" on="1"/>
        <pt x="148" y="287" on="1"/>
      </contour>
      <contour>
        <pt x="140" y="867" on="1"/>
        <pt x="268" y="939" on="1"/>
        <pt x="396" y="867" on="1"/>
        <pt x="396" y="814" on="1"/>
        <pt x="268" y="886" on="1"/>
        <pt x="140" y="814" on="1"/>
      </contour>
    </TTGlyph>
    <TTGlyph name="Acircumflex.sc" xMin="13" yMin="0" xMax="471" yMax="736">
      <contour>
        <pt x="13" y="5" on="1"/>
        <pt x="204" y="577" on="1"/>
        <pt x="281" y="577" on="1"/>
        <pt x="471" y="5" on="1"/>
        <pt x="471" y="0" on="1"/>
        <pt x="418" y="0" on="1"/>
        <pt x="358" y="178" on="1"/>
        <pt x="126" y="178" on="1"/>
        <pt x="65" y="0" on="1"/>
        <pt x="13" y="0" on="1"/>
      </contour>
      <contour>
        <pt x="345" y="222" on="1"/>
        <pt x="271" y="441" on="1"/>
        <pt x="244" y="527" on="1"/>
        <pt x="239" y="527" on="1"/>
        <pt x="213" y="441" on="1"/>
        <pt x="138" y="222" on="1"/>
      </contour>
      <contour>
        <pt x="129" y="680" on="1"/>
        <pt x="243" y="736" on="1"/>
        <pt x="355" y="680" on="1"/>
        <pt x="355" y="633" on="1"/>
        <pt x="242" y="689" on="1"/>
        <pt x="129" y="633" on="1"/>
      </contour>
    </TTGlyph>
    <TTGlyph name="Adblgrave" xMin="8" yMin="0" xMax="529" yMax="921">
      <contour>
        <pt x="8" y="6" on="1"/>
        <pt x="230" y="740" on="1"/>
        <pt x="307" y="740" on="1"/>
        <pt x="529" y="6" on="1"/>
        <pt x="529" y="0" on="1"/>
        <pt x="475" y="0" on="1"/>
        <pt x="402" y="237" on="1"/>
        <pt x="135" y="237" on="1"/>
        <pt x="62" y="0" on="1"/>
        <pt x="8" y="0" on="1"/>
      </contour>
      <contour>
        <pt x="388" y="287" on="1"/>
        <pt x="301" y="572" on="1"/>
        <pt x="270" y="683" on="1"/>
        <pt x="265" y="683" on="1"/>
        <pt x="235" y="572" on="1"/>
        <pt x="148" y="287" on="1"/>
      </contour>
      <contour>
        <pt x="182" y="785" on="1"/>
        <pt x="92" y="921" on="1"/>
        <pt x="146" y="921" on="1"/>
        <pt x="223" y="798" on="1"/>
      </contour>
      <contour>
        <pt x="319" y="785" on="1"/>
        <pt x="229" y="921" on="1"/>
        <pt x="284" y="921" on="1"/>
        <pt x="360" y="798" on="1"/>
      </contour>
    </TTGlyph>
    <TTGlyph name="Adblgrave.sc" xMin="13" yMin="0" xMax="471" yMax="724">
      <contour>
        <pt x="13" y="5" on="1"/>
        <pt x="204" y="577" on="1"/>
        <pt x="281" y="577" on="1"/>
        <pt x="471" y="5" on="1"/>
        <pt x="471" y="0" on="1"/>
        <pt x="418" y="0" on="1"/>
        <pt x="358" y="178" on="1"/>
        <pt x="126" y="178" on="1"/>
        <pt x="65" y="0" on="1"/>
        <pt x="13" y="0" on="1"/>
      </contour>
      <contour>
        <pt x="345" y="222" on="1"/>
        <pt x="271" y="441" on="1"/>
        <pt x="244" y="527" on="1"/>
        <pt x="239" y="527" on="1"/>
        <pt x="213" y="441" on="1"/>
        <pt x="138" y="222" on="1"/>
      </contour>
      <contour>
        <pt x="86" y="724" on="1"/>
        <pt x="138" y="724" on="1"/>
        <pt x="204" y="623" on="1"/>
        <pt x="165" y="613" on="1"/>
      </contour>
      <contour>
        <pt x="207" y="724" on="1"/>
        <pt x="259" y="724" on="1"/>
        <pt x="324" y="623" on="1"/>
        <pt x="286" y="613" on="1"/>
      </contour>
    </TTGlyph>
    <TTGlyph name="Adieresis" xMin="8" yMin="0" xMax="529" yMax="890">
      <contour>
        <pt x="8" y="6" on="1"/>
        <pt x="230" y="740" on="1"/>
        <pt x="307" y="740" on="1"/>
        <pt x="529" y="6" on="1"/>
        <pt x="529" y="0" on="1"/>
        <pt x="475" y="0" on="1"/>
        <pt x="402" y="237" on="1"/>
        <pt x="135" y="237" on="1"/>
        <pt x="62" y="0" on="1"/>
        <pt x="8" y="0" on="1"/>
      </contour>
      <contour>
        <pt x="388" y="287" on="1"/>
        <pt x="301" y="572" on="1"/>
        <pt x="270" y="683" on="1"/>
        <pt x="265" y="683" on="1"/>
        <pt x="235" y="572" on="1"/>
        <pt x="148" y="287" on="1"/>
      </contour>
      <contour>
        <pt x="178" y="812" on="1"/>
        <pt x="160" y="812" on="0"/>
        <pt x="139" y="831" on="0"/>
        <pt x="139" y="851" on="1"/>
        <pt x="139" y="872" on="0"/>
        <pt x="160" y="890" on="0"/>
        <pt x="178" y="890" on="1"/>
        <pt x="196" y="890" on="0"/>
        <pt x="218" y="871" on="0"/>
        <pt x="218" y="851" on="1"/>
        <pt x="218" y="830" on="0"/>
        <pt x="196" y="812" on="0"/>
      </contour>
      <contour>
        <pt x="359" y="812" on="1"/>
        <pt x="341" y="812" on="0"/>
        <pt x="319" y="831" on="0"/>
        <pt x="319" y="851" on="1"/>
        <pt x="319" y="872" on="0"/>
        <pt x="341" y="890" on="0"/>
        <pt x="359" y="890" on="1"/>
        <pt x="376" y="890" on="0"/>
        <pt x="399" y="871" on="0"/>
        <pt x="399" y="851" on="1"/>
        <pt x="399" y="830" on="0"/>
        <pt x="376" y="812" on="0"/>
      </contour>
    </TTGlyph>
    <TTGlyph name="Adieresis.sc" xMin="13" yMin="0" xMax="471" yMax="704">
      <contour>
        <pt x="161" y="633" on="1"/>
        <pt x="124" y="633" on="0"/>
        <pt x="124" y="668" on="1"/>
        <pt x="124" y="688" on="0"/>
        <pt x="144" y="704" on="0"/>
        <pt x="161" y="704" on="1"/>
        <pt x="178" y="704" on="0"/>
        <pt x="199" y="687" on="0"/>
        <pt x="199" y="668" on="1"/>
        <pt x="199" y="649" on="0"/>
        <pt x="178" y="633" on="0"/>
      </contour>
      <contour>
        <pt x="323" y="633" on="1"/>
        <pt x="306" y="633" on="0"/>
        <pt x="286" y="649" on="0"/>
        <pt x="286" y="668" on="1"/>
        <pt x="286" y="688" on="0"/>
        <pt x="306" y="704" on="0"/>
        <pt x="323" y="704" on="1"/>
        <pt x="340" y="704" on="0"/>
        <pt x="361" y="687" on="0"/>
        <pt x="361" y="668" on="1"/>
        <pt x="361" y="649" on="0"/>
        <pt x="340" y="633" on="0"/>
      </contour>
      <contour>
        <pt x="13" y="5" on="1"/>
        <pt x="204" y="577" on="1"/>
        <pt x="281" y="577" on="1"/>
        <pt x="471" y="5" on="1"/>
        <pt x="471" y="0" on="1"/>
        <pt x="418" y="0" on="1"/>
        <pt x="358" y="178" on="1"/>
        <pt x="126" y="178" on="1"/>
        <pt x="65" y="0" on="1"/>
        <pt x="13" y="0" on="1"/>
      </contour>
      <contour>
        <pt x="345" y="222" on="1"/>
        <pt x="271" y="441" on="1"/>
        <pt x="244" y="527" on="1"/>
        <pt x="239" y="527" on="1"/>
        <pt x="213" y="441" on="1"/>
        <pt x="138" y="222" on="1"/>
      </contour>
    </TTGlyph>
    <TTGlyph name="Agrave" xMin="8" yMin="0" xMax="529" yMax="921">
      <contour>
        <pt x="8" y="6" on="1"/>
        <pt x="230" y="740" on="1"/>
        <pt x="307" y="740" on="1"/>
        <pt x="529" y="6" on="1"/>
        <pt x="529" y="0" on="1"/>
        <pt x="475" y="0" on="1"/>
        <pt x="402" y="237" on="1"/>
        <pt x="135" y="237" on="1"/>
        <pt x="62" y="0" on="1"/>
        <pt x="8" y="0" on="1"/>
      </contour>
      <contour>
        <pt x="388" y="287" on="1"/>
        <pt x="301" y="572" on="1"/>
        <pt x="270" y="683" on="1"/>
        <pt x="265" y="683" on="1"/>
        <pt x="235" y="572" on="1"/>
        <pt x="148" y="287" on="1"/>
      </contour>
      <contour>
        <pt x="241" y="785" on="1"/>
        <pt x="150" y="921" on="1"/>
        <pt x="210" y="921" on="1"/>
        <pt x="287" y="798" on="1"/>
      </contour>
    </TTGlyph>
    <TTGlyph name="Agrave.sc" xMin="13" yMin="0" xMax="471" yMax="724">
      <contour>
        <pt x="13" y="5" on="1"/>
        <pt x="204" y="577" on="1"/>
        <pt x="281" y="577" on="1"/>
        <pt x="471" y="5" on="1"/>
        <pt x="471" y="0" on="1"/>
        <pt x="418" y="0" on="1"/>
        <pt x="358" y="178" on="1"/>
        <pt x="126" y="178" on="1"/>
        <pt x="65" y="0" on="1"/>
        <pt x="13" y="0" on="1"/>
      </contour>
      <contour>
        <pt x="345" y="222" on="1"/>
        <pt x="271" y="441" on="1"/>
        <pt x="244" y="527" on="1"/>
        <pt x="239" y="527" on="1"/>
        <pt x="213" y="441" on="1"/>
        <pt x="138" y="222" on="1"/>
      </contour>
      <contour>
        <pt x="217" y="614" on="1"/>
        <pt x="138" y="724" on="1"/>
        <pt x="196" y="724" on="1"/>
        <pt x="261" y="623" on="1"/>
      </contour>
    </TTGlyph>
    <TTGlyph name="Ainvertedbreve" xMin="8" yMin="0" xMax="529" yMax="962">
      <contour>
        <pt x="8" y="6" on="1"/>
        <pt x="230" y="740" on="1"/>
        <pt x="307" y="740" on="1"/>
        <pt x="529" y="6" on="1"/>
        <pt x="529" y="0" on="1"/>
        <pt x="475" y="0" on="1"/>
        <pt x="402" y="237" on="1"/>
        <pt x="135" y="237" on="1"/>
        <pt x="62" y="0" on="1"/>
        <pt x="8" y="0" on="1"/>
      </contour>
      <contour>
        <pt x="388" y="287" on="1"/>
        <pt x="301" y="572" on="1"/>
        <pt x="270" y="683" on="1"/>
        <pt x="265" y="683" on="1"/>
        <pt x="235" y="572" on="1"/>
        <pt x="148" y="287" on="1"/>
      </contour>
      <contour>
        <pt x="364" y="822" on="1"/>
        <pt x="364" y="870" on="0"/>
        <pt x="314" y="921" on="0"/>
        <pt x="269" y="921" on="1"/>
        <pt x="222" y="921" on="0"/>
        <pt x="173" y="870" on="0"/>
        <pt x="173" y="822" on="1"/>
        <pt x="126" y="822" on="1"/>
        <pt x="126" y="888" on="0"/>
        <pt x="201" y="962" on="0"/>
        <pt x="269" y="962" on="1"/>
        <pt x="336" y="962" on="0"/>
        <pt x="411" y="888" on="0"/>
        <pt x="411" y="822" on="1"/>
      </contour>
    </TTGlyph>
    <TTGlyph name="Ainvertedbreve.sc" xMin="13" yMin="0" xMax="471" yMax="752">
      <contour>
        <pt x="117" y="640" on="1"/>
        <pt x="117" y="692" on="0"/>
        <pt x="182" y="752" on="0"/>
        <pt x="242" y="752" on="1"/>
        <pt x="302" y="752" on="0"/>
        <pt x="368" y="692" on="0"/>
        <pt x="368" y="640" on="1"/>
        <pt x="324" y="640" on="1"/>
        <pt x="324" y="716" on="0"/>
        <pt x="242" y="716" on="1"/>
        <pt x="203" y="716" on="0"/>
        <pt x="161" y="678" on="0"/>
        <pt x="161" y="640" on="1"/>
      </contour>
      <contour>
        <pt x="13" y="5" on="1"/>
        <pt x="204" y="577" on="1"/>
        <pt x="281" y="577" on="1"/>
        <pt x="471" y="5" on="1"/>
        <pt x="471" y="0" on="1"/>
        <pt x="418" y="0" on="1"/>
        <pt x="358" y="178" on="1"/>
        <pt x="126" y="178" on="1"/>
        <pt x="65" y="0" on="1"/>
        <pt x="13" y="0" on="1"/>
      </contour>
      <contour>
        <pt x="345" y="222" on="1"/>
        <pt x="271" y="441" on="1"/>
        <pt x="244" y="527" on="1"/>
        <pt x="239" y="527" on="1"/>
        <pt x="213" y="441" on="1"/>
        <pt x="138" y="222" on="1"/>
      </contour>
    </TTGlyph>
    <TTGlyph name="Amacron" xMin="8" yMin="0" xMax="529" yMax="888">
      <contour>
        <pt x="8" y="6" on="1"/>
        <pt x="230" y="740" on="1"/>
        <pt x="307" y="740" on="1"/>
        <pt x="529" y="6" on="1"/>
        <pt x="529" y="0" on="1"/>
        <pt x="475" y="0" on="1"/>
        <pt x="402" y="237" on="1"/>
        <pt x="135" y="237" on="1"/>
        <pt x="62" y="0" on="1"/>
        <pt x="8" y="0" on="1"/>
      </contour>
      <contour>
        <pt x="388" y="287" on="1"/>
        <pt x="301" y="572" on="1"/>
        <pt x="270" y="683" on="1"/>
        <pt x="265" y="683" on="1"/>
        <pt x="235" y="572" on="1"/>
        <pt x="148" y="287" on="1"/>
      </contour>
      <contour>
        <pt x="146" y="888" on="1"/>
        <pt x="374" y="888" on="1"/>
        <pt x="374" y="841" on="1"/>
        <pt x="146" y="841" on="1"/>
      </contour>
    </TTGlyph>
    <TTGlyph name="Amacron.sc" xMin="13" yMin="0" xMax="471" yMax="698">
      <contour>
        <pt x="13" y="5" on="1"/>
        <pt x="204" y="577" on="1"/>
        <pt x="281" y="577" on="1"/>
        <pt x="471" y="5" on="1"/>
        <pt x="471" y="0" on="1"/>
        <pt x="418" y="0" on="1"/>
        <pt x="358" y="178" on="1"/>
        <pt x="126" y="178" on="1"/>
        <pt x="65" y="0" on="1"/>
        <pt x="13" y="0" on="1"/>
      </contour>
      <contour>
        <pt x="345" y="222" on="1"/>
        <pt x="271" y="441" on="1"/>
        <pt x="244" y="527" on="1"/>
        <pt x="239" y="527" on="1"/>
        <pt x="213" y="441" on="1"/>
        <pt x="138" y="222" on="1"/>
      </contour>
      <contour>
        <pt x="133" y="698" on="1"/>
        <pt x="338" y="698" on="1"/>
        <pt x="338" y="656" on="1"/>
        <pt x="133" y="656" on="1"/>
      </contour>
    </TTGlyph>
    <TTGlyph name="Aogonek" xMin="8" yMin="-220" xMax="529" yMax="740">
      <contour>
        <pt x="477" y="-220" on="1"/>
        <pt x="436" y="-220" on="0"/>
        <pt x="391" y="-176" on="0"/>
        <pt x="391" y="-135" on="1"/>
        <pt x="391" y="-58" on="0"/>
        <pt x="482" y="0" on="1"/>
        <pt x="475" y="0" on="1"/>
        <pt x="402" y="237" on="1"/>
        <pt x="135" y="237" on="1"/>
        <pt x="62" y="0" on="1"/>
        <pt x="8" y="0" on="1"/>
        <pt x="8" y="6" on="1"/>
        <pt x="230" y="740" on="1"/>
        <pt x="307" y="740" on="1"/>
        <pt x="529" y="6" on="1"/>
        <pt x="529" y="-17" on="1"/>
        <pt x="481" y="-40" on="0"/>
        <pt x="437" y="-97" on="0"/>
        <pt x="437" y="-130" on="1"/>
        <pt x="437" y="-176" on="0"/>
        <pt x="484" y="-176" on="1"/>
        <pt x="507" y="-176" on="0"/>
        <pt x="529" y="-165" on="1"/>
        <pt x="529" y="-208" on="1"/>
        <pt x="503" y="-220" on="0"/>
      </contour>
      <contour>
        <pt x="388" y="287" on="1"/>
        <pt x="301" y="572" on="1"/>
        <pt x="270" y="683" on="1"/>
        <pt x="265" y="683" on="1"/>
        <pt x="235" y="572" on="1"/>
        <pt x="148" y="287" on="1"/>
      </contour>
    </TTGlyph>
    <TTGlyph name="Aogonek.sc" xMin="12" yMin="-170" xMax="471" yMax="577">
      <contour>
        <pt x="425" y="-170" on="1"/>
        <pt x="387" y="-170" on="0"/>
        <pt x="347" y="-136" on="0"/>
        <pt x="347" y="-103" on="1"/>
        <pt x="347" y="-44" on="0"/>
        <pt x="421" y="0" on="1"/>
        <pt x="418" y="0" on="1"/>
        <pt x="357" y="178" on="1"/>
        <pt x="126" y="178" on="1"/>
        <pt x="64" y="0" on="1"/>
        <pt x="12" y="0" on="1"/>
        <pt x="12" y="5" on="1"/>
        <pt x="203" y="577" on="1"/>
        <pt x="280" y="577" on="1"/>
        <pt x="471" y="5" on="1"/>
        <pt x="471" y="-12" on="1"/>
        <pt x="431" y="-26" on="0"/>
        <pt x="390" y="-73" on="0"/>
        <pt x="390" y="-98" on="1"/>
        <pt x="390" y="-131" on="0"/>
        <pt x="429" y="-131" on="1"/>
        <pt x="453" y="-131" on="0"/>
        <pt x="471" y="-122" on="1"/>
        <pt x="471" y="-161" on="1"/>
        <pt x="448" y="-170" on="0"/>
      </contour>
      <contour>
        <pt x="344" y="222" on="1"/>
        <pt x="270" y="447" on="1"/>
        <pt x="243" y="527" on="1"/>
        <pt x="238" y="527" on="1"/>
        <pt x="213" y="447" on="1"/>
        <pt x="137" y="222" on="1"/>
      </contour>
    </TTGlyph>
    <TTGlyph name="Aring" xMin="8" yMin="0" xMax="529" yMax="919">
      <contour>
        <pt x="8" y="6" on="1"/>
        <pt x="225" y="724" on="1"/>
        <pt x="201" y="736" on="0"/>
        <pt x="175" y="785" on="0"/>
        <pt x="175" y="817" on="1"/>
        <pt x="175" y="859" on="0"/>
        <pt x="223" y="919" on="0"/>
        <pt x="268" y="919" on="1"/>
        <pt x="313" y="919" on="0"/>
        <pt x="362" y="859" on="0"/>
        <pt x="362" y="817" on="1"/>
        <pt x="362" y="786" on="0"/>
        <pt x="335" y="737" on="0"/>
        <pt x="311" y="725" on="1"/>
        <pt x="529" y="6" on="1"/>
        <pt x="529" y="0" on="1"/>
        <pt x="475" y="0" on="1"/>
        <pt x="402" y="237" on="1"/>
        <pt x="135" y="237" on="1"/>
        <pt x="62" y="0" on="1"/>
        <pt x="8" y="0" on="1"/>
      </contour>
      <contour>
        <pt x="388" y="287" on="1"/>
        <pt x="301" y="572" on="1"/>
        <pt x="270" y="683" on="1"/>
        <pt x="265" y="683" on="1"/>
        <pt x="235" y="572" on="1"/>
        <pt x="148" y="287" on="1"/>
      </contour>
      <contour>
        <pt x="268" y="752" on="1"/>
        <pt x="295" y="752" on="0"/>
        <pt x="323" y="789" on="0"/>
        <pt x="323" y="817" on="1"/>
        <pt x="323" y="845" on="0"/>
        <pt x="296" y="881" on="0"/>
        <pt x="268" y="881" on="1"/>
        <pt x="240" y="881" on="0"/>
        <pt x="214" y="845" on="0"/>
        <pt x="214" y="817" on="1"/>
        <pt x="214" y="789" on="0"/>
        <pt x="241" y="752" on="0"/>
      </contour>
    </TTGlyph>
    <TTGlyph name="Aring.sc" xMin="13" yMin="0" xMax="471" yMax="774">
      <contour>
        <pt x="13" y="5" on="1"/>
        <pt x="204" y="577" on="1"/>
        <pt x="281" y="577" on="1"/>
        <pt x="471" y="5" on="1"/>
        <pt x="471" y="0" on="1"/>
        <pt x="418" y="0" on="1"/>
        <pt x="358" y="178" on="1"/>
        <pt x="126" y="178" on="1"/>
        <pt x="65" y="0" on="1"/>
        <pt x="13" y="0" on="1"/>
      </contour>
      <contour>
        <pt x="345" y="222" on="1"/>
        <pt x="271" y="441" on="1"/>
        <pt x="244" y="527" on="1"/>
        <pt x="239" y="527" on="1"/>
        <pt x="213" y="441" on="1"/>
        <pt x="138" y="222" on="1"/>
      </contour>
      <contour>
        <pt x="240" y="612" on="1"/>
        <pt x="202" y="612" on="0"/>
        <pt x="158" y="659" on="0"/>
        <pt x="158" y="692" on="1"/>
        <pt x="158" y="727" on="0"/>
        <pt x="201" y="774" on="0"/>
        <pt x="240" y="774" on="1"/>
        <pt x="280" y="774" on="0"/>
        <pt x="324" y="727" on="0"/>
        <pt x="324" y="692" on="1"/>
        <pt x="324" y="659" on="0"/>
        <pt x="280" y="612" on="0"/>
      </contour>
      <contour>
        <pt x="240" y="643" on="1"/>
        <pt x="264" y="643" on="0"/>
        <pt x="289" y="670" on="0"/>
        <pt x="289" y="692" on="1"/>
        <pt x="289" y="715" on="0"/>
        <pt x="265" y="742" on="0"/>
        <pt x="240" y="742" on="1"/>
        <pt x="216" y="742" on="0"/>
        <pt x="193" y="715" on="0"/>
        <pt x="193" y="692" on="1"/>
        <pt x="193" y="670" on="0"/>
        <pt x="217" y="643" on="0"/>
      </contour>
    </TTGlyph>
    <TTGlyph name="Aringacute" xMin="9" yMin="0" xMax="529" yMax="927">
      <contour>
        <pt x="9" y="6" on="1"/>
        <pt x="202" y="640" on="1"/>
        <pt x="185" y="654" on="0"/>
        <pt x="168" y="698" on="0"/>
        <pt x="168" y="724" on="1"/>
        <pt x="168" y="765" on="0"/>
        <pt x="209" y="825" on="0"/>
        <pt x="249" y="830" on="1"/>
        <pt x="311" y="927" on="1"/>
        <pt x="371" y="927" on="1"/>
        <pt x="303" y="825" on="1"/>
        <pt x="335" y="814" on="0"/>
        <pt x="369" y="759" on="0"/>
        <pt x="369" y="724" on="1"/>
        <pt x="369" y="699" on="0"/>
        <pt x="352" y="657" on="0"/>
        <pt x="335" y="643" on="1"/>
        <pt x="529" y="6" on="1"/>
        <pt x="529" y="0" on="1"/>
        <pt x="475" y="0" on="1"/>
        <pt x="403" y="236" on="1"/>
        <pt x="135" y="236" on="1"/>
        <pt x="63" y="0" on="1"/>
        <pt x="9" y="0" on="1"/>
      </contour>
      <contour>
        <pt x="267" y="658" on="1"/>
        <pt x="294" y="658" on="0"/>
        <pt x="325" y="696" on="0"/>
        <pt x="325" y="724" on="1"/>
        <pt x="325" y="753" on="0"/>
        <pt x="295" y="790" on="0"/>
        <pt x="267" y="790" on="1"/>
        <pt x="239" y="790" on="0"/>
        <pt x="212" y="753" on="0"/>
        <pt x="212" y="724" on="1"/>
        <pt x="212" y="696" on="0"/>
        <pt x="240" y="658" on="0"/>
      </contour>
      <contour>
        <pt x="388" y="288" on="1"/>
        <pt x="303" y="572" on="1"/>
        <pt x="291" y="618" on="1"/>
        <pt x="248" y="618" on="1"/>
        <pt x="235" y="572" on="1"/>
        <pt x="149" y="288" on="1"/>
      </contour>
    </TTGlyph>
    <TTGlyph name="Aringacute.sc" xMin="13" yMin="0" xMax="471" yMax="733">
      <contour>
        <pt x="13" y="5" on="1"/>
        <pt x="180" y="503" on="1"/>
        <pt x="165" y="514" on="0"/>
        <pt x="151" y="548" on="0"/>
        <pt x="151" y="568" on="1"/>
        <pt x="151" y="602" on="0"/>
        <pt x="188" y="650" on="0"/>
        <pt x="223" y="655" on="1"/>
        <pt x="276" y="733" on="1"/>
        <pt x="333" y="733" on="1"/>
        <pt x="274" y="649" on="1"/>
        <pt x="302" y="641" on="0"/>
        <pt x="332" y="597" on="0"/>
        <pt x="332" y="568" on="1"/>
        <pt x="332" y="549" on="0"/>
        <pt x="318" y="516" on="0"/>
        <pt x="303" y="505" on="1"/>
        <pt x="471" y="5" on="1"/>
        <pt x="471" y="0" on="1"/>
        <pt x="418" y="0" on="1"/>
        <pt x="357" y="178" on="1"/>
        <pt x="126" y="178" on="1"/>
        <pt x="65" y="0" on="1"/>
        <pt x="13" y="0" on="1"/>
      </contour>
      <contour>
        <pt x="240" y="517" on="1"/>
        <pt x="264" y="517" on="0"/>
        <pt x="291" y="546" on="0"/>
        <pt x="291" y="568" on="1"/>
        <pt x="291" y="591" on="0"/>
        <pt x="265" y="620" on="0"/>
        <pt x="240" y="620" on="1"/>
        <pt x="216" y="620" on="0"/>
        <pt x="191" y="591" on="0"/>
        <pt x="191" y="568" on="1"/>
        <pt x="191" y="546" on="0"/>
        <pt x="217" y="517" on="0"/>
      </contour>
      <contour>
        <pt x="345" y="222" on="1"/>
        <pt x="271" y="441" on="1"/>
        <pt x="259" y="482" on="1"/>
        <pt x="224" y="481" on="1"/>
        <pt x="213" y="441" on="1"/>
        <pt x="138" y="222" on="1"/>
      </contour>
    </TTGlyph>
    <TTGlyph name="Atilde" xMin="8" yMin="0" xMax="529" yMax="908">
      <contour>
        <pt x="8" y="6" on="1"/>
        <pt x="230" y="740" on="1"/>
        <pt x="307" y="740" on="1"/>
        <pt x="529" y="6" on="1"/>
        <pt x="529" y="0" on="1"/>
        <pt x="475" y="0" on="1"/>
        <pt x="402" y="237" on="1"/>
        <pt x="135" y="237" on="1"/>
        <pt x="62" y="0" on="1"/>
        <pt x="8" y="0" on="1"/>
      </contour>
      <contour>
        <pt x="388" y="287" on="1"/>
        <pt x="301" y="572" on="1"/>
        <pt x="270" y="683" on="1"/>
        <pt x="265" y="683" on="1"/>
        <pt x="235" y="572" on="1"/>
        <pt x="148" y="287" on="1"/>
      </contour>
      <contour>
        <pt x="121" y="848" on="1"/>
        <pt x="137" y="872" on="0"/>
        <pt x="188" y="908" on="0"/>
        <pt x="214" y="908" on="1"/>
        <pt x="233" y="908" on="0"/>
        <pt x="264" y="895" on="0"/>
        <pt x="293" y="879" on="0"/>
        <pt x="321" y="866" on="0"/>
        <pt x="338" y="866" on="1"/>
        <pt x="371" y="866" on="0"/>
        <pt x="393" y="906" on="1"/>
        <pt x="420" y="885" on="1"/>
        <pt x="407" y="856" on="0"/>
        <pt x="357" y="821" on="0"/>
        <pt x="331" y="821" on="1"/>
        <pt x="312" y="821" on="0"/>
        <pt x="281" y="834" on="0"/>
        <pt x="252" y="850" on="0"/>
        <pt x="223" y="863" on="0"/>
        <pt x="207" y="863" on="1"/>
        <pt x="190" y="863" on="0"/>
        <pt x="157" y="841" on="0"/>
        <pt x="144" y="824" on="1"/>
      </contour>
    </TTGlyph>
    <TTGlyph name="Atilde.sc" xMin="13" yMin="0" xMax="471" yMax="714">
      <contour>
        <pt x="13" y="5" on="1"/>
        <pt x="204" y="577" on="1"/>
        <pt x="281" y="577" on="1"/>
        <pt x="471" y="5" on="1"/>
        <pt x="471" y="0" on="1"/>
        <pt x="418" y="0" on="1"/>
        <pt x="358" y="178" on="1"/>
        <pt x="126" y="178" on="1"/>
        <pt x="65" y="0" on="1"/>
        <pt x="13" y="0" on="1"/>
      </contour>
      <contour>
        <pt x="345" y="222" on="1"/>
        <pt x="271" y="441" on="1"/>
        <pt x="244" y="527" on="1"/>
        <pt x="239" y="527" on="1"/>
        <pt x="213" y="441" on="1"/>
        <pt x="138" y="222" on="1"/>
      </contour>
      <contour>
        <pt x="111" y="661" on="1"/>
        <pt x="126" y="684" on="0"/>
        <pt x="172" y="714" on="0"/>
        <pt x="195" y="714" on="1"/>
        <pt x="211" y="714" on="0"/>
        <pt x="239" y="704" on="0"/>
        <pt x="265" y="691" on="0"/>
        <pt x="290" y="681" on="0"/>
        <pt x="305" y="681" on="1"/>
        <pt x="333" y="681" on="0"/>
        <pt x="355" y="712" on="1"/>
        <pt x="379" y="696" on="1"/>
        <pt x="366" y="670" on="0"/>
        <pt x="320" y="640" on="0"/>
        <pt x="297" y="640" on="1"/>
        <pt x="281" y="640" on="0"/>
        <pt x="254" y="650" on="0"/>
        <pt x="228" y="663" on="0"/>
        <pt x="203" y="673" on="0"/>
        <pt x="188" y="673" on="1"/>
        <pt x="172" y="673" on="0"/>
        <pt x="143" y="656" on="0"/>
        <pt x="132" y="642" on="1"/>
      </contour>
    </TTGlyph>
    <TTGlyph name="B" xMin="77" yMin="-10" xMax="507" yMax="750">
      <contour>
        <pt x="267" y="-10" on="1"/>
        <pt x="245" y="-10" on="0"/>
        <pt x="192" y="-8" on="0"/>
        <pt x="139" y="-3" on="0"/>
        <pt x="93" y="2" on="0"/>
        <pt x="77" y="5" on="1"/>
        <pt x="77" y="737" on="1"/>
        <pt x="110" y="741" on="0"/>
        <pt x="159" y="746" on="0"/>
        <pt x="199" y="749" on="0"/>
        <pt x="234" y="750" on="0"/>
        <pt x="252" y="750" on="1"/>
        <pt x="370" y="750" on="0"/>
        <pt x="484" y="654" on="0"/>
        <pt x="484" y="552" on="1"/>
        <pt x="484" y="480" on="0"/>
        <pt x="423" y="391" on="0"/>
        <pt x="366" y="380" on="1"/>
        <pt x="366" y="376" on="1"/>
        <pt x="432" y="367" on="0"/>
        <pt x="507" y="270" on="0"/>
        <pt x="507" y="193" on="1"/>
        <pt x="507" y="91" on="0"/>
        <pt x="386" y="-10" on="0"/>
      </contour>
      <contour>
        <pt x="271" y="36" on="1"/>
        <pt x="448" y="37" on="0"/>
        <pt x="448" y="195" on="1"/>
        <pt x="448" y="278" on="0"/>
        <pt x="356" y="350" on="0"/>
        <pt x="250" y="350" on="1"/>
        <pt x="131" y="350" on="1"/>
        <pt x="131" y="46" on="1"/>
        <pt x="138" y="44" on="0"/>
        <pt x="171" y="41" on="0"/>
        <pt x="211" y="38" on="0"/>
        <pt x="254" y="36" on="0"/>
      </contour>
      <contour>
        <pt x="249" y="399" on="1"/>
        <pt x="297" y="399" on="0"/>
        <pt x="364" y="415" on="0"/>
        <pt x="406" y="451" on="0"/>
        <pt x="424" y="508" on="0"/>
        <pt x="424" y="550" on="1"/>
        <pt x="424" y="628" on="0"/>
        <pt x="342" y="702" on="0"/>
        <pt x="256" y="702" on="1"/>
        <pt x="222" y="702" on="0"/>
        <pt x="164" y="698" on="0"/>
        <pt x="131" y="693" on="1"/>
        <pt x="131" y="399" on="1"/>
      </contour>
    </TTGlyph>
    <TTGlyph name="B.sc" xMin="72" yMin="-8" xMax="449" yMax="585">
      <contour>
        <pt x="238" y="-8" on="1"/>
        <pt x="218" y="-8" on="0"/>
        <pt x="173" y="-6" on="0"/>
        <pt x="128" y="-3" on="0"/>
        <pt x="87" y="1" on="0"/>
        <pt x="72" y="4" on="1"/>
        <pt x="72" y="575" on="1"/>
        <pt x="100" y="578" on="0"/>
        <pt x="144" y="581" on="0"/>
        <pt x="179" y="584" on="0"/>
        <pt x="210" y="585" on="0"/>
        <pt x="226" y="585" on="1"/>
        <pt x="331" y="585" on="0"/>
        <pt x="429" y="510" on="0"/>
        <pt x="429" y="429" on="1"/>
        <pt x="429" y="375" on="0"/>
        <pt x="377" y="306" on="0"/>
        <pt x="327" y="296" on="1"/>
        <pt x="327" y="293" on="1"/>
        <pt x="384" y="285" on="0"/>
        <pt x="449" y="212" on="0"/>
        <pt x="449" y="152" on="1"/>
        <pt x="449" y="-8" on="0"/>
      </contour>
      <contour>
        <pt x="243" y="36" on="1"/>
        <pt x="393" y="36" on="0"/>
        <pt x="393" y="154" on="1"/>
        <pt x="393" y="216" on="0"/>
        <pt x="317" y="269" on="0"/>
        <pt x="228" y="269" on="1"/>
        <pt x="125" y="269" on="1"/>
        <pt x="125" y="44" on="1"/>
        <pt x="131" y="42" on="0"/>
        <pt x="158" y="40" on="0"/>
        <pt x="192" y="37" on="0"/>
        <pt x="228" y="36" on="0"/>
      </contour>
      <contour>
        <pt x="227" y="314" on="1"/>
        <pt x="308" y="314" on="0"/>
        <pt x="373" y="365" on="0"/>
        <pt x="373" y="427" on="1"/>
        <pt x="373" y="485" on="0"/>
        <pt x="304" y="539" on="0"/>
        <pt x="231" y="539" on="1"/>
        <pt x="202" y="539" on="0"/>
        <pt x="153" y="536" on="0"/>
        <pt x="125" y="533" on="1"/>
        <pt x="125" y="314" on="1"/>
      </contour>
    </TTGlyph>
    <TTGlyph name="C" xMin="46" yMin="-10" xMax="453" yMax="748">
      <contour>
        <pt x="351" y="-10" on="1"/>
        <pt x="271" y="-9" on="0"/>
        <pt x="155" y="36" on="0"/>
        <pt x="81" y="128" on="0"/>
        <pt x="46" y="270" on="0"/>
        <pt x="46" y="369" on="1"/>
        <pt x="46" y="471" on="0"/>
        <pt x="80" y="615" on="0"/>
        <pt x="153" y="706" on="0"/>
        <pt x="268" y="748" on="0"/>
        <pt x="349" y="748" on="1"/>
        <pt x="372" y="748" on="0"/>
        <pt x="424" y="745" on="0"/>
        <pt x="453" y="740" on="1"/>
        <pt x="453" y="689" on="1"/>
        <pt x="436" y="693" on="0"/>
        <pt x="383" y="697" on="0"/>
        <pt x="356" y="697" on="1"/>
        <pt x="288" y="697" on="0"/>
        <pt x="192" y="663" on="0"/>
        <pt x="132" y="585" on="0"/>
        <pt x="105" y="460" on="0"/>
        <pt x="105" y="369" on="1"/>
        <pt x="105" y="282" on="0"/>
        <pt x="134" y="158" on="0"/>
        <pt x="194" y="79" on="0"/>
        <pt x="287" y="42" on="0"/>
        <pt x="352" y="42" on="1"/>
        <pt x="367" y="42" on="0"/>
        <pt x="427" y="46" on="0"/>
        <pt x="453" y="50" on="1"/>
        <pt x="453" y="0" on="1"/>
        <pt x="430" y="-5" on="0"/>
        <pt x="384" y="-10" on="0"/>
      </contour>
    </TTGlyph>
    <TTGlyph name="C.sc" xMin="45" yMin="-8" xMax="400" yMax="584">
      <contour>
        <pt x="307" y="-8" on="1"/>
        <pt x="170" y="-7" on="0"/>
        <pt x="45" y="134" on="0"/>
        <pt x="45" y="288" on="1"/>
        <pt x="45" y="367" on="0"/>
        <pt x="75" y="479" on="0"/>
        <pt x="138" y="551" on="0"/>
        <pt x="237" y="584" on="0"/>
        <pt x="306" y="584" on="1"/>
        <pt x="326" y="584" on="0"/>
        <pt x="374" y="580" on="0"/>
        <pt x="400" y="576" on="1"/>
        <pt x="400" y="529" on="1"/>
        <pt x="383" y="531" on="0"/>
        <pt x="336" y="535" on="0"/>
        <pt x="313" y="535" on="1"/>
        <pt x="256" y="535" on="0"/>
        <pt x="176" y="509" on="0"/>
        <pt x="125" y="451" on="0"/>
        <pt x="102" y="357" on="0"/>
        <pt x="102" y="288" on="1"/>
        <pt x="102" y="222" on="0"/>
        <pt x="126" y="128" on="0"/>
        <pt x="177" y="68" on="0"/>
        <pt x="256" y="41" on="0"/>
        <pt x="310" y="41" on="1"/>
        <pt x="324" y="41" on="0"/>
        <pt x="378" y="45" on="0"/>
        <pt x="400" y="48" on="1"/>
        <pt x="400" y="2" on="1"/>
        <pt x="380" y="-3" on="0"/>
        <pt x="336" y="-8" on="0"/>
      </contour>
    </TTGlyph>
    <TTGlyph name="Cacute" xMin="46" yMin="-10" xMax="453" yMax="921">
      <contour>
        <pt x="351" y="-10" on="1"/>
        <pt x="271" y="-9" on="0"/>
        <pt x="155" y="36" on="0"/>
        <pt x="81" y="128" on="0"/>
        <pt x="46" y="270" on="0"/>
        <pt x="46" y="369" on="1"/>
        <pt x="46" y="471" on="0"/>
        <pt x="80" y="615" on="0"/>
        <pt x="153" y="706" on="0"/>
        <pt x="268" y="748" on="0"/>
        <pt x="349" y="748" on="1"/>
        <pt x="372" y="748" on="0"/>
        <pt x="424" y="745" on="0"/>
        <pt x="453" y="740" on="1"/>
        <pt x="453" y="689" on="1"/>
        <pt x="436" y="693" on="0"/>
        <pt x="383" y="697" on="0"/>
        <pt x="356" y="697" on="1"/>
        <pt x="288" y="697" on="0"/>
        <pt x="192" y="663" on="0"/>
        <pt x="132" y="585" on="0"/>
        <pt x="105" y="460" on="0"/>
        <pt x="105" y="369" on="1"/>
        <pt x="105" y="282" on="0"/>
        <pt x="134" y="158" on="0"/>
        <pt x="194" y="79" on="0"/>
        <pt x="287" y="42" on="0"/>
        <pt x="352" y="42" on="1"/>
        <pt x="367" y="42" on="0"/>
        <pt x="427" y="46" on="0"/>
        <pt x="453" y="50" on="1"/>
        <pt x="453" y="0" on="1"/>
        <pt x="430" y="-5" on="0"/>
        <pt x="384" y="-10" on="0"/>
      </contour>
      <contour>
        <pt x="273" y="789" on="1"/>
        <pt x="349" y="921" on="1"/>
        <pt x="409" y="921" on="1"/>
        <pt x="319" y="785" on="1"/>
      </contour>
    </TTGlyph>
    <TTGlyph name="Cacute.sc" xMin="45" yMin="-8" xMax="400" yMax="724">
      <contour>
        <pt x="307" y="-8" on="1"/>
        <pt x="170" y="-7" on="0"/>
        <pt x="45" y="134" on="0"/>
        <pt x="45" y="288" on="1"/>
        <pt x="45" y="367" on="0"/>
        <pt x="75" y="479" on="0"/>
        <pt x="138" y="551" on="0"/>
        <pt x="237" y="584" on="0"/>
        <pt x="306" y="584" on="1"/>
        <pt x="326" y="584" on="0"/>
        <pt x="374" y="580" on="0"/>
        <pt x="400" y="576" on="1"/>
        <pt x="400" y="529" on="1"/>
        <pt x="383" y="531" on="0"/>
        <pt x="336" y="535" on="0"/>
        <pt x="313" y="535" on="1"/>
        <pt x="256" y="535" on="0"/>
        <pt x="176" y="509" on="0"/>
        <pt x="125" y="451" on="0"/>
        <pt x="102" y="357" on="0"/>
        <pt x="102" y="288" on="1"/>
        <pt x="102" y="222" on="0"/>
        <pt x="126" y="128" on="0"/>
        <pt x="177" y="68" on="0"/>
        <pt x="256" y="41" on="0"/>
        <pt x="310" y="41" on="1"/>
        <pt x="324" y="41" on="0"/>
        <pt x="378" y="45" on="0"/>
        <pt x="400" y="48" on="1"/>
        <pt x="400" y="2" on="1"/>
        <pt x="380" y="-3" on="0"/>
        <pt x="336" y="-8" on="0"/>
      </contour>
      <contour>
        <pt x="239" y="617" on="1"/>
        <pt x="305" y="724" on="1"/>
        <pt x="362" y="724" on="1"/>
        <pt x="283" y="614" on="1"/>
      </contour>
    </TTGlyph>
    <TTGlyph name="Ccaron" xMin="46" yMin="-10" xMax="453" yMax="922">
      <contour>
        <pt x="351" y="-10" on="1"/>
        <pt x="271" y="-9" on="0"/>
        <pt x="155" y="36" on="0"/>
        <pt x="81" y="128" on="0"/>
        <pt x="46" y="270" on="0"/>
        <pt x="46" y="369" on="1"/>
        <pt x="46" y="471" on="0"/>
        <pt x="80" y="615" on="0"/>
        <pt x="153" y="706" on="0"/>
        <pt x="268" y="748" on="0"/>
        <pt x="349" y="748" on="1"/>
        <pt x="372" y="748" on="0"/>
        <pt x="424" y="745" on="0"/>
        <pt x="453" y="740" on="1"/>
        <pt x="453" y="689" on="1"/>
        <pt x="436" y="693" on="0"/>
        <pt x="383" y="697" on="0"/>
        <pt x="356" y="697" on="1"/>
        <pt x="288" y="697" on="0"/>
        <pt x="192" y="663" on="0"/>
        <pt x="132" y="585" on="0"/>
        <pt x="105" y="460" on="0"/>
        <pt x="105" y="369" on="1"/>
        <pt x="105" y="282" on="0"/>
        <pt x="134" y="158" on="0"/>
        <pt x="194" y="79" on="0"/>
        <pt x="287" y="42" on="0"/>
        <pt x="352" y="42" on="1"/>
        <pt x="367" y="42" on="0"/>
        <pt x="427" y="46" on="0"/>
        <pt x="453" y="50" on="1"/>
        <pt x="453" y="0" on="1"/>
        <pt x="430" y="-5" on="0"/>
        <pt x="384" y="-10" on="0"/>
      </contour>
      <contour>
        <pt x="176" y="922" on="1"/>
        <pt x="304" y="850" on="1"/>
        <pt x="432" y="922" on="1"/>
        <pt x="432" y="869" on="1"/>
        <pt x="304" y="797" on="1"/>
        <pt x="176" y="869" on="1"/>
      </contour>
    </TTGlyph>
    <TTGlyph name="Ccaron.sc" xMin="45" yMin="-8" xMax="400" yMax="724">
      <contour>
        <pt x="307" y="-8" on="1"/>
        <pt x="170" y="-7" on="0"/>
        <pt x="45" y="134" on="0"/>
        <pt x="45" y="288" on="1"/>
        <pt x="45" y="367" on="0"/>
        <pt x="75" y="479" on="0"/>
        <pt x="138" y="551" on="0"/>
        <pt x="237" y="584" on="0"/>
        <pt x="306" y="584" on="1"/>
        <pt x="326" y="584" on="0"/>
        <pt x="374" y="580" on="0"/>
        <pt x="400" y="576" on="1"/>
        <pt x="400" y="529" on="1"/>
        <pt x="383" y="531" on="0"/>
        <pt x="336" y="535" on="0"/>
        <pt x="313" y="535" on="1"/>
        <pt x="256" y="535" on="0"/>
        <pt x="176" y="509" on="0"/>
        <pt x="125" y="451" on="0"/>
        <pt x="102" y="357" on="0"/>
        <pt x="102" y="288" on="1"/>
        <pt x="102" y="222" on="0"/>
        <pt x="126" y="128" on="0"/>
        <pt x="177" y="68" on="0"/>
        <pt x="256" y="41" on="0"/>
        <pt x="310" y="41" on="1"/>
        <pt x="324" y="41" on="0"/>
        <pt x="378" y="45" on="0"/>
        <pt x="400" y="48" on="1"/>
        <pt x="400" y="2" on="1"/>
        <pt x="380" y="-3" on="0"/>
        <pt x="336" y="-8" on="0"/>
      </contour>
      <contour>
        <pt x="156" y="724" on="1"/>
        <pt x="268" y="668" on="1"/>
        <pt x="382" y="724" on="1"/>
        <pt x="382" y="678" on="1"/>
        <pt x="268" y="621" on="1"/>
        <pt x="156" y="678" on="1"/>
      </contour>
    </TTGlyph>
    <TTGlyph name="Ccedilla" xMin="46" yMin="-220" xMax="453" yMax="748">
      <contour>
        <pt x="264" y="-220" on="1"/>
        <pt x="248" y="-220" on="0"/>
        <pt x="215" y="-215" on="0"/>
        <pt x="200" y="-210" on="1"/>
        <pt x="200" y="-164" on="1"/>
        <pt x="230" y="-175" on="0"/>
        <pt x="259" y="-175" on="1"/>
        <pt x="323" y="-175" on="0"/>
        <pt x="323" y="-108" on="1"/>
        <pt x="323" y="-85" on="0"/>
        <pt x="307" y="-32" on="0"/>
        <pt x="293" y="-6" on="1"/>
        <pt x="228" y="2" on="0"/>
        <pt x="135" y="54" on="0"/>
        <pt x="75" y="146" on="0"/>
        <pt x="46" y="279" on="0"/>
        <pt x="46" y="369" on="1"/>
        <pt x="46" y="471" on="0"/>
        <pt x="80" y="615" on="0"/>
        <pt x="153" y="706" on="0"/>
        <pt x="268" y="748" on="0"/>
        <pt x="349" y="748" on="1"/>
        <pt x="372" y="748" on="0"/>
        <pt x="424" y="745" on="0"/>
        <pt x="453" y="740" on="1"/>
        <pt x="453" y="689" on="1"/>
        <pt x="436" y="693" on="0"/>
        <pt x="383" y="697" on="0"/>
        <pt x="356" y="697" on="1"/>
        <pt x="288" y="697" on="0"/>
        <pt x="192" y="663" on="0"/>
        <pt x="132" y="585" on="0"/>
        <pt x="105" y="460" on="0"/>
        <pt x="105" y="369" on="1"/>
        <pt x="105" y="282" on="0"/>
        <pt x="134" y="158" on="0"/>
        <pt x="194" y="79" on="0"/>
        <pt x="287" y="42" on="0"/>
        <pt x="352" y="42" on="1"/>
        <pt x="367" y="42" on="0"/>
        <pt x="427" y="46" on="0"/>
        <pt x="453" y="50" on="1"/>
        <pt x="453" y="0" on="1"/>
        <pt x="430" y="-5" on="0"/>
        <pt x="384" y="-10" on="0"/>
        <pt x="351" y="-10" on="1"/>
        <pt x="349" y="-10" on="0"/>
        <pt x="345" y="-9" on="0"/>
        <pt x="343" y="-9" on="1"/>
        <pt x="370" y="-65" on="0"/>
        <pt x="370" y="-112" on="1"/>
        <pt x="370" y="-165" on="0"/>
        <pt x="315" y="-220" on="0"/>
      </contour>
    </TTGlyph>
    <TTGlyph name="Ccedilla.sc" xMin="45" yMin="-172" xMax="400" yMax="584">
      <contour>
        <pt x="234" y="-172" on="1"/>
        <pt x="207" y="-172" on="0"/>
        <pt x="177" y="-164" on="1"/>
        <pt x="177" y="-123" on="1"/>
        <pt x="207" y="-131" on="0"/>
        <pt x="229" y="-131" on="1"/>
        <pt x="283" y="-131" on="0"/>
        <pt x="283" y="-81" on="1"/>
        <pt x="283" y="-64" on="0"/>
        <pt x="270" y="-24" on="0"/>
        <pt x="259" y="-4" on="1"/>
        <pt x="147" y="7" on="0"/>
        <pt x="45" y="148" on="0"/>
        <pt x="45" y="288" on="1"/>
        <pt x="45" y="367" on="0"/>
        <pt x="75" y="479" on="0"/>
        <pt x="138" y="551" on="0"/>
        <pt x="237" y="584" on="0"/>
        <pt x="306" y="584" on="1"/>
        <pt x="326" y="584" on="0"/>
        <pt x="374" y="580" on="0"/>
        <pt x="400" y="576" on="1"/>
        <pt x="400" y="529" on="1"/>
        <pt x="383" y="531" on="0"/>
        <pt x="336" y="535" on="0"/>
        <pt x="313" y="535" on="1"/>
        <pt x="256" y="535" on="0"/>
        <pt x="176" y="509" on="0"/>
        <pt x="125" y="451" on="0"/>
        <pt x="102" y="357" on="0"/>
        <pt x="102" y="288" on="1"/>
        <pt x="102" y="222" on="0"/>
        <pt x="126" y="128" on="0"/>
        <pt x="177" y="68" on="0"/>
        <pt x="256" y="41" on="0"/>
        <pt x="310" y="41" on="1"/>
        <pt x="324" y="41" on="0"/>
        <pt x="378" y="45" on="0"/>
        <pt x="400" y="48" on="1"/>
        <pt x="400" y="2" on="1"/>
        <pt x="378" y="-3" on="0"/>
        <pt x="329" y="-9" on="0"/>
        <pt x="304" y="-7" on="1"/>
        <pt x="327" y="-50" on="0"/>
        <pt x="327" y="-86" on="1"/>
        <pt x="327" y="-172" on="0"/>
      </contour>
    </TTGlyph>
    <TTGlyph name="Ccircumflex" xMin="46" yMin="-10" xMax="453" yMax="939">
      <contour>
        <pt x="351" y="-10" on="1"/>
        <pt x="271" y="-9" on="0"/>
        <pt x="155" y="36" on="0"/>
        <pt x="81" y="128" on="0"/>
        <pt x="46" y="270" on="0"/>
        <pt x="46" y="369" on="1"/>
        <pt x="46" y="471" on="0"/>
        <pt x="80" y="615" on="0"/>
        <pt x="153" y="706" on="0"/>
        <pt x="268" y="748" on="0"/>
        <pt x="349" y="748" on="1"/>
        <pt x="372" y="748" on="0"/>
        <pt x="424" y="745" on="0"/>
        <pt x="453" y="740" on="1"/>
        <pt x="453" y="689" on="1"/>
        <pt x="436" y="693" on="0"/>
        <pt x="383" y="697" on="0"/>
        <pt x="356" y="697" on="1"/>
        <pt x="288" y="697" on="0"/>
        <pt x="192" y="663" on="0"/>
        <pt x="132" y="585" on="0"/>
        <pt x="105" y="460" on="0"/>
        <pt x="105" y="369" on="1"/>
        <pt x="105" y="282" on="0"/>
        <pt x="134" y="158" on="0"/>
        <pt x="194" y="79" on="0"/>
        <pt x="287" y="42" on="0"/>
        <pt x="352" y="42" on="1"/>
        <pt x="367" y="42" on="0"/>
        <pt x="427" y="46" on="0"/>
        <pt x="453" y="50" on="1"/>
        <pt x="453" y="0" on="1"/>
        <pt x="430" y="-5" on="0"/>
        <pt x="384" y="-10" on="0"/>
      </contour>
      <contour>
        <pt x="172" y="867" on="1"/>
        <pt x="300" y="939" on="1"/>
        <pt x="428" y="867" on="1"/>
        <pt x="428" y="814" on="1"/>
        <pt x="300" y="886" on="1"/>
        <pt x="172" y="814" on="1"/>
      </contour>
    </TTGlyph>
    <TTGlyph name="Ccircumflex.sc" xMin="45" yMin="-8" xMax="400" yMax="736">
      <contour>
        <pt x="307" y="-8" on="1"/>
        <pt x="170" y="-7" on="0"/>
        <pt x="45" y="134" on="0"/>
        <pt x="45" y="288" on="1"/>
        <pt x="45" y="367" on="0"/>
        <pt x="75" y="479" on="0"/>
        <pt x="138" y="551" on="0"/>
        <pt x="237" y="584" on="0"/>
        <pt x="306" y="584" on="1"/>
        <pt x="326" y="584" on="0"/>
        <pt x="374" y="580" on="0"/>
        <pt x="400" y="576" on="1"/>
        <pt x="400" y="529" on="1"/>
        <pt x="383" y="531" on="0"/>
        <pt x="336" y="535" on="0"/>
        <pt x="313" y="535" on="1"/>
        <pt x="256" y="535" on="0"/>
        <pt x="176" y="509" on="0"/>
        <pt x="125" y="451" on="0"/>
        <pt x="102" y="357" on="0"/>
        <pt x="102" y="288" on="1"/>
        <pt x="102" y="222" on="0"/>
        <pt x="126" y="128" on="0"/>
        <pt x="177" y="68" on="0"/>
        <pt x="256" y="41" on="0"/>
        <pt x="310" y="41" on="1"/>
        <pt x="324" y="41" on="0"/>
        <pt x="378" y="45" on="0"/>
        <pt x="400" y="48" on="1"/>
        <pt x="400" y="2" on="1"/>
        <pt x="380" y="-3" on="0"/>
        <pt x="336" y="-8" on="0"/>
      </contour>
      <contour>
        <pt x="151" y="680" on="1"/>
        <pt x="265" y="736" on="1"/>
        <pt x="378" y="680" on="1"/>
        <pt x="378" y="633" on="1"/>
        <pt x="265" y="689" on="1"/>
        <pt x="151" y="633" on="1"/>
      </contour>
    </TTGlyph>
    <TTGlyph name="Cdotaccent" xMin="46" yMin="-10" xMax="453" yMax="878">
      <contour>
        <pt x="299" y="799" on="1"/>
        <pt x="281" y="799" on="0"/>
        <pt x="260" y="818" on="0"/>
        <pt x="260" y="838" on="1"/>
        <pt x="260" y="859" on="0"/>
        <pt x="281" y="878" on="0"/>
        <pt x="299" y="878" on="1"/>
        <pt x="317" y="878" on="0"/>
        <pt x="339" y="858" on="0"/>
        <pt x="339" y="838" on="1"/>
        <pt x="339" y="818" on="0"/>
        <pt x="317" y="799" on="0"/>
      </contour>
      <contour>
        <pt x="351" y="-10" on="1"/>
        <pt x="271" y="-9" on="0"/>
        <pt x="155" y="36" on="0"/>
        <pt x="81" y="128" on="0"/>
        <pt x="46" y="270" on="0"/>
        <pt x="46" y="369" on="1"/>
        <pt x="46" y="471" on="0"/>
        <pt x="80" y="615" on="0"/>
        <pt x="153" y="706" on="0"/>
        <pt x="268" y="748" on="0"/>
        <pt x="349" y="748" on="1"/>
        <pt x="372" y="748" on="0"/>
        <pt x="424" y="745" on="0"/>
        <pt x="453" y="740" on="1"/>
        <pt x="453" y="689" on="1"/>
        <pt x="436" y="693" on="0"/>
        <pt x="383" y="697" on="0"/>
        <pt x="356" y="697" on="1"/>
        <pt x="288" y="697" on="0"/>
        <pt x="192" y="663" on="0"/>
        <pt x="132" y="585" on="0"/>
        <pt x="105" y="460" on="0"/>
        <pt x="105" y="369" on="1"/>
        <pt x="105" y="282" on="0"/>
        <pt x="134" y="158" on="0"/>
        <pt x="194" y="79" on="0"/>
        <pt x="287" y="42" on="0"/>
        <pt x="352" y="42" on="1"/>
        <pt x="367" y="42" on="0"/>
        <pt x="427" y="46" on="0"/>
        <pt x="453" y="50" on="1"/>
        <pt x="453" y="0" on="1"/>
        <pt x="430" y="-5" on="0"/>
        <pt x="384" y="-10" on="0"/>
      </contour>
    </TTGlyph>
    <TTGlyph name="Cdotaccent.sc" xMin="45" yMin="-8" xMax="400" yMax="695">
      <contour>
        <pt x="307" y="-8" on="1"/>
        <pt x="170" y="-7" on="0"/>
        <pt x="45" y="134" on="0"/>
        <pt x="45" y="288" on="1"/>
        <pt x="45" y="367" on="0"/>
        <pt x="75" y="479" on="0"/>
        <pt x="138" y="551" on="0"/>
        <pt x="237" y="584" on="0"/>
        <pt x="306" y="584" on="1"/>
        <pt x="326" y="584" on="0"/>
        <pt x="374" y="580" on="0"/>
        <pt x="400" y="576" on="1"/>
        <pt x="400" y="529" on="1"/>
        <pt x="383" y="531" on="0"/>
        <pt x="336" y="535" on="0"/>
        <pt x="313" y="535" on="1"/>
        <pt x="256" y="535" on="0"/>
        <pt x="176" y="509" on="0"/>
        <pt x="125" y="451" on="0"/>
        <pt x="102" y="357" on="0"/>
        <pt x="102" y="288" on="1"/>
        <pt x="102" y="222" on="0"/>
        <pt x="126" y="128" on="0"/>
        <pt x="177" y="68" on="0"/>
        <pt x="256" y="41" on="0"/>
        <pt x="310" y="41" on="1"/>
        <pt x="324" y="41" on="0"/>
        <pt x="378" y="45" on="0"/>
        <pt x="400" y="48" on="1"/>
        <pt x="400" y="2" on="1"/>
        <pt x="380" y="-3" on="0"/>
        <pt x="336" y="-8" on="0"/>
      </contour>
      <contour>
        <pt x="265" y="624" on="1"/>
        <pt x="248" y="624" on="0"/>
        <pt x="228" y="640" on="0"/>
        <pt x="228" y="660" on="1"/>
        <pt x="228" y="695" on="0"/>
        <pt x="265" y="695" on="1"/>
        <pt x="282" y="695" on="0"/>
        <pt x="302" y="678" on="0"/>
        <pt x="302" y="660" on="1"/>
        <pt x="302" y="640" on="0"/>
        <pt x="282" y="624" on="0"/>
      </contour>
    </TTGlyph>
    <TTGlyph name="D" xMin="77" yMin="-17" xMax="529" yMax="750">
      <contour>
        <pt x="191" y="-17" on="1"/>
        <pt x="164" y="-17" on="0"/>
        <pt x="108" y="-14" on="0"/>
        <pt x="77" y="-10" on="1"/>
        <pt x="77" y="733" on="1"/>
        <pt x="124" y="741" on="0"/>
        <pt x="196" y="750" on="0"/>
        <pt x="228" y="750" on="1"/>
        <pt x="383" y="750" on="0"/>
        <pt x="529" y="565" on="0"/>
        <pt x="529" y="369" on="1"/>
        <pt x="529" y="168" on="0"/>
        <pt x="367" y="-17" on="0"/>
      </contour>
      <contour>
        <pt x="203" y="35" on="1"/>
        <pt x="339" y="35" on="0"/>
        <pt x="470" y="198" on="0"/>
        <pt x="470" y="369" on="1"/>
        <pt x="470" y="542" on="0"/>
        <pt x="355" y="699" on="0"/>
        <pt x="229" y="699" on="1"/>
        <pt x="181" y="699" on="0"/>
        <pt x="133" y="690" on="1"/>
        <pt x="133" y="40" on="1"/>
        <pt x="154" y="38" on="0"/>
        <pt x="188" y="35" on="0"/>
      </contour>
    </TTGlyph>
    <TTGlyph name="D.sc" xMin="72" yMin="-13" xMax="472" yMax="585">
      <contour>
        <pt x="177" y="-13" on="1"/>
        <pt x="152" y="-13" on="0"/>
        <pt x="100" y="-10" on="0"/>
        <pt x="72" y="-6" on="1"/>
        <pt x="72" y="573" on="1"/>
        <pt x="114" y="578" on="0"/>
        <pt x="179" y="585" on="0"/>
        <pt x="206" y="585" on="1"/>
        <pt x="344" y="585" on="0"/>
        <pt x="472" y="442" on="0"/>
        <pt x="472" y="288" on="1"/>
        <pt x="472" y="209" on="0"/>
        <pt x="437" y="95" on="0"/>
        <pt x="365" y="22" on="0"/>
        <pt x="254" y="-13" on="0"/>
      </contour>
      <contour>
        <pt x="190" y="36" on="1"/>
        <pt x="305" y="36" on="0"/>
        <pt x="415" y="158" on="0"/>
        <pt x="415" y="288" on="1"/>
        <pt x="415" y="420" on="0"/>
        <pt x="317" y="537" on="0"/>
        <pt x="209" y="537" on="1"/>
        <pt x="189" y="537" on="0"/>
        <pt x="147" y="534" on="0"/>
        <pt x="126" y="530" on="1"/>
        <pt x="126" y="40" on="1"/>
        <pt x="146" y="38" on="0"/>
        <pt x="176" y="36" on="0"/>
      </contour>
    </TTGlyph>
    <TTGlyph name="Dcaron" xMin="77" yMin="-17" xMax="529" yMax="922">
      <contour>
        <pt x="134" y="922" on="1"/>
        <pt x="262" y="850" on="1"/>
        <pt x="390" y="922" on="1"/>
        <pt x="390" y="869" on="1"/>
        <pt x="262" y="797" on="1"/>
        <pt x="134" y="869" on="1"/>
      </contour>
      <contour>
        <pt x="191" y="-17" on="1"/>
        <pt x="164" y="-17" on="0"/>
        <pt x="108" y="-14" on="0"/>
        <pt x="77" y="-10" on="1"/>
        <pt x="77" y="733" on="1"/>
        <pt x="124" y="741" on="0"/>
        <pt x="196" y="750" on="0"/>
        <pt x="228" y="750" on="1"/>
        <pt x="383" y="750" on="0"/>
        <pt x="529" y="565" on="0"/>
        <pt x="529" y="369" on="1"/>
        <pt x="529" y="168" on="0"/>
        <pt x="367" y="-17" on="0"/>
      </contour>
      <contour>
        <pt x="203" y="35" on="1"/>
        <pt x="339" y="35" on="0"/>
        <pt x="470" y="198" on="0"/>
        <pt x="470" y="369" on="1"/>
        <pt x="470" y="542" on="0"/>
        <pt x="355" y="699" on="0"/>
        <pt x="229" y="699" on="1"/>
        <pt x="181" y="699" on="0"/>
        <pt x="133" y="690" on="1"/>
        <pt x="133" y="40" on="1"/>
        <pt x="154" y="38" on="0"/>
        <pt x="188" y="35" on="0"/>
      </contour>
    </TTGlyph>
    <TTGlyph name="Dcaron.sc" xMin="72" yMin="-13" xMax="472" yMax="724">
      <contour>
        <pt x="177" y="-13" on="1"/>
        <pt x="152" y="-13" on="0"/>
        <pt x="100" y="-10" on="0"/>
        <pt x="72" y="-6" on="1"/>
        <pt x="72" y="573" on="1"/>
        <pt x="114" y="578" on="0"/>
        <pt x="179" y="585" on="0"/>
        <pt x="206" y="585" on="1"/>
        <pt x="344" y="585" on="0"/>
        <pt x="472" y="442" on="0"/>
        <pt x="472" y="288" on="1"/>
        <pt x="472" y="209" on="0"/>
        <pt x="437" y="95" on="0"/>
        <pt x="365" y="22" on="0"/>
        <pt x="254" y="-13" on="0"/>
      </contour>
      <contour>
        <pt x="190" y="36" on="1"/>
        <pt x="305" y="36" on="0"/>
        <pt x="415" y="158" on="0"/>
        <pt x="415" y="288" on="1"/>
        <pt x="415" y="420" on="0"/>
        <pt x="317" y="537" on="0"/>
        <pt x="209" y="537" on="1"/>
        <pt x="189" y="537" on="0"/>
        <pt x="147" y="534" on="0"/>
        <pt x="126" y="530" on="1"/>
        <pt x="126" y="40" on="1"/>
        <pt x="146" y="38" on="0"/>
        <pt x="176" y="36" on="0"/>
      </contour>
      <contour>
        <pt x="124" y="678" on="1"/>
        <pt x="124" y="724" on="1"/>
        <pt x="238" y="668" on="1"/>
        <pt x="351" y="724" on="1"/>
        <pt x="351" y="678" on="1"/>
        <pt x="238" y="621" on="1"/>
      </contour>
    </TTGlyph>
    <TTGlyph name="Dcroat" xMin="0" yMin="-17" xMax="540" yMax="750">
      <contour>
        <pt x="0" y="393" on="1"/>
        <pt x="88" y="393" on="1"/>
        <pt x="88" y="733" on="1"/>
        <pt x="135" y="741" on="0"/>
        <pt x="207" y="750" on="0"/>
        <pt x="239" y="750" on="1"/>
        <pt x="394" y="750" on="0"/>
        <pt x="540" y="565" on="0"/>
        <pt x="540" y="369" on="1"/>
        <pt x="540" y="168" on="0"/>
        <pt x="378" y="-17" on="0"/>
        <pt x="202" y="-17" on="1"/>
        <pt x="175" y="-17" on="0"/>
        <pt x="119" y="-14" on="0"/>
        <pt x="88" y="-10" on="1"/>
        <pt x="88" y="344" on="1"/>
        <pt x="0" y="344" on="1"/>
      </contour>
      <contour>
        <pt x="214" y="35" on="1"/>
        <pt x="350" y="35" on="0"/>
        <pt x="481" y="198" on="0"/>
        <pt x="481" y="369" on="1"/>
        <pt x="481" y="542" on="0"/>
        <pt x="366" y="699" on="0"/>
        <pt x="240" y="699" on="1"/>
        <pt x="192" y="699" on="0"/>
        <pt x="144" y="690" on="1"/>
        <pt x="144" y="393" on="1"/>
        <pt x="294" y="393" on="1"/>
        <pt x="294" y="344" on="1"/>
        <pt x="144" y="344" on="1"/>
        <pt x="144" y="40" on="1"/>
        <pt x="165" y="38" on="0"/>
        <pt x="199" y="35" on="0"/>
      </contour>
    </TTGlyph>
    <TTGlyph name="Dcroat.sc" xMin="6" yMin="-13" xMax="481" yMax="585">
      <contour>
        <pt x="6" y="311" on="1"/>
        <pt x="82" y="311" on="1"/>
        <pt x="82" y="573" on="1"/>
        <pt x="123" y="578" on="0"/>
        <pt x="188" y="585" on="0"/>
        <pt x="216" y="585" on="1"/>
        <pt x="354" y="585" on="0"/>
        <pt x="481" y="442" on="0"/>
        <pt x="481" y="288" on="1"/>
        <pt x="481" y="209" on="0"/>
        <pt x="447" y="95" on="0"/>
        <pt x="375" y="22" on="0"/>
        <pt x="263" y="-13" on="0"/>
        <pt x="186" y="-13" on="1"/>
        <pt x="161" y="-13" on="0"/>
        <pt x="110" y="-10" on="0"/>
        <pt x="82" y="-6" on="1"/>
        <pt x="82" y="264" on="1"/>
        <pt x="6" y="264" on="1"/>
      </contour>
      <contour>
        <pt x="200" y="36" on="1"/>
        <pt x="314" y="36" on="0"/>
        <pt x="425" y="157" on="0"/>
        <pt x="425" y="288" on="1"/>
        <pt x="425" y="420" on="0"/>
        <pt x="326" y="537" on="0"/>
        <pt x="218" y="537" on="1"/>
        <pt x="198" y="537" on="0"/>
        <pt x="156" y="534" on="0"/>
        <pt x="136" y="530" on="1"/>
        <pt x="136" y="311" on="1"/>
        <pt x="263" y="311" on="1"/>
        <pt x="263" y="264" on="1"/>
        <pt x="136" y="264" on="1"/>
        <pt x="136" y="40" on="1"/>
        <pt x="155" y="38" on="0"/>
        <pt x="186" y="36" on="0"/>
      </contour>
    </TTGlyph>
    <TTGlyph name="Ddotbelow" xMin="77" yMin="-168" xMax="529" yMax="750">
      <contour>
        <pt x="263" y="-168" on="1"/>
        <pt x="243" y="-168" on="0"/>
        <pt x="222" y="-150" on="0"/>
        <pt x="222" y="-127" on="1"/>
        <pt x="222" y="-105" on="0"/>
        <pt x="243" y="-87" on="0"/>
        <pt x="263" y="-87" on="1"/>
        <pt x="282" y="-87" on="0"/>
        <pt x="304" y="-105" on="0"/>
        <pt x="304" y="-127" on="1"/>
        <pt x="304" y="-150" on="0"/>
        <pt x="282" y="-168" on="0"/>
      </contour>
      <contour>
        <pt x="191" y="-17" on="1"/>
        <pt x="164" y="-17" on="0"/>
        <pt x="108" y="-14" on="0"/>
        <pt x="77" y="-10" on="1"/>
        <pt x="77" y="733" on="1"/>
        <pt x="124" y="741" on="0"/>
        <pt x="196" y="750" on="0"/>
        <pt x="228" y="750" on="1"/>
        <pt x="383" y="750" on="0"/>
        <pt x="529" y="565" on="0"/>
        <pt x="529" y="369" on="1"/>
        <pt x="529" y="168" on="0"/>
        <pt x="367" y="-17" on="0"/>
      </contour>
      <contour>
        <pt x="203" y="35" on="1"/>
        <pt x="339" y="35" on="0"/>
        <pt x="470" y="198" on="0"/>
        <pt x="470" y="369" on="1"/>
        <pt x="470" y="542" on="0"/>
        <pt x="355" y="699" on="0"/>
        <pt x="229" y="699" on="1"/>
        <pt x="181" y="699" on="0"/>
        <pt x="133" y="690" on="1"/>
        <pt x="133" y="40" on="1"/>
        <pt x="154" y="38" on="0"/>
        <pt x="188" y="35" on="0"/>
      </contour>
    </TTGlyph>
    <TTGlyph name="Ddotbelow.sc" xMin="72" yMin="-135" xMax="472" yMax="585">
      <contour>
        <pt x="177" y="-13" on="1"/>
        <pt x="152" y="-13" on="0"/>
        <pt x="100" y="-10" on="0"/>
        <pt x="72" y="-6" on="1"/>
        <pt x="72" y="573" on="1"/>
        <pt x="114" y="578" on="0"/>
        <pt x="179" y="585" on="0"/>
        <pt x="206" y="585" on="1"/>
        <pt x="344" y="585" on="0"/>
        <pt x="472" y="442" on="0"/>
        <pt x="472" y="288" on="1"/>
        <pt x="472" y="209" on="0"/>
        <pt x="437" y="95" on="0"/>
        <pt x="365" y="22" on="0"/>
        <pt x="254" y="-13" on="0"/>
      </contour>
      <contour>
        <pt x="190" y="36" on="1"/>
        <pt x="305" y="36" on="0"/>
        <pt x="415" y="158" on="0"/>
        <pt x="415" y="288" on="1"/>
        <pt x="415" y="420" on="0"/>
        <pt x="317" y="537" on="0"/>
        <pt x="209" y="537" on="1"/>
        <pt x="189" y="537" on="0"/>
        <pt x="147" y="534" on="0"/>
        <pt x="126" y="530" on="1"/>
        <pt x="126" y="40" on="1"/>
        <pt x="146" y="38" on="0"/>
        <pt x="176" y="36" on="0"/>
      </contour>
      <contour>
        <pt x="239" y="-135" on="1"/>
        <pt x="221" y="-135" on="0"/>
        <pt x="202" y="-120" on="0"/>
        <pt x="202" y="-101" on="1"/>
        <pt x="202" y="-66" on="0"/>
        <pt x="239" y="-66" on="1"/>
        <pt x="276" y="-66" on="0"/>
        <pt x="276" y="-101" on="1"/>
        <pt x="276" y="-120" on="0"/>
        <pt x="256" y="-135" on="0"/>
      </contour>
    </TTGlyph>
    <TTGlyph name="Delta" xMin="21" yMin="0" xMax="552" yMax="740">
      <contour>
        <pt x="250" y="740" on="1"/>
        <pt x="323" y="740" on="1"/>
        <pt x="552" y="0" on="1"/>
        <pt x="21" y="0" on="1"/>
      </contour>
      <contour>
        <pt x="480" y="52" on="1"/>
        <pt x="286" y="680" on="1"/>
        <pt x="91" y="52" on="1"/>
      </contour>
    </TTGlyph>
    <TTGlyph name="E" xMin="77" yMin="0" xMax="460" yMax="740">
      <contour>
        <pt x="77" y="740" on="1"/>
        <pt x="451" y="740" on="1"/>
        <pt x="451" y="688" on="1"/>
        <pt x="133" y="688" on="1"/>
        <pt x="133" y="401" on="1"/>
        <pt x="418" y="401" on="1"/>
        <pt x="418" y="349" on="1"/>
        <pt x="133" y="349" on="1"/>
        <pt x="133" y="52" on="1"/>
        <pt x="460" y="52" on="1"/>
        <pt x="460" y="0" on="1"/>
        <pt x="77" y="0" on="1"/>
      </contour>
    </TTGlyph>
    <TTGlyph name="E.sc" xMin="73" yMin="0" xMax="410" yMax="577">
      <contour>
        <pt x="73" y="577" on="1"/>
        <pt x="403" y="577" on="1"/>
        <pt x="403" y="529" on="1"/>
        <pt x="128" y="529" on="1"/>
        <pt x="128" y="316" on="1"/>
        <pt x="375" y="316" on="1"/>
        <pt x="375" y="269" on="1"/>
        <pt x="128" y="269" on="1"/>
        <pt x="128" y="49" on="1"/>
        <pt x="410" y="49" on="1"/>
        <pt x="410" y="0" on="1"/>
        <pt x="73" y="0" on="1"/>
      </contour>
    </TTGlyph>
    <TTGlyph name="Eacute" xMin="77" yMin="0" xMax="460" yMax="921">
      <contour>
        <pt x="236" y="789" on="1"/>
        <pt x="312" y="921" on="1"/>
        <pt x="372" y="921" on="1"/>
        <pt x="282" y="785" on="1"/>
      </contour>
      <contour>
        <pt x="77" y="740" on="1"/>
        <pt x="451" y="740" on="1"/>
        <pt x="451" y="688" on="1"/>
        <pt x="133" y="688" on="1"/>
        <pt x="133" y="401" on="1"/>
        <pt x="418" y="401" on="1"/>
        <pt x="418" y="349" on="1"/>
        <pt x="133" y="349" on="1"/>
        <pt x="133" y="52" on="1"/>
        <pt x="460" y="52" on="1"/>
        <pt x="460" y="0" on="1"/>
        <pt x="77" y="0" on="1"/>
      </contour>
    </TTGlyph>
    <TTGlyph name="Eacute.sc" xMin="73" yMin="0" xMax="410" yMax="724">
      <contour>
        <pt x="73" y="577" on="1"/>
        <pt x="403" y="577" on="1"/>
        <pt x="403" y="529" on="1"/>
        <pt x="128" y="529" on="1"/>
        <pt x="128" y="316" on="1"/>
        <pt x="375" y="316" on="1"/>
        <pt x="375" y="269" on="1"/>
        <pt x="128" y="269" on="1"/>
        <pt x="128" y="49" on="1"/>
        <pt x="410" y="49" on="1"/>
        <pt x="410" y="0" on="1"/>
        <pt x="73" y="0" on="1"/>
      </contour>
      <contour>
        <pt x="211" y="617" on="1"/>
        <pt x="276" y="724" on="1"/>
        <pt x="334" y="724" on="1"/>
        <pt x="255" y="614" on="1"/>
      </contour>
    </TTGlyph>
    <TTGlyph name="Ebreve" xMin="77" yMin="0" xMax="460" yMax="952">
      <contour>
        <pt x="264" y="812" on="1"/>
        <pt x="196" y="812" on="0"/>
        <pt x="121" y="886" on="0"/>
        <pt x="121" y="952" on="1"/>
        <pt x="168" y="952" on="1"/>
        <pt x="168" y="904" on="0"/>
        <pt x="217" y="854" on="0"/>
        <pt x="264" y="854" on="1"/>
        <pt x="309" y="854" on="0"/>
        <pt x="359" y="904" on="0"/>
        <pt x="359" y="952" on="1"/>
        <pt x="406" y="952" on="1"/>
        <pt x="406" y="887" on="0"/>
        <pt x="331" y="812" on="0"/>
      </contour>
      <contour>
        <pt x="77" y="740" on="1"/>
        <pt x="451" y="740" on="1"/>
        <pt x="451" y="688" on="1"/>
        <pt x="133" y="688" on="1"/>
        <pt x="133" y="401" on="1"/>
        <pt x="418" y="401" on="1"/>
        <pt x="418" y="349" on="1"/>
        <pt x="133" y="349" on="1"/>
        <pt x="133" y="52" on="1"/>
        <pt x="460" y="52" on="1"/>
        <pt x="460" y="0" on="1"/>
        <pt x="77" y="0" on="1"/>
      </contour>
    </TTGlyph>
    <TTGlyph name="Ebreve.sc" xMin="73" yMin="0" xMax="410" yMax="745">
      <contour>
        <pt x="238" y="632" on="1"/>
        <pt x="178" y="632" on="0"/>
        <pt x="112" y="692" on="0"/>
        <pt x="112" y="745" on="1"/>
        <pt x="156" y="745" on="1"/>
        <pt x="156" y="707" on="0"/>
        <pt x="199" y="668" on="0"/>
        <pt x="238" y="668" on="1"/>
        <pt x="277" y="668" on="0"/>
        <pt x="319" y="707" on="0"/>
        <pt x="319" y="745" on="1"/>
        <pt x="364" y="745" on="1"/>
        <pt x="364" y="692" on="0"/>
        <pt x="298" y="632" on="0"/>
      </contour>
      <contour>
        <pt x="73" y="577" on="1"/>
        <pt x="403" y="577" on="1"/>
        <pt x="403" y="529" on="1"/>
        <pt x="128" y="529" on="1"/>
        <pt x="128" y="316" on="1"/>
        <pt x="375" y="316" on="1"/>
        <pt x="375" y="269" on="1"/>
        <pt x="128" y="269" on="1"/>
        <pt x="128" y="49" on="1"/>
        <pt x="410" y="49" on="1"/>
        <pt x="410" y="0" on="1"/>
        <pt x="73" y="0" on="1"/>
      </contour>
    </TTGlyph>
    <TTGlyph name="Ecaron" xMin="77" yMin="0" xMax="460" yMax="922">
      <contour>
        <pt x="139" y="922" on="1"/>
        <pt x="267" y="850" on="1"/>
        <pt x="395" y="922" on="1"/>
        <pt x="395" y="869" on="1"/>
        <pt x="267" y="797" on="1"/>
        <pt x="139" y="869" on="1"/>
      </contour>
      <contour>
        <pt x="77" y="740" on="1"/>
        <pt x="451" y="740" on="1"/>
        <pt x="451" y="688" on="1"/>
        <pt x="133" y="688" on="1"/>
        <pt x="133" y="401" on="1"/>
        <pt x="418" y="401" on="1"/>
        <pt x="418" y="349" on="1"/>
        <pt x="133" y="349" on="1"/>
        <pt x="133" y="52" on="1"/>
        <pt x="460" y="52" on="1"/>
        <pt x="460" y="0" on="1"/>
        <pt x="77" y="0" on="1"/>
      </contour>
    </TTGlyph>
    <TTGlyph name="Ecaron.sc" xMin="73" yMin="0" xMax="410" yMax="724">
      <contour>
        <pt x="73" y="577" on="1"/>
        <pt x="403" y="577" on="1"/>
        <pt x="403" y="529" on="1"/>
        <pt x="128" y="529" on="1"/>
        <pt x="128" y="316" on="1"/>
        <pt x="375" y="316" on="1"/>
        <pt x="375" y="269" on="1"/>
        <pt x="128" y="269" on="1"/>
        <pt x="128" y="49" on="1"/>
        <pt x="410" y="49" on="1"/>
        <pt x="410" y="0" on="1"/>
        <pt x="73" y="0" on="1"/>
      </contour>
      <contour>
        <pt x="128" y="678" on="1"/>
        <pt x="128" y="724" on="1"/>
        <pt x="241" y="668" on="1"/>
        <pt x="354" y="724" on="1"/>
        <pt x="354" y="678" on="1"/>
        <pt x="241" y="621" on="1"/>
      </contour>
    </TTGlyph>
    <TTGlyph name="Ecircumflex" xMin="77" yMin="0" xMax="460" yMax="939">
      <contour>
        <pt x="77" y="740" on="1"/>
        <pt x="451" y="740" on="1"/>
        <pt x="451" y="688" on="1"/>
        <pt x="133" y="688" on="1"/>
        <pt x="133" y="401" on="1"/>
        <pt x="418" y="401" on="1"/>
        <pt x="418" y="349" on="1"/>
        <pt x="133" y="349" on="1"/>
        <pt x="133" y="52" on="1"/>
        <pt x="460" y="52" on="1"/>
        <pt x="460" y="0" on="1"/>
        <pt x="77" y="0" on="1"/>
      </contour>
      <contour>
        <pt x="134" y="867" on="1"/>
        <pt x="262" y="939" on="1"/>
        <pt x="390" y="867" on="1"/>
        <pt x="390" y="814" on="1"/>
        <pt x="262" y="886" on="1"/>
        <pt x="134" y="814" on="1"/>
      </contour>
    </TTGlyph>
    <TTGlyph name="Ecircumflex.sc" xMin="73" yMin="0" xMax="410" yMax="736">
      <contour>
        <pt x="73" y="577" on="1"/>
        <pt x="403" y="577" on="1"/>
        <pt x="403" y="529" on="1"/>
        <pt x="128" y="529" on="1"/>
        <pt x="128" y="316" on="1"/>
        <pt x="375" y="316" on="1"/>
        <pt x="375" y="269" on="1"/>
        <pt x="128" y="269" on="1"/>
        <pt x="128" y="49" on="1"/>
        <pt x="410" y="49" on="1"/>
        <pt x="410" y="0" on="1"/>
        <pt x="73" y="0" on="1"/>
      </contour>
      <contour>
        <pt x="124" y="680" on="1"/>
        <pt x="237" y="736" on="1"/>
        <pt x="351" y="680" on="1"/>
        <pt x="351" y="633" on="1"/>
        <pt x="237" y="689" on="1"/>
        <pt x="124" y="633" on="1"/>
      </contour>
    </TTGlyph>
    <TTGlyph name="Edblgrave" xMin="77" yMin="0" xMax="460" yMax="921">
      <contour>
        <pt x="77" y="740" on="1"/>
        <pt x="451" y="740" on="1"/>
        <pt x="451" y="688" on="1"/>
        <pt x="133" y="688" on="1"/>
        <pt x="133" y="401" on="1"/>
        <pt x="418" y="401" on="1"/>
        <pt x="418" y="349" on="1"/>
        <pt x="133" y="349" on="1"/>
        <pt x="133" y="52" on="1"/>
        <pt x="460" y="52" on="1"/>
        <pt x="460" y="0" on="1"/>
        <pt x="77" y="0" on="1"/>
      </contour>
      <contour>
        <pt x="176" y="785" on="1"/>
        <pt x="86" y="921" on="1"/>
        <pt x="140" y="921" on="1"/>
        <pt x="217" y="798" on="1"/>
      </contour>
      <contour>
        <pt x="313" y="785" on="1"/>
        <pt x="223" y="921" on="1"/>
        <pt x="278" y="921" on="1"/>
        <pt x="354" y="798" on="1"/>
      </contour>
    </TTGlyph>
    <TTGlyph name="Edblgrave.sc" xMin="73" yMin="0" xMax="410" yMax="724">
      <contour>
        <pt x="73" y="577" on="1"/>
        <pt x="403" y="577" on="1"/>
        <pt x="403" y="529" on="1"/>
        <pt x="128" y="529" on="1"/>
        <pt x="128" y="316" on="1"/>
        <pt x="375" y="316" on="1"/>
        <pt x="375" y="269" on="1"/>
        <pt x="128" y="269" on="1"/>
        <pt x="128" y="49" on="1"/>
        <pt x="410" y="49" on="1"/>
        <pt x="410" y="0" on="1"/>
        <pt x="73" y="0" on="1"/>
      </contour>
      <contour>
        <pt x="81" y="724" on="1"/>
        <pt x="133" y="724" on="1"/>
        <pt x="198" y="623" on="1"/>
        <pt x="160" y="613" on="1"/>
      </contour>
      <contour>
        <pt x="201" y="724" on="1"/>
        <pt x="254" y="724" on="1"/>
        <pt x="318" y="623" on="1"/>
        <pt x="280" y="613" on="1"/>
      </contour>
    </TTGlyph>
    <TTGlyph name="Edieresis" xMin="77" yMin="0" xMax="460" yMax="890">
      <contour>
        <pt x="172" y="812" on="1"/>
        <pt x="154" y="812" on="0"/>
        <pt x="133" y="831" on="0"/>
        <pt x="133" y="851" on="1"/>
        <pt x="133" y="872" on="0"/>
        <pt x="154" y="890" on="0"/>
        <pt x="172" y="890" on="1"/>
        <pt x="190" y="890" on="0"/>
        <pt x="212" y="871" on="0"/>
        <pt x="212" y="851" on="1"/>
        <pt x="212" y="830" on="0"/>
        <pt x="190" y="812" on="0"/>
      </contour>
      <contour>
        <pt x="353" y="812" on="1"/>
        <pt x="335" y="812" on="0"/>
        <pt x="313" y="831" on="0"/>
        <pt x="313" y="851" on="1"/>
        <pt x="313" y="872" on="0"/>
        <pt x="335" y="890" on="0"/>
        <pt x="353" y="890" on="1"/>
        <pt x="370" y="890" on="0"/>
        <pt x="393" y="871" on="0"/>
        <pt x="393" y="851" on="1"/>
        <pt x="393" y="830" on="0"/>
        <pt x="370" y="812" on="0"/>
      </contour>
      <contour>
        <pt x="77" y="740" on="1"/>
        <pt x="451" y="740" on="1"/>
        <pt x="451" y="688" on="1"/>
        <pt x="133" y="688" on="1"/>
        <pt x="133" y="401" on="1"/>
        <pt x="418" y="401" on="1"/>
        <pt x="418" y="349" on="1"/>
        <pt x="133" y="349" on="1"/>
        <pt x="133" y="52" on="1"/>
        <pt x="460" y="52" on="1"/>
        <pt x="460" y="0" on="1"/>
        <pt x="77" y="0" on="1"/>
      </contour>
    </TTGlyph>
    <TTGlyph name="Edieresis.sc" xMin="73" yMin="0" xMax="410" yMax="704">
      <contour>
        <pt x="156" y="633" on="1"/>
        <pt x="119" y="633" on="0"/>
        <pt x="119" y="668" on="1"/>
        <pt x="119" y="688" on="0"/>
        <pt x="139" y="704" on="0"/>
        <pt x="156" y="704" on="1"/>
        <pt x="173" y="704" on="0"/>
        <pt x="193" y="687" on="0"/>
        <pt x="193" y="668" on="1"/>
        <pt x="193" y="649" on="0"/>
        <pt x="173" y="633" on="0"/>
      </contour>
      <contour>
        <pt x="318" y="633" on="1"/>
        <pt x="281" y="633" on="0"/>
        <pt x="281" y="668" on="1"/>
        <pt x="281" y="688" on="0"/>
        <pt x="301" y="704" on="0"/>
        <pt x="318" y="704" on="1"/>
        <pt x="335" y="704" on="0"/>
        <pt x="356" y="687" on="0"/>
        <pt x="356" y="668" on="1"/>
        <pt x="356" y="649" on="0"/>
        <pt x="335" y="633" on="0"/>
      </contour>
      <contour>
        <pt x="73" y="577" on="1"/>
        <pt x="403" y="577" on="1"/>
        <pt x="403" y="529" on="1"/>
        <pt x="128" y="529" on="1"/>
        <pt x="128" y="316" on="1"/>
        <pt x="375" y="316" on="1"/>
        <pt x="375" y="269" on="1"/>
        <pt x="128" y="269" on="1"/>
        <pt x="128" y="49" on="1"/>
        <pt x="410" y="49" on="1"/>
        <pt x="410" y="0" on="1"/>
        <pt x="73" y="0" on="1"/>
      </contour>
    </TTGlyph>
    <TTGlyph name="Edotaccent" xMin="77" yMin="0" xMax="460" yMax="878">
      <contour>
        <pt x="262" y="799" on="1"/>
        <pt x="244" y="799" on="0"/>
        <pt x="223" y="818" on="0"/>
        <pt x="223" y="838" on="1"/>
        <pt x="223" y="859" on="0"/>
        <pt x="244" y="878" on="0"/>
        <pt x="262" y="878" on="1"/>
        <pt x="280" y="878" on="0"/>
        <pt x="302" y="858" on="0"/>
        <pt x="302" y="838" on="1"/>
        <pt x="302" y="818" on="0"/>
        <pt x="280" y="799" on="0"/>
      </contour>
      <contour>
        <pt x="77" y="740" on="1"/>
        <pt x="451" y="740" on="1"/>
        <pt x="451" y="688" on="1"/>
        <pt x="133" y="688" on="1"/>
        <pt x="133" y="401" on="1"/>
        <pt x="418" y="401" on="1"/>
        <pt x="418" y="349" on="1"/>
        <pt x="133" y="349" on="1"/>
        <pt x="133" y="52" on="1"/>
        <pt x="460" y="52" on="1"/>
        <pt x="460" y="0" on="1"/>
        <pt x="77" y="0" on="1"/>
      </contour>
    </TTGlyph>
    <TTGlyph name="Edotaccent.sc" xMin="73" yMin="0" xMax="410" yMax="695">
      <contour>
        <pt x="237" y="624" on="1"/>
        <pt x="219" y="624" on="0"/>
        <pt x="200" y="640" on="0"/>
        <pt x="200" y="660" on="1"/>
        <pt x="200" y="695" on="0"/>
        <pt x="237" y="695" on="1"/>
        <pt x="254" y="695" on="0"/>
        <pt x="274" y="678" on="0"/>
        <pt x="274" y="660" on="1"/>
        <pt x="274" y="640" on="0"/>
        <pt x="254" y="624" on="0"/>
      </contour>
      <contour>
        <pt x="73" y="577" on="1"/>
        <pt x="403" y="577" on="1"/>
        <pt x="403" y="529" on="1"/>
        <pt x="128" y="529" on="1"/>
        <pt x="128" y="316" on="1"/>
        <pt x="375" y="316" on="1"/>
        <pt x="375" y="269" on="1"/>
        <pt x="128" y="269" on="1"/>
        <pt x="128" y="49" on="1"/>
        <pt x="410" y="49" on="1"/>
        <pt x="410" y="0" on="1"/>
        <pt x="73" y="0" on="1"/>
      </contour>
    </TTGlyph>
    <TTGlyph name="Edotbelow" xMin="77" yMin="-168" xMax="460" yMax="740">
      <contour>
        <pt x="77" y="740" on="1"/>
        <pt x="451" y="740" on="1"/>
        <pt x="451" y="688" on="1"/>
        <pt x="133" y="688" on="1"/>
        <pt x="133" y="401" on="1"/>
        <pt x="418" y="401" on="1"/>
        <pt x="418" y="349" on="1"/>
        <pt x="133" y="349" on="1"/>
        <pt x="133" y="52" on="1"/>
        <pt x="460" y="52" on="1"/>
        <pt x="460" y="0" on="1"/>
        <pt x="77" y="0" on="1"/>
      </contour>
      <contour>
        <pt x="279" y="-168" on="1"/>
        <pt x="259" y="-168" on="0"/>
        <pt x="238" y="-150" on="0"/>
        <pt x="238" y="-127" on="1"/>
        <pt x="238" y="-105" on="0"/>
        <pt x="259" y="-87" on="0"/>
        <pt x="279" y="-87" on="1"/>
        <pt x="298" y="-87" on="0"/>
        <pt x="320" y="-105" on="0"/>
        <pt x="320" y="-127" on="1"/>
        <pt x="320" y="-150" on="0"/>
        <pt x="298" y="-168" on="0"/>
      </contour>
    </TTGlyph>
    <TTGlyph name="Edotbelow.sc" xMin="73" yMin="-135" xMax="410" yMax="577">
      <contour>
        <pt x="251" y="-135" on="1"/>
        <pt x="233" y="-135" on="0"/>
        <pt x="214" y="-120" on="0"/>
        <pt x="214" y="-101" on="1"/>
        <pt x="214" y="-66" on="0"/>
        <pt x="251" y="-66" on="1"/>
        <pt x="268" y="-66" on="0"/>
        <pt x="289" y="-82" on="0"/>
        <pt x="289" y="-101" on="1"/>
        <pt x="289" y="-120" on="0"/>
        <pt x="268" y="-135" on="0"/>
      </contour>
      <contour>
        <pt x="73" y="577" on="1"/>
        <pt x="403" y="577" on="1"/>
        <pt x="403" y="529" on="1"/>
        <pt x="128" y="529" on="1"/>
        <pt x="128" y="316" on="1"/>
        <pt x="375" y="316" on="1"/>
        <pt x="375" y="269" on="1"/>
        <pt x="128" y="269" on="1"/>
        <pt x="128" y="49" on="1"/>
        <pt x="410" y="49" on="1"/>
        <pt x="410" y="0" on="1"/>
        <pt x="73" y="0" on="1"/>
      </contour>
    </TTGlyph>
    <TTGlyph name="Egrave" xMin="77" yMin="0" xMax="460" yMax="921">
      <contour>
        <pt x="235" y="785" on="1"/>
        <pt x="144" y="921" on="1"/>
        <pt x="204" y="921" on="1"/>
        <pt x="281" y="798" on="1"/>
      </contour>
      <contour>
        <pt x="77" y="740" on="1"/>
        <pt x="451" y="740" on="1"/>
        <pt x="451" y="688" on="1"/>
        <pt x="133" y="688" on="1"/>
        <pt x="133" y="401" on="1"/>
        <pt x="418" y="401" on="1"/>
        <pt x="418" y="349" on="1"/>
        <pt x="133" y="349" on="1"/>
        <pt x="133" y="52" on="1"/>
        <pt x="460" y="52" on="1"/>
        <pt x="460" y="0" on="1"/>
        <pt x="77" y="0" on="1"/>
      </contour>
    </TTGlyph>
    <TTGlyph name="Egrave.sc" xMin="73" yMin="0" xMax="410" yMax="724">
      <contour>
        <pt x="73" y="577" on="1"/>
        <pt x="403" y="577" on="1"/>
        <pt x="403" y="529" on="1"/>
        <pt x="128" y="529" on="1"/>
        <pt x="128" y="316" on="1"/>
        <pt x="375" y="316" on="1"/>
        <pt x="375" y="269" on="1"/>
        <pt x="128" y="269" on="1"/>
        <pt x="128" y="49" on="1"/>
        <pt x="410" y="49" on="1"/>
        <pt x="410" y="0" on="1"/>
        <pt x="73" y="0" on="1"/>
      </contour>
      <contour>
        <pt x="133" y="724" on="1"/>
        <pt x="190" y="724" on="1"/>
        <pt x="256" y="623" on="1"/>
        <pt x="212" y="614" on="1"/>
      </contour>
    </TTGlyph>
    <TTGlyph name="Einvertedbreve" xMin="77" yMin="0" xMax="460" yMax="962">
      <contour>
        <pt x="77" y="740" on="1"/>
        <pt x="451" y="740" on="1"/>
        <pt x="451" y="688" on="1"/>
        <pt x="133" y="688" on="1"/>
        <pt x="133" y="401" on="1"/>
        <pt x="418" y="401" on="1"/>
        <pt x="418" y="349" on="1"/>
        <pt x="133" y="349" on="1"/>
        <pt x="133" y="52" on="1"/>
        <pt x="460" y="52" on="1"/>
        <pt x="460" y="0" on="1"/>
        <pt x="77" y="0" on="1"/>
      </contour>
      <contour>
        <pt x="357" y="822" on="1"/>
        <pt x="357" y="870" on="0"/>
        <pt x="307" y="921" on="0"/>
        <pt x="262" y="921" on="1"/>
        <pt x="215" y="921" on="0"/>
        <pt x="166" y="870" on="0"/>
        <pt x="166" y="822" on="1"/>
        <pt x="119" y="822" on="1"/>
        <pt x="119" y="888" on="0"/>
        <pt x="194" y="962" on="0"/>
        <pt x="262" y="962" on="1"/>
        <pt x="329" y="962" on="0"/>
        <pt x="404" y="888" on="0"/>
        <pt x="404" y="822" on="1"/>
      </contour>
    </TTGlyph>
    <TTGlyph name="Einvertedbreve.sc" xMin="73" yMin="0" xMax="410" yMax="752">
      <contour>
        <pt x="111" y="640" on="1"/>
        <pt x="111" y="692" on="0"/>
        <pt x="177" y="752" on="0"/>
        <pt x="237" y="752" on="1"/>
        <pt x="297" y="752" on="0"/>
        <pt x="363" y="692" on="0"/>
        <pt x="363" y="640" on="1"/>
        <pt x="319" y="640" on="1"/>
        <pt x="319" y="716" on="0"/>
        <pt x="237" y="716" on="1"/>
        <pt x="155" y="716" on="0"/>
        <pt x="155" y="640" on="1"/>
      </contour>
      <contour>
        <pt x="73" y="577" on="1"/>
        <pt x="403" y="577" on="1"/>
        <pt x="403" y="529" on="1"/>
        <pt x="128" y="529" on="1"/>
        <pt x="128" y="316" on="1"/>
        <pt x="375" y="316" on="1"/>
        <pt x="375" y="269" on="1"/>
        <pt x="128" y="269" on="1"/>
        <pt x="128" y="49" on="1"/>
        <pt x="410" y="49" on="1"/>
        <pt x="410" y="0" on="1"/>
        <pt x="73" y="0" on="1"/>
      </contour>
    </TTGlyph>
    <TTGlyph name="Emacron" xMin="77" yMin="0" xMax="460" yMax="888">
      <contour>
        <pt x="139" y="888" on="1"/>
        <pt x="367" y="888" on="1"/>
        <pt x="367" y="841" on="1"/>
        <pt x="139" y="841" on="1"/>
      </contour>
      <contour>
        <pt x="77" y="740" on="1"/>
        <pt x="451" y="740" on="1"/>
        <pt x="451" y="688" on="1"/>
        <pt x="133" y="688" on="1"/>
        <pt x="133" y="401" on="1"/>
        <pt x="418" y="401" on="1"/>
        <pt x="418" y="349" on="1"/>
        <pt x="133" y="349" on="1"/>
        <pt x="133" y="52" on="1"/>
        <pt x="460" y="52" on="1"/>
        <pt x="460" y="0" on="1"/>
        <pt x="77" y="0" on="1"/>
      </contour>
    </TTGlyph>
    <TTGlyph name="Emacron.sc" xMin="73" yMin="0" xMax="410" yMax="698">
      <contour>
        <pt x="73" y="577" on="1"/>
        <pt x="403" y="577" on="1"/>
        <pt x="403" y="529" on="1"/>
        <pt x="128" y="529" on="1"/>
        <pt x="128" y="316" on="1"/>
        <pt x="375" y="316" on="1"/>
        <pt x="375" y="269" on="1"/>
        <pt x="128" y="269" on="1"/>
        <pt x="128" y="49" on="1"/>
        <pt x="410" y="49" on="1"/>
        <pt x="410" y="0" on="1"/>
        <pt x="73" y="0" on="1"/>
      </contour>
      <contour>
        <pt x="128" y="698" on="1"/>
        <pt x="332" y="698" on="1"/>
        <pt x="332" y="656" on="1"/>
        <pt x="128" y="656" on="1"/>
      </contour>
    </TTGlyph>
    <TTGlyph name="Eng" xMin="77" yMin="-181" xMax="570" yMax="740">
      <contour>
        <pt x="439" y="-168" on="1"/>
        <pt x="461" y="-122" on="0"/>
        <pt x="496" y="-30" on="0"/>
        <pt x="506" y="10" on="1"/>
        <pt x="183" y="553" on="1"/>
        <pt x="135" y="642" on="1"/>
        <pt x="130" y="641" on="1"/>
        <pt x="130" y="0" on="1"/>
        <pt x="77" y="0" on="1"/>
        <pt x="77" y="740" on="1"/>
        <pt x="133" y="740" on="1"/>
        <pt x="467" y="182" on="1"/>
        <pt x="512" y="98" on="1"/>
        <pt x="517" y="99" on="1"/>
        <pt x="517" y="740" on="1"/>
        <pt x="570" y="740" on="1"/>
        <pt x="570" y="58" on="1"/>
        <pt x="570" y="37" on="0"/>
        <pt x="556" y="-22" on="0"/>
        <pt x="532" y="-86" on="0"/>
        <pt x="499" y="-153" on="0"/>
        <pt x="481" y="-181" on="1"/>
      </contour>
    </TTGlyph>
    <TTGlyph name="Eng.sc" xMin="73" yMin="-144" xMax="505" yMax="577">
      <contour>
        <pt x="387" y="-131" on="1"/>
        <pt x="407" y="-94" on="0"/>
        <pt x="436" y="-20" on="0"/>
        <pt x="444" y="13" on="1"/>
        <pt x="170" y="414" on="1"/>
        <pt x="129" y="482" on="1"/>
        <pt x="124" y="482" on="1"/>
        <pt x="124" y="0" on="1"/>
        <pt x="73" y="0" on="1"/>
        <pt x="73" y="577" on="1"/>
        <pt x="126" y="577" on="1"/>
        <pt x="410" y="161" on="1"/>
        <pt x="449" y="95" on="1"/>
        <pt x="454" y="96" on="1"/>
        <pt x="454" y="577" on="1"/>
        <pt x="505" y="577" on="1"/>
        <pt x="505" y="52" on="1"/>
        <pt x="505" y="35" on="0"/>
        <pt x="493" y="-13" on="0"/>
        <pt x="472" y="-67" on="0"/>
        <pt x="443" y="-121" on="0"/>
        <pt x="427" y="-144" on="1"/>
      </contour>
    </TTGlyph>
    <TTGlyph name="Eogonek" xMin="77" yMin="-220" xMax="460" yMax="740">
      <contour>
        <pt x="77" y="740" on="1"/>
        <pt x="451" y="740" on="1"/>
        <pt x="451" y="688" on="1"/>
        <pt x="133" y="688" on="1"/>
        <pt x="133" y="401" on="1"/>
        <pt x="418" y="401" on="1"/>
        <pt x="418" y="349" on="1"/>
        <pt x="133" y="349" on="1"/>
        <pt x="133" y="52" on="1"/>
        <pt x="460" y="52" on="1"/>
        <pt x="460" y="-17" on="1"/>
        <pt x="412" y="-40" on="0"/>
        <pt x="368" y="-97" on="0"/>
        <pt x="368" y="-130" on="1"/>
        <pt x="368" y="-176" on="0"/>
        <pt x="415" y="-176" on="1"/>
        <pt x="438" y="-176" on="0"/>
        <pt x="460" y="-165" on="1"/>
        <pt x="460" y="-208" on="1"/>
        <pt x="434" y="-220" on="0"/>
        <pt x="408" y="-220" on="1"/>
        <pt x="367" y="-220" on="0"/>
        <pt x="322" y="-176" on="0"/>
        <pt x="322" y="-135" on="1"/>
        <pt x="322" y="-58" on="0"/>
        <pt x="413" y="0" on="1"/>
        <pt x="77" y="0" on="1"/>
      </contour>
    </TTGlyph>
    <TTGlyph name="Eogonek.sc" xMin="73" yMin="-172" xMax="410" yMax="577">
      <contour>
        <pt x="364" y="-172" on="1"/>
        <pt x="326" y="-172" on="0"/>
        <pt x="286" y="-137" on="0"/>
        <pt x="286" y="-104" on="1"/>
        <pt x="286" y="-45" on="0"/>
        <pt x="364" y="0" on="1"/>
        <pt x="73" y="0" on="1"/>
        <pt x="73" y="577" on="1"/>
        <pt x="403" y="577" on="1"/>
        <pt x="403" y="529" on="1"/>
        <pt x="128" y="529" on="1"/>
        <pt x="128" y="316" on="1"/>
        <pt x="375" y="316" on="1"/>
        <pt x="375" y="269" on="1"/>
        <pt x="128" y="269" on="1"/>
        <pt x="128" y="49" on="1"/>
        <pt x="410" y="49" on="1"/>
        <pt x="410" y="-12" on="1"/>
        <pt x="371" y="-26" on="0"/>
        <pt x="330" y="-75" on="0"/>
        <pt x="330" y="-100" on="1"/>
        <pt x="330" y="-133" on="0"/>
        <pt x="368" y="-133" on="1"/>
        <pt x="379" y="-133" on="0"/>
        <pt x="401" y="-128" on="0"/>
        <pt x="410" y="-124" on="1"/>
        <pt x="410" y="-162" on="1"/>
        <pt x="399" y="-167" on="0"/>
        <pt x="376" y="-172" on="0"/>
      </contour>
    </TTGlyph>
    <TTGlyph name="Eth" xMin="0" yMin="-17" xMax="540" yMax="750">
      <contour>
        <pt x="0" y="393" on="1"/>
        <pt x="88" y="393" on="1"/>
        <pt x="88" y="733" on="1"/>
        <pt x="135" y="741" on="0"/>
        <pt x="207" y="750" on="0"/>
        <pt x="239" y="750" on="1"/>
        <pt x="394" y="750" on="0"/>
        <pt x="540" y="565" on="0"/>
        <pt x="540" y="369" on="1"/>
        <pt x="540" y="168" on="0"/>
        <pt x="378" y="-17" on="0"/>
        <pt x="202" y="-17" on="1"/>
        <pt x="175" y="-17" on="0"/>
        <pt x="119" y="-14" on="0"/>
        <pt x="88" y="-10" on="1"/>
        <pt x="88" y="344" on="1"/>
        <pt x="0" y="344" on="1"/>
      </contour>
      <contour>
        <pt x="214" y="35" on="1"/>
        <pt x="350" y="35" on="0"/>
        <pt x="481" y="198" on="0"/>
        <pt x="481" y="369" on="1"/>
        <pt x="481" y="542" on="0"/>
        <pt x="366" y="699" on="0"/>
        <pt x="240" y="699" on="1"/>
        <pt x="192" y="699" on="0"/>
        <pt x="144" y="690" on="1"/>
        <pt x="144" y="393" on="1"/>
        <pt x="294" y="393" on="1"/>
        <pt x="294" y="344" on="1"/>
        <pt x="144" y="344" on="1"/>
        <pt x="144" y="40" on="1"/>
        <pt x="165" y="38" on="0"/>
        <pt x="199" y="35" on="0"/>
      </contour>
    </TTGlyph>
    <TTGlyph name="Eth.sc" xMin="6" yMin="-13" xMax="481" yMax="585">
      <contour>
        <pt x="6" y="311" on="1"/>
        <pt x="82" y="311" on="1"/>
        <pt x="82" y="573" on="1"/>
        <pt x="123" y="578" on="0"/>
        <pt x="188" y="585" on="0"/>
        <pt x="216" y="585" on="1"/>
        <pt x="354" y="585" on="0"/>
        <pt x="481" y="442" on="0"/>
        <pt x="481" y="288" on="1"/>
        <pt x="481" y="209" on="0"/>
        <pt x="447" y="95" on="0"/>
        <pt x="375" y="22" on="0"/>
        <pt x="263" y="-13" on="0"/>
        <pt x="186" y="-13" on="1"/>
        <pt x="161" y="-13" on="0"/>
        <pt x="110" y="-10" on="0"/>
        <pt x="82" y="-6" on="1"/>
        <pt x="82" y="264" on="1"/>
        <pt x="6" y="264" on="1"/>
      </contour>
      <contour>
        <pt x="200" y="36" on="1"/>
        <pt x="314" y="36" on="0"/>
        <pt x="425" y="157" on="0"/>
        <pt x="425" y="288" on="1"/>
        <pt x="425" y="420" on="0"/>
        <pt x="326" y="537" on="0"/>
        <pt x="218" y="537" on="1"/>
        <pt x="198" y="537" on="0"/>
        <pt x="156" y="534" on="0"/>
        <pt x="136" y="530" on="1"/>
        <pt x="136" y="311" on="1"/>
        <pt x="263" y="311" on="1"/>
        <pt x="263" y="264" on="1"/>
        <pt x="136" y="264" on="1"/>
        <pt x="136" y="40" on="1"/>
        <pt x="155" y="38" on="0"/>
        <pt x="186" y="36" on="0"/>
      </contour>
    </TTGlyph>
    <TTGlyph name="Etilde" xMin="77" yMin="0" xMax="460" yMax="908">
      <contour>
        <pt x="114" y="848" on="1"/>
        <pt x="130" y="872" on="0"/>
        <pt x="181" y="908" on="0"/>
        <pt x="207" y="908" on="1"/>
        <pt x="226" y="908" on="0"/>
        <pt x="257" y="895" on="0"/>
        <pt x="286" y="879" on="0"/>
        <pt x="314" y="866" on="0"/>
        <pt x="331" y="866" on="1"/>
        <pt x="364" y="866" on="0"/>
        <pt x="386" y="906" on="1"/>
        <pt x="413" y="885" on="1"/>
        <pt x="400" y="856" on="0"/>
        <pt x="350" y="821" on="0"/>
        <pt x="324" y="821" on="1"/>
        <pt x="305" y="821" on="0"/>
        <pt x="274" y="834" on="0"/>
        <pt x="245" y="850" on="0"/>
        <pt x="216" y="863" on="0"/>
        <pt x="200" y="863" on="1"/>
        <pt x="183" y="863" on="0"/>
        <pt x="150" y="841" on="0"/>
        <pt x="137" y="824" on="1"/>
      </contour>
      <contour>
        <pt x="77" y="740" on="1"/>
        <pt x="451" y="740" on="1"/>
        <pt x="451" y="688" on="1"/>
        <pt x="133" y="688" on="1"/>
        <pt x="133" y="401" on="1"/>
        <pt x="418" y="401" on="1"/>
        <pt x="418" y="349" on="1"/>
        <pt x="133" y="349" on="1"/>
        <pt x="133" y="52" on="1"/>
        <pt x="460" y="52" on="1"/>
        <pt x="460" y="0" on="1"/>
        <pt x="77" y="0" on="1"/>
      </contour>
    </TTGlyph>
    <TTGlyph name="Etilde.sc" xMin="73" yMin="0" xMax="410" yMax="714">
      <contour>
        <pt x="106" y="661" on="1"/>
        <pt x="121" y="684" on="0"/>
        <pt x="167" y="714" on="0"/>
        <pt x="189" y="714" on="1"/>
        <pt x="206" y="714" on="0"/>
        <pt x="233" y="704" on="0"/>
        <pt x="259" y="691" on="0"/>
        <pt x="284" y="681" on="0"/>
        <pt x="299" y="681" on="1"/>
        <pt x="330" y="681" on="0"/>
        <pt x="350" y="712" on="1"/>
        <pt x="372" y="696" on="1"/>
        <pt x="360" y="670" on="0"/>
        <pt x="315" y="640" on="0"/>
        <pt x="292" y="640" on="1"/>
        <pt x="276" y="640" on="0"/>
        <pt x="248" y="650" on="0"/>
        <pt x="223" y="663" on="0"/>
        <pt x="197" y="673" on="0"/>
        <pt x="182" y="673" on="1"/>
        <pt x="167" y="673" on="0"/>
        <pt x="137" y="656" on="0"/>
        <pt x="126" y="642" on="1"/>
      </contour>
      <contour>
        <pt x="73" y="577" on="1"/>
        <pt x="403" y="577" on="1"/>
        <pt x="403" y="529" on="1"/>
        <pt x="128" y="529" on="1"/>
        <pt x="128" y="316" on="1"/>
        <pt x="375" y="316" on="1"/>
        <pt x="375" y="269" on="1"/>
        <pt x="128" y="269" on="1"/>
        <pt x="128" y="49" on="1"/>
        <pt x="410" y="49" on="1"/>
        <pt x="410" y="0" on="1"/>
        <pt x="73" y="0" on="1"/>
      </contour>
    </TTGlyph>
    <TTGlyph name="Euro" xMin="39" yMin="-10" xMax="462" yMax="748">
      <contour>
        <pt x="39" y="475" on="1"/>
        <pt x="115" y="475" on="1"/>
        <pt x="131" y="620" on="0"/>
        <pt x="267" y="748" on="0"/>
        <pt x="397" y="748" on="1"/>
        <pt x="418" y="748" on="0"/>
        <pt x="446" y="746" on="0"/>
        <pt x="462" y="744" on="1"/>
        <pt x="444" y="694" on="1"/>
        <pt x="436" y="695" on="0"/>
        <pt x="418" y="696" on="0"/>
        <pt x="404" y="696" on="1"/>
        <pt x="297" y="696" on="0"/>
        <pt x="187" y="595" on="0"/>
        <pt x="173" y="475" on="1"/>
        <pt x="391" y="475" on="1"/>
        <pt x="371" y="431" on="1"/>
        <pt x="169" y="431" on="1"/>
        <pt x="168" y="416" on="0"/>
        <pt x="168" y="386" on="0"/>
        <pt x="168" y="369" on="1"/>
        <pt x="168" y="352" on="0"/>
        <pt x="168" y="322" on="0"/>
        <pt x="169" y="308" on="1"/>
        <pt x="359" y="308" on="1"/>
        <pt x="339" y="264" on="1"/>
        <pt x="174" y="264" on="1"/>
        <pt x="188" y="147" on="0"/>
        <pt x="297" y="42" on="0"/>
        <pt x="400" y="42" on="1"/>
        <pt x="408" y="42" on="0"/>
        <pt x="435" y="44" on="0"/>
        <pt x="449" y="46" on="1"/>
        <pt x="449" y="-6" on="1"/>
        <pt x="432" y="-10" on="0"/>
        <pt x="399" y="-10" on="1"/>
        <pt x="271" y="-8" on="0"/>
        <pt x="132" y="123" on="0"/>
        <pt x="115" y="264" on="1"/>
        <pt x="39" y="264" on="1"/>
        <pt x="39" y="308" on="1"/>
        <pt x="112" y="308" on="1"/>
        <pt x="111" y="322" on="0"/>
        <pt x="110" y="352" on="0"/>
        <pt x="110" y="369" on="1"/>
        <pt x="110" y="385" on="0"/>
        <pt x="110" y="416" on="0"/>
        <pt x="111" y="431" on="1"/>
        <pt x="39" y="431" on="1"/>
      </contour>
    </TTGlyph>
    <TTGlyph name="Euro.tab" xMin="36" yMin="-10" xMax="464" yMax="748">
      <contour>
        <pt x="36" y="475" on="1"/>
        <pt x="113" y="475" on="1"/>
        <pt x="121" y="548" on="0"/>
        <pt x="163" y="651" on="0"/>
        <pt x="233" y="717" on="0"/>
        <pt x="333" y="748" on="0"/>
        <pt x="399" y="748" on="1"/>
        <pt x="421" y="748" on="0"/>
        <pt x="448" y="746" on="0"/>
        <pt x="464" y="744" on="1"/>
        <pt x="447" y="694" on="1"/>
        <pt x="438" y="695" on="0"/>
        <pt x="419" y="696" on="0"/>
        <pt x="405" y="696" on="1"/>
        <pt x="297" y="696" on="0"/>
        <pt x="186" y="594" on="0"/>
        <pt x="173" y="475" on="1"/>
        <pt x="392" y="475" on="1"/>
        <pt x="372" y="431" on="1"/>
        <pt x="168" y="431" on="1"/>
        <pt x="166" y="417" on="0"/>
        <pt x="166" y="385" on="0"/>
        <pt x="166" y="369" on="1"/>
        <pt x="166" y="353" on="0"/>
        <pt x="166" y="322" on="0"/>
        <pt x="168" y="308" on="1"/>
        <pt x="359" y="308" on="1"/>
        <pt x="339" y="264" on="1"/>
        <pt x="173" y="264" on="1"/>
        <pt x="187" y="147" on="0"/>
        <pt x="298" y="42" on="0"/>
        <pt x="401" y="42" on="1"/>
        <pt x="410" y="42" on="0"/>
        <pt x="437" y="44" on="0"/>
        <pt x="451" y="46" on="1"/>
        <pt x="451" y="-6" on="1"/>
        <pt x="434" y="-10" on="0"/>
        <pt x="400" y="-10" on="1"/>
        <pt x="270" y="-8" on="0"/>
        <pt x="130" y="123" on="0"/>
        <pt x="114" y="264" on="1"/>
        <pt x="36" y="264" on="1"/>
        <pt x="36" y="308" on="1"/>
        <pt x="109" y="308" on="1"/>
        <pt x="107" y="322" on="0"/>
        <pt x="107" y="353" on="0"/>
        <pt x="107" y="369" on="1"/>
        <pt x="107" y="386" on="0"/>
        <pt x="108" y="417" on="0"/>
        <pt x="109" y="431" on="1"/>
        <pt x="36" y="431" on="1"/>
      </contour>
    </TTGlyph>
    <TTGlyph name="F" xMin="77" yMin="0" xMax="432" yMax="740">
      <contour>
        <pt x="77" y="740" on="1"/>
        <pt x="432" y="740" on="1"/>
        <pt x="432" y="688" on="1"/>
        <pt x="133" y="688" on="1"/>
        <pt x="133" y="398" on="1"/>
        <pt x="414" y="398" on="1"/>
        <pt x="414" y="346" on="1"/>
        <pt x="133" y="346" on="1"/>
        <pt x="133" y="0" on="1"/>
        <pt x="77" y="0" on="1"/>
      </contour>
    </TTGlyph>
    <TTGlyph name="F.sc" xMin="73" yMin="0" xMax="388" yMax="577">
      <contour>
        <pt x="73" y="577" on="1"/>
        <pt x="388" y="577" on="1"/>
        <pt x="388" y="529" on="1"/>
        <pt x="128" y="529" on="1"/>
        <pt x="128" y="313" on="1"/>
        <pt x="371" y="313" on="1"/>
        <pt x="371" y="264" on="1"/>
        <pt x="128" y="264" on="1"/>
        <pt x="128" y="0" on="1"/>
        <pt x="73" y="0" on="1"/>
      </contour>
    </TTGlyph>
    <TTGlyph name="F_B.sc" xMin="73" yMin="-8" xMax="857" yMax="585">
      <contour>
        <pt x="73" y="577" on="1"/>
        <pt x="388" y="577" on="1"/>
        <pt x="388" y="529" on="1"/>
        <pt x="128" y="529" on="1"/>
        <pt x="128" y="313" on="1"/>
        <pt x="371" y="313" on="1"/>
        <pt x="371" y="264" on="1"/>
        <pt x="128" y="264" on="1"/>
        <pt x="128" y="0" on="1"/>
        <pt x="73" y="0" on="1"/>
      </contour>
      <contour>
        <pt x="646" y="-8" on="1"/>
        <pt x="626" y="-8" on="0"/>
        <pt x="581" y="-6" on="0"/>
        <pt x="536" y="-3" on="0"/>
        <pt x="495" y="1" on="0"/>
        <pt x="480" y="4" on="1"/>
        <pt x="480" y="575" on="1"/>
        <pt x="508" y="578" on="0"/>
        <pt x="552" y="581" on="0"/>
        <pt x="587" y="584" on="0"/>
        <pt x="618" y="585" on="0"/>
        <pt x="634" y="585" on="1"/>
        <pt x="739" y="585" on="0"/>
        <pt x="837" y="510" on="0"/>
        <pt x="837" y="429" on="1"/>
        <pt x="837" y="375" on="0"/>
        <pt x="785" y="306" on="0"/>
        <pt x="735" y="296" on="1"/>
        <pt x="735" y="293" on="1"/>
        <pt x="792" y="285" on="0"/>
        <pt x="857" y="212" on="0"/>
        <pt x="857" y="152" on="1"/>
        <pt x="857" y="-8" on="0"/>
      </contour>
      <contour>
        <pt x="651" y="36" on="1"/>
        <pt x="801" y="36" on="0"/>
        <pt x="801" y="154" on="1"/>
        <pt x="801" y="216" on="0"/>
        <pt x="725" y="269" on="0"/>
        <pt x="636" y="269" on="1"/>
        <pt x="533" y="269" on="1"/>
        <pt x="533" y="44" on="1"/>
        <pt x="539" y="42" on="0"/>
        <pt x="566" y="40" on="0"/>
        <pt x="600" y="37" on="0"/>
        <pt x="636" y="36" on="0"/>
      </contour>
      <contour>
        <pt x="635" y="314" on="1"/>
        <pt x="716" y="314" on="0"/>
        <pt x="781" y="365" on="0"/>
        <pt x="781" y="427" on="1"/>
        <pt x="781" y="485" on="0"/>
        <pt x="712" y="539" on="0"/>
        <pt x="639" y="539" on="1"/>
        <pt x="610" y="539" on="0"/>
        <pt x="561" y="536" on="0"/>
        <pt x="533" y="533" on="1"/>
        <pt x="533" y="314" on="1"/>
      </contour>
    </TTGlyph>
    <TTGlyph name="F_F.sc" xMin="73" yMin="0" xMax="795" yMax="577">
      <contour>
        <pt x="73" y="577" on="1"/>
        <pt x="388" y="577" on="1"/>
        <pt x="388" y="529" on="1"/>
        <pt x="128" y="529" on="1"/>
        <pt x="128" y="313" on="1"/>
        <pt x="371" y="313" on="1"/>
        <pt x="371" y="264" on="1"/>
        <pt x="128" y="264" on="1"/>
        <pt x="128" y="0" on="1"/>
        <pt x="73" y="0" on="1"/>
      </contour>
      <contour>
        <pt x="480" y="577" on="1"/>
        <pt x="795" y="577" on="1"/>
        <pt x="795" y="529" on="1"/>
        <pt x="535" y="529" on="1"/>
        <pt x="535" y="313" on="1"/>
        <pt x="778" y="313" on="1"/>
        <pt x="778" y="264" on="1"/>
        <pt x="535" y="264" on="1"/>
        <pt x="535" y="0" on="1"/>
        <pt x="480" y="0" on="1"/>
      </contour>
    </TTGlyph>
    <TTGlyph name="F_F_B.sc" xMin="73" yMin="-8" xMax="1264" yMax="585">
      <contour>
        <pt x="73" y="577" on="1"/>
        <pt x="388" y="577" on="1"/>
        <pt x="388" y="529" on="1"/>
        <pt x="128" y="529" on="1"/>
        <pt x="128" y="313" on="1"/>
        <pt x="371" y="313" on="1"/>
        <pt x="371" y="264" on="1"/>
        <pt x="128" y="264" on="1"/>
        <pt x="128" y="0" on="1"/>
        <pt x="73" y="0" on="1"/>
      </contour>
      <contour>
        <pt x="480" y="577" on="1"/>
        <pt x="795" y="577" on="1"/>
        <pt x="795" y="529" on="1"/>
        <pt x="535" y="529" on="1"/>
        <pt x="535" y="313" on="1"/>
        <pt x="778" y="313" on="1"/>
        <pt x="778" y="264" on="1"/>
        <pt x="535" y="264" on="1"/>
        <pt x="535" y="0" on="1"/>
        <pt x="480" y="0" on="1"/>
      </contour>
      <contour>
        <pt x="1053" y="-8" on="1"/>
        <pt x="1033" y="-8" on="0"/>
        <pt x="988" y="-6" on="0"/>
        <pt x="943" y="-3" on="0"/>
        <pt x="902" y="1" on="0"/>
        <pt x="887" y="4" on="1"/>
        <pt x="887" y="575" on="1"/>
        <pt x="915" y="578" on="0"/>
        <pt x="959" y="581" on="0"/>
        <pt x="994" y="584" on="0"/>
        <pt x="1025" y="585" on="0"/>
        <pt x="1041" y="585" on="1"/>
        <pt x="1146" y="585" on="0"/>
        <pt x="1244" y="510" on="0"/>
        <pt x="1244" y="429" on="1"/>
        <pt x="1244" y="375" on="0"/>
        <pt x="1192" y="306" on="0"/>
        <pt x="1142" y="296" on="1"/>
        <pt x="1142" y="293" on="1"/>
        <pt x="1199" y="285" on="0"/>
        <pt x="1264" y="212" on="0"/>
        <pt x="1264" y="152" on="1"/>
        <pt x="1264" y="-8" on="0"/>
      </contour>
      <contour>
        <pt x="1058" y="36" on="1"/>
        <pt x="1208" y="36" on="0"/>
        <pt x="1208" y="154" on="1"/>
        <pt x="1208" y="216" on="0"/>
        <pt x="1132" y="269" on="0"/>
        <pt x="1043" y="269" on="1"/>
        <pt x="940" y="269" on="1"/>
        <pt x="940" y="44" on="1"/>
        <pt x="946" y="42" on="0"/>
        <pt x="973" y="40" on="0"/>
        <pt x="1007" y="37" on="0"/>
        <pt x="1043" y="36" on="0"/>
      </contour>
      <contour>
        <pt x="1042" y="314" on="1"/>
        <pt x="1123" y="314" on="0"/>
        <pt x="1188" y="365" on="0"/>
        <pt x="1188" y="427" on="1"/>
        <pt x="1188" y="485" on="0"/>
        <pt x="1119" y="539" on="0"/>
        <pt x="1046" y="539" on="1"/>
        <pt x="1017" y="539" on="0"/>
        <pt x="968" y="536" on="0"/>
        <pt x="940" y="533" on="1"/>
        <pt x="940" y="314" on="1"/>
      </contour>
    </TTGlyph>
    <TTGlyph name="F_F_H.sc" xMin="73" yMin="0" xMax="1293" yMax="577">
      <contour>
        <pt x="73" y="577" on="1"/>
        <pt x="388" y="577" on="1"/>
        <pt x="388" y="529" on="1"/>
        <pt x="128" y="529" on="1"/>
        <pt x="128" y="313" on="1"/>
        <pt x="371" y="313" on="1"/>
        <pt x="371" y="264" on="1"/>
        <pt x="128" y="264" on="1"/>
        <pt x="128" y="0" on="1"/>
        <pt x="73" y="0" on="1"/>
      </contour>
      <contour>
        <pt x="480" y="577" on="1"/>
        <pt x="795" y="577" on="1"/>
        <pt x="795" y="529" on="1"/>
        <pt x="535" y="529" on="1"/>
        <pt x="535" y="313" on="1"/>
        <pt x="778" y="313" on="1"/>
        <pt x="778" y="264" on="1"/>
        <pt x="535" y="264" on="1"/>
        <pt x="535" y="0" on="1"/>
        <pt x="480" y="0" on="1"/>
      </contour>
      <contour>
        <pt x="887" y="577" on="1"/>
        <pt x="942" y="577" on="1"/>
        <pt x="942" y="319" on="1"/>
        <pt x="1238" y="319" on="1"/>
        <pt x="1238" y="577" on="1"/>
        <pt x="1293" y="577" on="1"/>
        <pt x="1293" y="0" on="1"/>
        <pt x="1238" y="0" on="1"/>
        <pt x="1238" y="270" on="1"/>
        <pt x="942" y="270" on="1"/>
        <pt x="942" y="0" on="1"/>
        <pt x="887" y="0" on="1"/>
      </contour>
    </TTGlyph>
    <TTGlyph name="F_F_I.sc" xMin="73" yMin="0" xMax="942" yMax="577">
      <contour>
        <pt x="73" y="577" on="1"/>
        <pt x="388" y="577" on="1"/>
        <pt x="388" y="529" on="1"/>
        <pt x="128" y="529" on="1"/>
        <pt x="128" y="313" on="1"/>
        <pt x="371" y="313" on="1"/>
        <pt x="371" y="264" on="1"/>
        <pt x="128" y="264" on="1"/>
        <pt x="128" y="0" on="1"/>
        <pt x="73" y="0" on="1"/>
      </contour>
      <contour>
        <pt x="480" y="577" on="1"/>
        <pt x="795" y="577" on="1"/>
        <pt x="795" y="529" on="1"/>
        <pt x="535" y="529" on="1"/>
        <pt x="535" y="313" on="1"/>
        <pt x="778" y="313" on="1"/>
        <pt x="778" y="264" on="1"/>
        <pt x="535" y="264" on="1"/>
        <pt x="535" y="0" on="1"/>
        <pt x="480" y="0" on="1"/>
      </contour>
      <contour>
        <pt x="887" y="577" on="1"/>
        <pt x="942" y="577" on="1"/>
        <pt x="942" y="0" on="1"/>
        <pt x="887" y="0" on="1"/>
      </contour>
    </TTGlyph>
    <TTGlyph name="F_F_J.sc" xMin="73" yMin="-143" xMax="955" yMax="577">
      <contour>
        <pt x="73" y="577" on="1"/>
        <pt x="388" y="577" on="1"/>
        <pt x="388" y="529" on="1"/>
        <pt x="128" y="529" on="1"/>
        <pt x="128" y="313" on="1"/>
        <pt x="371" y="313" on="1"/>
        <pt x="371" y="264" on="1"/>
        <pt x="128" y="264" on="1"/>
        <pt x="128" y="0" on="1"/>
        <pt x="73" y="0" on="1"/>
      </contour>
      <contour>
        <pt x="480" y="577" on="1"/>
        <pt x="795" y="577" on="1"/>
        <pt x="795" y="529" on="1"/>
        <pt x="535" y="529" on="1"/>
        <pt x="535" y="313" on="1"/>
        <pt x="778" y="313" on="1"/>
        <pt x="778" y="264" on="1"/>
        <pt x="535" y="264" on="1"/>
        <pt x="535" y="0" on="1"/>
        <pt x="480" y="0" on="1"/>
      </contour>
      <contour>
        <pt x="829" y="-124" on="1"/>
        <pt x="850" y="-82" on="0"/>
        <pt x="878" y="-18" on="0"/>
        <pt x="894" y="42" on="0"/>
        <pt x="900" y="104" on="0"/>
        <pt x="900" y="143" on="1"/>
        <pt x="900" y="577" on="1"/>
        <pt x="955" y="577" on="1"/>
        <pt x="955" y="140" on="1"/>
        <pt x="955" y="66" on="0"/>
        <pt x="913" y="-67" on="0"/>
        <pt x="865" y="-143" on="1"/>
      </contour>
    </TTGlyph>
    <TTGlyph name="F_F_K.sc" xMin="73" yMin="0" xMax="1299" yMax="577">
      <contour>
        <pt x="73" y="577" on="1"/>
        <pt x="388" y="577" on="1"/>
        <pt x="388" y="529" on="1"/>
        <pt x="128" y="529" on="1"/>
        <pt x="128" y="313" on="1"/>
        <pt x="371" y="313" on="1"/>
        <pt x="371" y="264" on="1"/>
        <pt x="128" y="264" on="1"/>
        <pt x="128" y="0" on="1"/>
        <pt x="73" y="0" on="1"/>
      </contour>
      <contour>
        <pt x="480" y="577" on="1"/>
        <pt x="795" y="577" on="1"/>
        <pt x="795" y="529" on="1"/>
        <pt x="535" y="529" on="1"/>
        <pt x="535" y="313" on="1"/>
        <pt x="778" y="313" on="1"/>
        <pt x="778" y="264" on="1"/>
        <pt x="535" y="264" on="1"/>
        <pt x="535" y="0" on="1"/>
        <pt x="480" y="0" on="1"/>
      </contour>
      <contour>
        <pt x="887" y="577" on="1"/>
        <pt x="942" y="577" on="1"/>
        <pt x="942" y="318" on="1"/>
        <pt x="1019" y="318" on="1"/>
        <pt x="1218" y="577" on="1"/>
        <pt x="1283" y="577" on="1"/>
        <pt x="1084" y="316" on="1"/>
        <pt x="1056" y="296" on="1"/>
        <pt x="1056" y="293" on="1"/>
        <pt x="1085" y="274" on="1"/>
        <pt x="1299" y="0" on="1"/>
        <pt x="1237" y="0" on="1"/>
        <pt x="1023" y="269" on="1"/>
        <pt x="942" y="269" on="1"/>
        <pt x="942" y="0" on="1"/>
        <pt x="887" y="0" on="1"/>
      </contour>
    </TTGlyph>
    <TTGlyph name="F_F_L.sc" xMin="73" yMin="0" xMax="1164" yMax="577">
      <contour>
        <pt x="887" y="577" on="1"/>
        <pt x="942" y="577" on="1"/>
        <pt x="942" y="49" on="1"/>
        <pt x="1164" y="49" on="1"/>
        <pt x="1164" y="0" on="1"/>
        <pt x="887" y="0" on="1"/>
      </contour>
      <contour>
        <pt x="73" y="577" on="1"/>
        <pt x="388" y="577" on="1"/>
        <pt x="388" y="529" on="1"/>
        <pt x="128" y="529" on="1"/>
        <pt x="128" y="313" on="1"/>
        <pt x="371" y="313" on="1"/>
        <pt x="371" y="264" on="1"/>
        <pt x="128" y="264" on="1"/>
        <pt x="128" y="0" on="1"/>
        <pt x="73" y="0" on="1"/>
      </contour>
      <contour>
        <pt x="480" y="577" on="1"/>
        <pt x="795" y="577" on="1"/>
        <pt x="795" y="529" on="1"/>
        <pt x="535" y="529" on="1"/>
        <pt x="535" y="313" on="1"/>
        <pt x="778" y="313" on="1"/>
        <pt x="778" y="264" on="1"/>
        <pt x="535" y="264" on="1"/>
        <pt x="535" y="0" on="1"/>
        <pt x="480" y="0" on="1"/>
      </contour>
    </TTGlyph>
    <TTGlyph name="F_F_T.sc" xMin="73" yMin="0" xMax="1196" yMax="577">
      <contour>
        <pt x="977" y="527" on="1"/>
        <pt x="812" y="527" on="1"/>
        <pt x="812" y="577" on="1"/>
        <pt x="1196" y="577" on="1"/>
        <pt x="1196" y="527" on="1"/>
        <pt x="1032" y="527" on="1"/>
        <pt x="1032" y="0" on="1"/>
        <pt x="977" y="0" on="1"/>
      </contour>
      <contour>
        <pt x="73" y="577" on="1"/>
        <pt x="388" y="577" on="1"/>
        <pt x="388" y="529" on="1"/>
        <pt x="128" y="529" on="1"/>
        <pt x="128" y="313" on="1"/>
        <pt x="371" y="313" on="1"/>
        <pt x="371" y="264" on="1"/>
        <pt x="128" y="264" on="1"/>
        <pt x="128" y="0" on="1"/>
        <pt x="73" y="0" on="1"/>
      </contour>
      <contour>
        <pt x="480" y="577" on="1"/>
        <pt x="795" y="577" on="1"/>
        <pt x="795" y="529" on="1"/>
        <pt x="535" y="529" on="1"/>
        <pt x="535" y="313" on="1"/>
        <pt x="778" y="313" on="1"/>
        <pt x="778" y="264" on="1"/>
        <pt x="535" y="264" on="1"/>
        <pt x="535" y="0" on="1"/>
        <pt x="480" y="0" on="1"/>
      </contour>
    </TTGlyph>
    <TTGlyph name="F_H.sc" xMin="73" yMin="0" xMax="886" yMax="577">
      <contour>
        <pt x="73" y="577" on="1"/>
        <pt x="388" y="577" on="1"/>
        <pt x="388" y="529" on="1"/>
        <pt x="128" y="529" on="1"/>
        <pt x="128" y="313" on="1"/>
        <pt x="371" y="313" on="1"/>
        <pt x="371" y="264" on="1"/>
        <pt x="128" y="264" on="1"/>
        <pt x="128" y="0" on="1"/>
        <pt x="73" y="0" on="1"/>
      </contour>
      <contour>
        <pt x="480" y="577" on="1"/>
        <pt x="535" y="577" on="1"/>
        <pt x="535" y="319" on="1"/>
        <pt x="831" y="319" on="1"/>
        <pt x="831" y="577" on="1"/>
        <pt x="886" y="577" on="1"/>
        <pt x="886" y="0" on="1"/>
        <pt x="831" y="0" on="1"/>
        <pt x="831" y="270" on="1"/>
        <pt x="535" y="270" on="1"/>
        <pt x="535" y="0" on="1"/>
        <pt x="480" y="0" on="1"/>
      </contour>
    </TTGlyph>
    <TTGlyph name="F_I.sc" xMin="73" yMin="0" xMax="535" yMax="577">
      <contour>
        <pt x="73" y="577" on="1"/>
        <pt x="388" y="577" on="1"/>
        <pt x="388" y="529" on="1"/>
        <pt x="128" y="529" on="1"/>
        <pt x="128" y="313" on="1"/>
        <pt x="371" y="313" on="1"/>
        <pt x="371" y="264" on="1"/>
        <pt x="128" y="264" on="1"/>
        <pt x="128" y="0" on="1"/>
        <pt x="73" y="0" on="1"/>
      </contour>
      <contour>
        <pt x="480" y="577" on="1"/>
        <pt x="535" y="577" on="1"/>
        <pt x="535" y="0" on="1"/>
        <pt x="480" y="0" on="1"/>
      </contour>
    </TTGlyph>
    <TTGlyph name="F_J.sc" xMin="73" yMin="-143" xMax="548" yMax="577">
      <contour>
        <pt x="73" y="577" on="1"/>
        <pt x="388" y="577" on="1"/>
        <pt x="388" y="529" on="1"/>
        <pt x="128" y="529" on="1"/>
        <pt x="128" y="313" on="1"/>
        <pt x="371" y="313" on="1"/>
        <pt x="371" y="264" on="1"/>
        <pt x="128" y="264" on="1"/>
        <pt x="128" y="0" on="1"/>
        <pt x="73" y="0" on="1"/>
      </contour>
      <contour>
        <pt x="422" y="-124" on="1"/>
        <pt x="443" y="-82" on="0"/>
        <pt x="471" y="-18" on="0"/>
        <pt x="487" y="42" on="0"/>
        <pt x="493" y="104" on="0"/>
        <pt x="493" y="143" on="1"/>
        <pt x="493" y="577" on="1"/>
        <pt x="548" y="577" on="1"/>
        <pt x="548" y="140" on="1"/>
        <pt x="548" y="66" on="0"/>
        <pt x="506" y="-67" on="0"/>
        <pt x="458" y="-143" on="1"/>
      </contour>
    </TTGlyph>
    <TTGlyph name="F_K.sc" xMin="73" yMin="0" xMax="892" yMax="577">
      <contour>
        <pt x="73" y="577" on="1"/>
        <pt x="388" y="577" on="1"/>
        <pt x="388" y="529" on="1"/>
        <pt x="128" y="529" on="1"/>
        <pt x="128" y="313" on="1"/>
        <pt x="371" y="313" on="1"/>
        <pt x="371" y="264" on="1"/>
        <pt x="128" y="264" on="1"/>
        <pt x="128" y="0" on="1"/>
        <pt x="73" y="0" on="1"/>
      </contour>
      <contour>
        <pt x="480" y="577" on="1"/>
        <pt x="535" y="577" on="1"/>
        <pt x="535" y="318" on="1"/>
        <pt x="612" y="318" on="1"/>
        <pt x="811" y="577" on="1"/>
        <pt x="876" y="577" on="1"/>
        <pt x="677" y="316" on="1"/>
        <pt x="649" y="296" on="1"/>
        <pt x="649" y="293" on="1"/>
        <pt x="678" y="274" on="1"/>
        <pt x="892" y="0" on="1"/>
        <pt x="830" y="0" on="1"/>
        <pt x="616" y="269" on="1"/>
        <pt x="535" y="269" on="1"/>
        <pt x="535" y="0" on="1"/>
        <pt x="480" y="0" on="1"/>
      </contour>
    </TTGlyph>
    <TTGlyph name="F_L.sc" xMin="73" yMin="0" xMax="757" yMax="577">
      <contour>
        <pt x="480" y="577" on="1"/>
        <pt x="535" y="577" on="1"/>
        <pt x="535" y="49" on="1"/>
        <pt x="757" y="49" on="1"/>
        <pt x="757" y="0" on="1"/>
        <pt x="480" y="0" on="1"/>
      </contour>
      <contour>
        <pt x="73" y="577" on="1"/>
        <pt x="388" y="577" on="1"/>
        <pt x="388" y="529" on="1"/>
        <pt x="128" y="529" on="1"/>
        <pt x="128" y="313" on="1"/>
        <pt x="371" y="313" on="1"/>
        <pt x="371" y="264" on="1"/>
        <pt x="128" y="264" on="1"/>
        <pt x="128" y="0" on="1"/>
        <pt x="73" y="0" on="1"/>
      </contour>
    </TTGlyph>
    <TTGlyph name="F_T.sc" xMin="73" yMin="0" xMax="789" yMax="577">
      <contour>
        <pt x="570" y="527" on="1"/>
        <pt x="405" y="527" on="1"/>
        <pt x="405" y="577" on="1"/>
        <pt x="789" y="577" on="1"/>
        <pt x="789" y="527" on="1"/>
        <pt x="625" y="527" on="1"/>
        <pt x="625" y="0" on="1"/>
        <pt x="570" y="0" on="1"/>
      </contour>
      <contour>
        <pt x="73" y="577" on="1"/>
        <pt x="388" y="577" on="1"/>
        <pt x="388" y="529" on="1"/>
        <pt x="128" y="529" on="1"/>
        <pt x="128" y="313" on="1"/>
        <pt x="371" y="313" on="1"/>
        <pt x="371" y="264" on="1"/>
        <pt x="128" y="264" on="1"/>
        <pt x="128" y="0" on="1"/>
        <pt x="73" y="0" on="1"/>
      </contour>
    </TTGlyph>
    <TTGlyph name="G" xMin="46" yMin="-10" xMax="493" yMax="748">
      <contour>
        <pt x="351" y="-10" on="1"/>
        <pt x="270" y="-9" on="0"/>
        <pt x="155" y="36" on="0"/>
        <pt x="81" y="128" on="0"/>
        <pt x="46" y="270" on="0"/>
        <pt x="46" y="369" on="1"/>
        <pt x="46" y="471" on="0"/>
        <pt x="81" y="614" on="0"/>
        <pt x="156" y="706" on="0"/>
        <pt x="273" y="748" on="0"/>
        <pt x="356" y="748" on="1"/>
        <pt x="380" y="748" on="0"/>
        <pt x="458" y="740" on="0"/>
        <pt x="493" y="733" on="1"/>
        <pt x="493" y="682" on="1"/>
        <pt x="458" y="690" on="0"/>
        <pt x="390" y="697" on="0"/>
        <pt x="362" y="697" on="1"/>
        <pt x="291" y="697" on="0"/>
        <pt x="194" y="662" on="0"/>
        <pt x="132" y="584" on="0"/>
        <pt x="105" y="459" on="0"/>
        <pt x="105" y="369" on="1"/>
        <pt x="105" y="282" on="0"/>
        <pt x="133" y="159" on="0"/>
        <pt x="193" y="79" on="0"/>
        <pt x="287" y="42" on="0"/>
        <pt x="352" y="42" on="1"/>
        <pt x="367" y="42" on="0"/>
        <pt x="413" y="45" on="0"/>
        <pt x="439" y="48" on="1"/>
        <pt x="439" y="376" on="1"/>
        <pt x="492" y="376" on="1"/>
        <pt x="492" y="3" on="1"/>
        <pt x="448" y="-5" on="0"/>
        <pt x="384" y="-10" on="0"/>
      </contour>
    </TTGlyph>
    <TTGlyph name="G.sc" xMin="45" yMin="-8" xMax="436" yMax="584">
      <contour>
        <pt x="308" y="-8" on="1"/>
        <pt x="170" y="-7" on="0"/>
        <pt x="45" y="135" on="0"/>
        <pt x="45" y="288" on="1"/>
        <pt x="45" y="366" on="0"/>
        <pt x="76" y="478" on="0"/>
        <pt x="141" y="550" on="0"/>
        <pt x="243" y="584" on="0"/>
        <pt x="315" y="584" on="1"/>
        <pt x="337" y="584" on="0"/>
        <pt x="404" y="577" on="0"/>
        <pt x="436" y="571" on="1"/>
        <pt x="436" y="523" on="1"/>
        <pt x="370" y="535" on="0"/>
        <pt x="320" y="535" on="1"/>
        <pt x="260" y="535" on="0"/>
        <pt x="177" y="508" on="0"/>
        <pt x="125" y="450" on="0"/>
        <pt x="102" y="355" on="0"/>
        <pt x="102" y="288" on="1"/>
        <pt x="102" y="222" on="0"/>
        <pt x="126" y="129" on="0"/>
        <pt x="177" y="69" on="0"/>
        <pt x="255" y="41" on="0"/>
        <pt x="310" y="41" on="1"/>
        <pt x="321" y="41" on="0"/>
        <pt x="363" y="44" on="0"/>
        <pt x="384" y="46" on="1"/>
        <pt x="384" y="293" on="1"/>
        <pt x="436" y="293" on="1"/>
        <pt x="436" y="4" on="1"/>
        <pt x="396" y="-3" on="0"/>
        <pt x="337" y="-8" on="0"/>
      </contour>
    </TTGlyph>
    <TTGlyph name="Gacute" xMin="46" yMin="-10" xMax="493" yMax="921">
      <contour>
        <pt x="303" y="789" on="1"/>
        <pt x="379" y="921" on="1"/>
        <pt x="439" y="921" on="1"/>
        <pt x="349" y="785" on="1"/>
      </contour>
      <contour>
        <pt x="351" y="-10" on="1"/>
        <pt x="270" y="-9" on="0"/>
        <pt x="155" y="36" on="0"/>
        <pt x="81" y="128" on="0"/>
        <pt x="46" y="270" on="0"/>
        <pt x="46" y="369" on="1"/>
        <pt x="46" y="471" on="0"/>
        <pt x="81" y="614" on="0"/>
        <pt x="156" y="706" on="0"/>
        <pt x="273" y="748" on="0"/>
        <pt x="356" y="748" on="1"/>
        <pt x="380" y="748" on="0"/>
        <pt x="458" y="740" on="0"/>
        <pt x="493" y="733" on="1"/>
        <pt x="493" y="682" on="1"/>
        <pt x="458" y="690" on="0"/>
        <pt x="390" y="697" on="0"/>
        <pt x="362" y="697" on="1"/>
        <pt x="291" y="697" on="0"/>
        <pt x="194" y="662" on="0"/>
        <pt x="132" y="584" on="0"/>
        <pt x="105" y="459" on="0"/>
        <pt x="105" y="369" on="1"/>
        <pt x="105" y="282" on="0"/>
        <pt x="133" y="159" on="0"/>
        <pt x="193" y="79" on="0"/>
        <pt x="287" y="42" on="0"/>
        <pt x="352" y="42" on="1"/>
        <pt x="367" y="42" on="0"/>
        <pt x="413" y="45" on="0"/>
        <pt x="439" y="48" on="1"/>
        <pt x="439" y="376" on="1"/>
        <pt x="492" y="376" on="1"/>
        <pt x="492" y="3" on="1"/>
        <pt x="448" y="-5" on="0"/>
        <pt x="384" y="-10" on="0"/>
      </contour>
    </TTGlyph>
    <TTGlyph name="Gacute.sc" xMin="45" yMin="-8" xMax="436" yMax="724">
      <contour>
        <pt x="308" y="-8" on="1"/>
        <pt x="170" y="-7" on="0"/>
        <pt x="45" y="135" on="0"/>
        <pt x="45" y="288" on="1"/>
        <pt x="45" y="366" on="0"/>
        <pt x="76" y="478" on="0"/>
        <pt x="141" y="550" on="0"/>
        <pt x="243" y="584" on="0"/>
        <pt x="315" y="584" on="1"/>
        <pt x="337" y="584" on="0"/>
        <pt x="404" y="577" on="0"/>
        <pt x="436" y="571" on="1"/>
        <pt x="436" y="523" on="1"/>
        <pt x="370" y="535" on="0"/>
        <pt x="320" y="535" on="1"/>
        <pt x="260" y="535" on="0"/>
        <pt x="177" y="508" on="0"/>
        <pt x="125" y="450" on="0"/>
        <pt x="102" y="355" on="0"/>
        <pt x="102" y="288" on="1"/>
        <pt x="102" y="222" on="0"/>
        <pt x="126" y="129" on="0"/>
        <pt x="177" y="69" on="0"/>
        <pt x="255" y="41" on="0"/>
        <pt x="310" y="41" on="1"/>
        <pt x="321" y="41" on="0"/>
        <pt x="363" y="44" on="0"/>
        <pt x="384" y="46" on="1"/>
        <pt x="384" y="293" on="1"/>
        <pt x="436" y="293" on="1"/>
        <pt x="436" y="4" on="1"/>
        <pt x="396" y="-3" on="0"/>
        <pt x="337" y="-8" on="0"/>
      </contour>
      <contour>
        <pt x="264" y="617" on="1"/>
        <pt x="330" y="724" on="1"/>
        <pt x="387" y="724" on="1"/>
        <pt x="308" y="614" on="1"/>
      </contour>
    </TTGlyph>
    <TTGlyph name="Gbreve" xMin="46" yMin="-10" xMax="493" yMax="952">
      <contour>
        <pt x="332" y="812" on="1"/>
        <pt x="264" y="812" on="0"/>
        <pt x="189" y="886" on="0"/>
        <pt x="189" y="952" on="1"/>
        <pt x="236" y="952" on="1"/>
        <pt x="236" y="904" on="0"/>
        <pt x="285" y="854" on="0"/>
        <pt x="332" y="854" on="1"/>
        <pt x="377" y="854" on="0"/>
        <pt x="427" y="904" on="0"/>
        <pt x="427" y="952" on="1"/>
        <pt x="474" y="952" on="1"/>
        <pt x="474" y="887" on="0"/>
        <pt x="399" y="812" on="0"/>
      </contour>
      <contour>
        <pt x="351" y="-10" on="1"/>
        <pt x="270" y="-9" on="0"/>
        <pt x="155" y="36" on="0"/>
        <pt x="81" y="128" on="0"/>
        <pt x="46" y="270" on="0"/>
        <pt x="46" y="369" on="1"/>
        <pt x="46" y="471" on="0"/>
        <pt x="81" y="614" on="0"/>
        <pt x="156" y="706" on="0"/>
        <pt x="273" y="748" on="0"/>
        <pt x="356" y="748" on="1"/>
        <pt x="380" y="748" on="0"/>
        <pt x="458" y="740" on="0"/>
        <pt x="493" y="733" on="1"/>
        <pt x="493" y="682" on="1"/>
        <pt x="458" y="690" on="0"/>
        <pt x="390" y="697" on="0"/>
        <pt x="362" y="697" on="1"/>
        <pt x="291" y="697" on="0"/>
        <pt x="194" y="662" on="0"/>
        <pt x="132" y="584" on="0"/>
        <pt x="105" y="459" on="0"/>
        <pt x="105" y="369" on="1"/>
        <pt x="105" y="282" on="0"/>
        <pt x="133" y="159" on="0"/>
        <pt x="193" y="79" on="0"/>
        <pt x="287" y="42" on="0"/>
        <pt x="352" y="42" on="1"/>
        <pt x="367" y="42" on="0"/>
        <pt x="413" y="45" on="0"/>
        <pt x="439" y="48" on="1"/>
        <pt x="439" y="376" on="1"/>
        <pt x="492" y="376" on="1"/>
        <pt x="492" y="3" on="1"/>
        <pt x="448" y="-5" on="0"/>
        <pt x="384" y="-10" on="0"/>
      </contour>
    </TTGlyph>
    <TTGlyph name="Gbreve.sc" xMin="45" yMin="-8" xMax="436" yMax="745">
      <contour>
        <pt x="308" y="-8" on="1"/>
        <pt x="170" y="-7" on="0"/>
        <pt x="45" y="135" on="0"/>
        <pt x="45" y="288" on="1"/>
        <pt x="45" y="366" on="0"/>
        <pt x="76" y="478" on="0"/>
        <pt x="141" y="550" on="0"/>
        <pt x="243" y="584" on="0"/>
        <pt x="315" y="584" on="1"/>
        <pt x="337" y="584" on="0"/>
        <pt x="404" y="577" on="0"/>
        <pt x="436" y="571" on="1"/>
        <pt x="436" y="523" on="1"/>
        <pt x="370" y="535" on="0"/>
        <pt x="320" y="535" on="1"/>
        <pt x="260" y="535" on="0"/>
        <pt x="177" y="508" on="0"/>
        <pt x="125" y="450" on="0"/>
        <pt x="102" y="355" on="0"/>
        <pt x="102" y="288" on="1"/>
        <pt x="102" y="222" on="0"/>
        <pt x="126" y="129" on="0"/>
        <pt x="177" y="69" on="0"/>
        <pt x="255" y="41" on="0"/>
        <pt x="310" y="41" on="1"/>
        <pt x="321" y="41" on="0"/>
        <pt x="363" y="44" on="0"/>
        <pt x="384" y="46" on="1"/>
        <pt x="384" y="293" on="1"/>
        <pt x="436" y="293" on="1"/>
        <pt x="436" y="4" on="1"/>
        <pt x="396" y="-3" on="0"/>
        <pt x="337" y="-8" on="0"/>
      </contour>
      <contour>
        <pt x="291" y="632" on="1"/>
        <pt x="231" y="632" on="0"/>
        <pt x="165" y="692" on="0"/>
        <pt x="165" y="745" on="1"/>
        <pt x="210" y="745" on="1"/>
        <pt x="210" y="668" on="0"/>
        <pt x="291" y="668" on="1"/>
        <pt x="373" y="668" on="0"/>
        <pt x="373" y="745" on="1"/>
        <pt x="418" y="745" on="1"/>
        <pt x="418" y="692" on="0"/>
        <pt x="351" y="632" on="0"/>
      </contour>
    </TTGlyph>
    <TTGlyph name="Gcircumflex" xMin="46" yMin="-10" xMax="493" yMax="939">
      <contour>
        <pt x="351" y="-10" on="1"/>
        <pt x="270" y="-9" on="0"/>
        <pt x="155" y="36" on="0"/>
        <pt x="81" y="128" on="0"/>
        <pt x="46" y="270" on="0"/>
        <pt x="46" y="369" on="1"/>
        <pt x="46" y="471" on="0"/>
        <pt x="81" y="614" on="0"/>
        <pt x="156" y="706" on="0"/>
        <pt x="273" y="748" on="0"/>
        <pt x="356" y="748" on="1"/>
        <pt x="380" y="748" on="0"/>
        <pt x="458" y="740" on="0"/>
        <pt x="493" y="733" on="1"/>
        <pt x="493" y="682" on="1"/>
        <pt x="458" y="690" on="0"/>
        <pt x="390" y="697" on="0"/>
        <pt x="362" y="697" on="1"/>
        <pt x="291" y="697" on="0"/>
        <pt x="194" y="662" on="0"/>
        <pt x="132" y="584" on="0"/>
        <pt x="105" y="459" on="0"/>
        <pt x="105" y="369" on="1"/>
        <pt x="105" y="282" on="0"/>
        <pt x="133" y="159" on="0"/>
        <pt x="193" y="79" on="0"/>
        <pt x="287" y="42" on="0"/>
        <pt x="352" y="42" on="1"/>
        <pt x="367" y="42" on="0"/>
        <pt x="413" y="45" on="0"/>
        <pt x="439" y="48" on="1"/>
        <pt x="439" y="376" on="1"/>
        <pt x="492" y="376" on="1"/>
        <pt x="492" y="3" on="1"/>
        <pt x="448" y="-5" on="0"/>
        <pt x="384" y="-10" on="0"/>
      </contour>
      <contour>
        <pt x="202" y="867" on="1"/>
        <pt x="330" y="939" on="1"/>
        <pt x="458" y="867" on="1"/>
        <pt x="458" y="814" on="1"/>
        <pt x="330" y="886" on="1"/>
        <pt x="202" y="814" on="1"/>
      </contour>
    </TTGlyph>
    <TTGlyph name="Gcircumflex.sc" xMin="45" yMin="-8" xMax="436" yMax="736">
      <contour>
        <pt x="308" y="-8" on="1"/>
        <pt x="170" y="-7" on="0"/>
        <pt x="45" y="135" on="0"/>
        <pt x="45" y="288" on="1"/>
        <pt x="45" y="366" on="0"/>
        <pt x="76" y="478" on="0"/>
        <pt x="141" y="550" on="0"/>
        <pt x="243" y="584" on="0"/>
        <pt x="315" y="584" on="1"/>
        <pt x="337" y="584" on="0"/>
        <pt x="404" y="577" on="0"/>
        <pt x="436" y="571" on="1"/>
        <pt x="436" y="523" on="1"/>
        <pt x="370" y="535" on="0"/>
        <pt x="320" y="535" on="1"/>
        <pt x="260" y="535" on="0"/>
        <pt x="177" y="508" on="0"/>
        <pt x="125" y="450" on="0"/>
        <pt x="102" y="355" on="0"/>
        <pt x="102" y="288" on="1"/>
        <pt x="102" y="222" on="0"/>
        <pt x="126" y="129" on="0"/>
        <pt x="177" y="69" on="0"/>
        <pt x="255" y="41" on="0"/>
        <pt x="310" y="41" on="1"/>
        <pt x="321" y="41" on="0"/>
        <pt x="363" y="44" on="0"/>
        <pt x="384" y="46" on="1"/>
        <pt x="384" y="293" on="1"/>
        <pt x="436" y="293" on="1"/>
        <pt x="436" y="4" on="1"/>
        <pt x="396" y="-3" on="0"/>
        <pt x="337" y="-8" on="0"/>
      </contour>
      <contour>
        <pt x="177" y="680" on="1"/>
        <pt x="290" y="736" on="1"/>
        <pt x="403" y="680" on="1"/>
        <pt x="403" y="633" on="1"/>
        <pt x="290" y="689" on="1"/>
        <pt x="177" y="633" on="1"/>
      </contour>
    </TTGlyph>
    <TTGlyph name="Gcommaaccent" xMin="46" yMin="-220" xMax="493" yMax="748">
      <contour>
        <pt x="313" y="-66" on="1"/>
        <pt x="371" y="-66" on="1"/>
        <pt x="313" y="-220" on="1"/>
        <pt x="263" y="-220" on="1"/>
      </contour>
      <contour>
        <pt x="351" y="-10" on="1"/>
        <pt x="270" y="-9" on="0"/>
        <pt x="155" y="36" on="0"/>
        <pt x="81" y="128" on="0"/>
        <pt x="46" y="270" on="0"/>
        <pt x="46" y="369" on="1"/>
        <pt x="46" y="471" on="0"/>
        <pt x="81" y="614" on="0"/>
        <pt x="156" y="706" on="0"/>
        <pt x="273" y="748" on="0"/>
        <pt x="356" y="748" on="1"/>
        <pt x="380" y="748" on="0"/>
        <pt x="458" y="740" on="0"/>
        <pt x="493" y="733" on="1"/>
        <pt x="493" y="682" on="1"/>
        <pt x="458" y="690" on="0"/>
        <pt x="390" y="697" on="0"/>
        <pt x="362" y="697" on="1"/>
        <pt x="291" y="697" on="0"/>
        <pt x="194" y="662" on="0"/>
        <pt x="132" y="584" on="0"/>
        <pt x="105" y="459" on="0"/>
        <pt x="105" y="369" on="1"/>
        <pt x="105" y="282" on="0"/>
        <pt x="133" y="159" on="0"/>
        <pt x="193" y="79" on="0"/>
        <pt x="287" y="42" on="0"/>
        <pt x="352" y="42" on="1"/>
        <pt x="367" y="42" on="0"/>
        <pt x="413" y="45" on="0"/>
        <pt x="439" y="48" on="1"/>
        <pt x="439" y="376" on="1"/>
        <pt x="492" y="376" on="1"/>
        <pt x="492" y="3" on="1"/>
        <pt x="448" y="-5" on="0"/>
        <pt x="384" y="-10" on="0"/>
      </contour>
    </TTGlyph>
    <TTGlyph name="Gcommaaccent.sc" xMin="45" yMin="-172" xMax="436" yMax="584">
      <contour>
        <pt x="308" y="-8" on="1"/>
        <pt x="170" y="-7" on="0"/>
        <pt x="45" y="135" on="0"/>
        <pt x="45" y="288" on="1"/>
        <pt x="45" y="366" on="0"/>
        <pt x="76" y="478" on="0"/>
        <pt x="141" y="550" on="0"/>
        <pt x="243" y="584" on="0"/>
        <pt x="315" y="584" on="1"/>
        <pt x="337" y="584" on="0"/>
        <pt x="404" y="577" on="0"/>
        <pt x="436" y="571" on="1"/>
        <pt x="436" y="523" on="1"/>
        <pt x="370" y="535" on="0"/>
        <pt x="320" y="535" on="1"/>
        <pt x="260" y="535" on="0"/>
        <pt x="177" y="508" on="0"/>
        <pt x="125" y="450" on="0"/>
        <pt x="102" y="355" on="0"/>
        <pt x="102" y="288" on="1"/>
        <pt x="102" y="222" on="0"/>
        <pt x="126" y="129" on="0"/>
        <pt x="177" y="69" on="0"/>
        <pt x="255" y="41" on="0"/>
        <pt x="310" y="41" on="1"/>
        <pt x="321" y="41" on="0"/>
        <pt x="363" y="44" on="0"/>
        <pt x="384" y="46" on="1"/>
        <pt x="384" y="293" on="1"/>
        <pt x="436" y="293" on="1"/>
        <pt x="436" y="4" on="1"/>
        <pt x="396" y="-3" on="0"/>
        <pt x="337" y="-8" on="0"/>
      </contour>
      <contour>
        <pt x="273" y="-52" on="1"/>
        <pt x="329" y="-52" on="1"/>
        <pt x="278" y="-172" on="1"/>
        <pt x="231" y="-172" on="1"/>
      </contour>
    </TTGlyph>
    <TTGlyph name="Gdotaccent" xMin="46" yMin="-10" xMax="493" yMax="878">
      <contour>
        <pt x="329" y="799" on="1"/>
        <pt x="311" y="799" on="0"/>
        <pt x="290" y="818" on="0"/>
        <pt x="290" y="838" on="1"/>
        <pt x="290" y="859" on="0"/>
        <pt x="311" y="878" on="0"/>
        <pt x="329" y="878" on="1"/>
        <pt x="347" y="878" on="0"/>
        <pt x="369" y="858" on="0"/>
        <pt x="369" y="838" on="1"/>
        <pt x="369" y="818" on="0"/>
        <pt x="347" y="799" on="0"/>
      </contour>
      <contour>
        <pt x="351" y="-10" on="1"/>
        <pt x="270" y="-9" on="0"/>
        <pt x="155" y="36" on="0"/>
        <pt x="81" y="128" on="0"/>
        <pt x="46" y="270" on="0"/>
        <pt x="46" y="369" on="1"/>
        <pt x="46" y="471" on="0"/>
        <pt x="81" y="614" on="0"/>
        <pt x="156" y="706" on="0"/>
        <pt x="273" y="748" on="0"/>
        <pt x="356" y="748" on="1"/>
        <pt x="380" y="748" on="0"/>
        <pt x="458" y="740" on="0"/>
        <pt x="493" y="733" on="1"/>
        <pt x="493" y="682" on="1"/>
        <pt x="458" y="690" on="0"/>
        <pt x="390" y="697" on="0"/>
        <pt x="362" y="697" on="1"/>
        <pt x="291" y="697" on="0"/>
        <pt x="194" y="662" on="0"/>
        <pt x="132" y="584" on="0"/>
        <pt x="105" y="459" on="0"/>
        <pt x="105" y="369" on="1"/>
        <pt x="105" y="282" on="0"/>
        <pt x="133" y="159" on="0"/>
        <pt x="193" y="79" on="0"/>
        <pt x="287" y="42" on="0"/>
        <pt x="352" y="42" on="1"/>
        <pt x="367" y="42" on="0"/>
        <pt x="413" y="45" on="0"/>
        <pt x="439" y="48" on="1"/>
        <pt x="439" y="376" on="1"/>
        <pt x="492" y="376" on="1"/>
        <pt x="492" y="3" on="1"/>
        <pt x="448" y="-5" on="0"/>
        <pt x="384" y="-10" on="0"/>
      </contour>
    </TTGlyph>
    <TTGlyph name="Gdotaccent.sc" xMin="45" yMin="-8" xMax="436" yMax="695">
      <contour>
        <pt x="308" y="-8" on="1"/>
        <pt x="170" y="-7" on="0"/>
        <pt x="45" y="135" on="0"/>
        <pt x="45" y="288" on="1"/>
        <pt x="45" y="366" on="0"/>
        <pt x="76" y="478" on="0"/>
        <pt x="141" y="550" on="0"/>
        <pt x="243" y="584" on="0"/>
        <pt x="315" y="584" on="1"/>
        <pt x="337" y="584" on="0"/>
        <pt x="404" y="577" on="0"/>
        <pt x="436" y="571" on="1"/>
        <pt x="436" y="523" on="1"/>
        <pt x="370" y="535" on="0"/>
        <pt x="320" y="535" on="1"/>
        <pt x="260" y="535" on="0"/>
        <pt x="177" y="508" on="0"/>
        <pt x="125" y="450" on="0"/>
        <pt x="102" y="355" on="0"/>
        <pt x="102" y="288" on="1"/>
        <pt x="102" y="222" on="0"/>
        <pt x="126" y="129" on="0"/>
        <pt x="177" y="69" on="0"/>
        <pt x="255" y="41" on="0"/>
        <pt x="310" y="41" on="1"/>
        <pt x="321" y="41" on="0"/>
        <pt x="363" y="44" on="0"/>
        <pt x="384" y="46" on="1"/>
        <pt x="384" y="293" on="1"/>
        <pt x="436" y="293" on="1"/>
        <pt x="436" y="4" on="1"/>
        <pt x="396" y="-3" on="0"/>
        <pt x="337" y="-8" on="0"/>
      </contour>
      <contour>
        <pt x="290" y="624" on="1"/>
        <pt x="273" y="624" on="0"/>
        <pt x="253" y="640" on="0"/>
        <pt x="253" y="660" on="1"/>
        <pt x="253" y="695" on="0"/>
        <pt x="290" y="695" on="1"/>
        <pt x="307" y="695" on="0"/>
        <pt x="328" y="678" on="0"/>
        <pt x="328" y="660" on="1"/>
        <pt x="328" y="640" on="0"/>
        <pt x="307" y="624" on="0"/>
      </contour>
    </TTGlyph>
    <TTGlyph name="H" xMin="77" yMin="0" xMax="537" yMax="740">
      <contour>
        <pt x="77" y="740" on="1"/>
        <pt x="133" y="740" on="1"/>
        <pt x="133" y="403" on="1"/>
        <pt x="480" y="403" on="1"/>
        <pt x="480" y="740" on="1"/>
        <pt x="537" y="740" on="1"/>
        <pt x="537" y="0" on="1"/>
        <pt x="480" y="0" on="1"/>
        <pt x="480" y="351" on="1"/>
        <pt x="133" y="351" on="1"/>
        <pt x="133" y="0" on="1"/>
        <pt x="77" y="0" on="1"/>
      </contour>
    </TTGlyph>
    <TTGlyph name="H.sc" xMin="73" yMin="0" xMax="479" yMax="577">
      <contour>
        <pt x="73" y="577" on="1"/>
        <pt x="128" y="577" on="1"/>
        <pt x="128" y="319" on="1"/>
        <pt x="424" y="319" on="1"/>
        <pt x="424" y="577" on="1"/>
        <pt x="479" y="577" on="1"/>
        <pt x="479" y="0" on="1"/>
        <pt x="424" y="0" on="1"/>
        <pt x="424" y="270" on="1"/>
        <pt x="128" y="270" on="1"/>
        <pt x="128" y="0" on="1"/>
        <pt x="73" y="0" on="1"/>
      </contour>
    </TTGlyph>
    <TTGlyph name="Hbar" xMin="1" yMin="0" xMax="650" yMax="740">
      <contour>
        <pt x="1" y="582" on="1"/>
        <pt x="95" y="582" on="1"/>
        <pt x="95" y="740" on="1"/>
        <pt x="151" y="740" on="1"/>
        <pt x="151" y="582" on="1"/>
        <pt x="498" y="582" on="1"/>
        <pt x="498" y="740" on="1"/>
        <pt x="555" y="740" on="1"/>
        <pt x="555" y="582" on="1"/>
        <pt x="650" y="582" on="1"/>
        <pt x="650" y="548" on="1"/>
        <pt x="555" y="548" on="1"/>
        <pt x="555" y="0" on="1"/>
        <pt x="498" y="0" on="1"/>
        <pt x="498" y="351" on="1"/>
        <pt x="151" y="351" on="1"/>
        <pt x="151" y="0" on="1"/>
        <pt x="95" y="0" on="1"/>
        <pt x="95" y="548" on="1"/>
        <pt x="1" y="548" on="1"/>
      </contour>
      <contour>
        <pt x="498" y="403" on="1"/>
        <pt x="498" y="548" on="1"/>
        <pt x="151" y="548" on="1"/>
        <pt x="151" y="403" on="1"/>
      </contour>
    </TTGlyph>
    <TTGlyph name="Hbar.sc" xMin="6" yMin="0" xMax="571" yMax="577">
      <contour>
        <pt x="6" y="458" on="1"/>
        <pt x="85" y="458" on="1"/>
        <pt x="85" y="577" on="1"/>
        <pt x="140" y="577" on="1"/>
        <pt x="140" y="458" on="1"/>
        <pt x="436" y="458" on="1"/>
        <pt x="436" y="577" on="1"/>
        <pt x="491" y="577" on="1"/>
        <pt x="491" y="458" on="1"/>
        <pt x="571" y="458" on="1"/>
        <pt x="571" y="426" on="1"/>
        <pt x="491" y="426" on="1"/>
        <pt x="491" y="0" on="1"/>
        <pt x="436" y="0" on="1"/>
        <pt x="436" y="270" on="1"/>
        <pt x="140" y="270" on="1"/>
        <pt x="140" y="0" on="1"/>
        <pt x="85" y="0" on="1"/>
        <pt x="85" y="426" on="1"/>
        <pt x="6" y="426" on="1"/>
      </contour>
      <contour>
        <pt x="436" y="319" on="1"/>
        <pt x="436" y="426" on="1"/>
        <pt x="140" y="426" on="1"/>
        <pt x="140" y="319" on="1"/>
      </contour>
    </TTGlyph>
    <TTGlyph name="Hcircumflex" xMin="77" yMin="0" xMax="537" yMax="939">
      <contour>
        <pt x="77" y="740" on="1"/>
        <pt x="133" y="740" on="1"/>
        <pt x="133" y="403" on="1"/>
        <pt x="480" y="403" on="1"/>
        <pt x="480" y="740" on="1"/>
        <pt x="537" y="740" on="1"/>
        <pt x="537" y="0" on="1"/>
        <pt x="480" y="0" on="1"/>
        <pt x="480" y="351" on="1"/>
        <pt x="133" y="351" on="1"/>
        <pt x="133" y="0" on="1"/>
        <pt x="77" y="0" on="1"/>
      </contour>
      <contour>
        <pt x="168" y="867" on="1"/>
        <pt x="296" y="939" on="1"/>
        <pt x="424" y="867" on="1"/>
        <pt x="424" y="814" on="1"/>
        <pt x="296" y="886" on="1"/>
        <pt x="168" y="814" on="1"/>
      </contour>
    </TTGlyph>
    <TTGlyph name="Hcircumflex.sc" xMin="73" yMin="0" xMax="479" yMax="736">
      <contour>
        <pt x="73" y="577" on="1"/>
        <pt x="128" y="577" on="1"/>
        <pt x="128" y="319" on="1"/>
        <pt x="424" y="319" on="1"/>
        <pt x="424" y="577" on="1"/>
        <pt x="479" y="577" on="1"/>
        <pt x="479" y="0" on="1"/>
        <pt x="424" y="0" on="1"/>
        <pt x="424" y="270" on="1"/>
        <pt x="128" y="270" on="1"/>
        <pt x="128" y="0" on="1"/>
        <pt x="73" y="0" on="1"/>
      </contour>
      <contour>
        <pt x="154" y="680" on="1"/>
        <pt x="268" y="736" on="1"/>
        <pt x="380" y="680" on="1"/>
        <pt x="380" y="633" on="1"/>
        <pt x="268" y="689" on="1"/>
        <pt x="154" y="633" on="1"/>
      </contour>
    </TTGlyph>
    <TTGlyph name="Hdotbelow" xMin="77" yMin="-168" xMax="537" yMax="740">
      <contour>
        <pt x="77" y="740" on="1"/>
        <pt x="133" y="740" on="1"/>
        <pt x="133" y="403" on="1"/>
        <pt x="480" y="403" on="1"/>
        <pt x="480" y="740" on="1"/>
        <pt x="537" y="740" on="1"/>
        <pt x="537" y="0" on="1"/>
        <pt x="480" y="0" on="1"/>
        <pt x="480" y="351" on="1"/>
        <pt x="133" y="351" on="1"/>
        <pt x="133" y="0" on="1"/>
        <pt x="77" y="0" on="1"/>
      </contour>
      <contour>
        <pt x="313" y="-168" on="1"/>
        <pt x="293" y="-168" on="0"/>
        <pt x="272" y="-150" on="0"/>
        <pt x="272" y="-127" on="1"/>
        <pt x="272" y="-105" on="0"/>
        <pt x="293" y="-87" on="0"/>
        <pt x="313" y="-87" on="1"/>
        <pt x="332" y="-87" on="0"/>
        <pt x="354" y="-105" on="0"/>
        <pt x="354" y="-127" on="1"/>
        <pt x="354" y="-150" on="0"/>
        <pt x="332" y="-168" on="0"/>
      </contour>
    </TTGlyph>
    <TTGlyph name="Hdotbelow.sc" xMin="73" yMin="-135" xMax="479" yMax="577">
      <contour>
        <pt x="73" y="577" on="1"/>
        <pt x="128" y="577" on="1"/>
        <pt x="128" y="319" on="1"/>
        <pt x="424" y="319" on="1"/>
        <pt x="424" y="577" on="1"/>
        <pt x="479" y="577" on="1"/>
        <pt x="479" y="0" on="1"/>
        <pt x="424" y="0" on="1"/>
        <pt x="424" y="270" on="1"/>
        <pt x="128" y="270" on="1"/>
        <pt x="128" y="0" on="1"/>
        <pt x="73" y="0" on="1"/>
      </contour>
      <contour>
        <pt x="282" y="-135" on="1"/>
        <pt x="264" y="-135" on="0"/>
        <pt x="244" y="-120" on="0"/>
        <pt x="244" y="-101" on="1"/>
        <pt x="244" y="-66" on="0"/>
        <pt x="282" y="-66" on="1"/>
        <pt x="299" y="-66" on="0"/>
        <pt x="319" y="-82" on="0"/>
        <pt x="319" y="-101" on="1"/>
        <pt x="319" y="-120" on="0"/>
        <pt x="299" y="-135" on="0"/>
      </contour>
    </TTGlyph>
    <TTGlyph name="I" xMin="77" yMin="0" xMax="133" yMax="740">
      <contour>
        <pt x="77" y="740" on="1"/>
        <pt x="133" y="740" on="1"/>
        <pt x="133" y="0" on="1"/>
        <pt x="77" y="0" on="1"/>
      </contour>
    </TTGlyph>
    <TTGlyph name="I.sc" xMin="73" yMin="0" xMax="128" yMax="577">
      <contour>
        <pt x="73" y="577" on="1"/>
        <pt x="128" y="577" on="1"/>
        <pt x="128" y="0" on="1"/>
        <pt x="73" y="0" on="1"/>
      </contour>
    </TTGlyph>
    <TTGlyph name="IJ" xMin="77" yMin="-181" xMax="345" yMax="740">
      <contour>
        <pt x="77" y="740" on="1"/>
        <pt x="133" y="740" on="1"/>
        <pt x="133" y="0" on="1"/>
        <pt x="77" y="0" on="1"/>
      </contour>
      <contour>
        <pt x="205" y="-159" on="1"/>
        <pt x="230" y="-105" on="0"/>
        <pt x="263" y="-21" on="0"/>
        <pt x="282" y="55" on="0"/>
        <pt x="289" y="133" on="0"/>
        <pt x="289" y="182" on="1"/>
        <pt x="289" y="740" on="1"/>
        <pt x="345" y="740" on="1"/>
        <pt x="345" y="180" on="1"/>
        <pt x="345" y="86" on="0"/>
        <pt x="296" y="-87" on="0"/>
        <pt x="243" y="-181" on="1"/>
      </contour>
    </TTGlyph>
    <TTGlyph name="Iacute" xMin="77" yMin="0" xMax="217" yMax="921">
      <contour>
        <pt x="77" y="740" on="1"/>
        <pt x="133" y="740" on="1"/>
        <pt x="133" y="0" on="1"/>
        <pt x="77" y="0" on="1"/>
      </contour>
      <contour>
        <pt x="81" y="789" on="1"/>
        <pt x="157" y="921" on="1"/>
        <pt x="217" y="921" on="1"/>
        <pt x="127" y="785" on="1"/>
      </contour>
    </TTGlyph>
    <TTGlyph name="Iacute.sc" xMin="73" yMin="0" xMax="200" yMax="724">
      <contour>
        <pt x="73" y="577" on="1"/>
        <pt x="128" y="577" on="1"/>
        <pt x="128" y="0" on="1"/>
        <pt x="73" y="0" on="1"/>
      </contour>
      <contour>
        <pt x="77" y="617" on="1"/>
        <pt x="143" y="724" on="1"/>
        <pt x="200" y="724" on="1"/>
        <pt x="121" y="614" on="1"/>
      </contour>
    </TTGlyph>
    <TTGlyph name="Ibreve" xMin="-33" yMin="0" xMax="252" yMax="952">
      <contour>
        <pt x="77" y="740" on="1"/>
        <pt x="133" y="740" on="1"/>
        <pt x="133" y="0" on="1"/>
        <pt x="77" y="0" on="1"/>
      </contour>
      <contour>
        <pt x="110" y="812" on="1"/>
        <pt x="42" y="812" on="0"/>
        <pt x="-33" y="886" on="0"/>
        <pt x="-33" y="952" on="1"/>
        <pt x="14" y="952" on="1"/>
        <pt x="14" y="904" on="0"/>
        <pt x="63" y="854" on="0"/>
        <pt x="110" y="854" on="1"/>
        <pt x="155" y="854" on="0"/>
        <pt x="205" y="904" on="0"/>
        <pt x="205" y="952" on="1"/>
        <pt x="252" y="952" on="1"/>
        <pt x="252" y="887" on="0"/>
        <pt x="177" y="812" on="0"/>
      </contour>
    </TTGlyph>
    <TTGlyph name="Ibreve.sc" xMin="-22" yMin="0" xMax="229" yMax="745">
      <contour>
        <pt x="73" y="577" on="1"/>
        <pt x="128" y="577" on="1"/>
        <pt x="128" y="0" on="1"/>
        <pt x="73" y="0" on="1"/>
      </contour>
      <contour>
        <pt x="104" y="632" on="1"/>
        <pt x="44" y="632" on="0"/>
        <pt x="-22" y="692" on="0"/>
        <pt x="-22" y="745" on="1"/>
        <pt x="22" y="745" on="1"/>
        <pt x="22" y="668" on="0"/>
        <pt x="104" y="668" on="1"/>
        <pt x="143" y="668" on="0"/>
        <pt x="185" y="707" on="0"/>
        <pt x="185" y="745" on="1"/>
        <pt x="229" y="745" on="1"/>
        <pt x="229" y="692" on="0"/>
        <pt x="164" y="632" on="0"/>
      </contour>
    </TTGlyph>
    <TTGlyph name="Icircumflex" xMin="-20" yMin="0" xMax="236" yMax="939">
      <contour>
        <pt x="77" y="740" on="1"/>
        <pt x="133" y="740" on="1"/>
        <pt x="133" y="0" on="1"/>
        <pt x="77" y="0" on="1"/>
      </contour>
      <contour>
        <pt x="-20" y="867" on="1"/>
        <pt x="108" y="939" on="1"/>
        <pt x="236" y="867" on="1"/>
        <pt x="236" y="814" on="1"/>
        <pt x="108" y="886" on="1"/>
        <pt x="-20" y="814" on="1"/>
      </contour>
    </TTGlyph>
    <TTGlyph name="Icircumflex.sc" xMin="-10" yMin="0" xMax="216" yMax="736">
      <contour>
        <pt x="73" y="577" on="1"/>
        <pt x="128" y="577" on="1"/>
        <pt x="128" y="0" on="1"/>
        <pt x="73" y="0" on="1"/>
      </contour>
      <contour>
        <pt x="-10" y="680" on="1"/>
        <pt x="103" y="736" on="1"/>
        <pt x="216" y="680" on="1"/>
        <pt x="216" y="633" on="1"/>
        <pt x="103" y="689" on="1"/>
        <pt x="-10" y="633" on="1"/>
      </contour>
    </TTGlyph>
    <TTGlyph name="Idblgrave" xMin="-69" yMin="0" xMax="199" yMax="921">
      <contour>
        <pt x="77" y="740" on="1"/>
        <pt x="133" y="740" on="1"/>
        <pt x="133" y="0" on="1"/>
        <pt x="77" y="0" on="1"/>
      </contour>
      <contour>
        <pt x="21" y="785" on="1"/>
        <pt x="-69" y="921" on="1"/>
        <pt x="-15" y="921" on="1"/>
        <pt x="62" y="798" on="1"/>
      </contour>
      <contour>
        <pt x="158" y="785" on="1"/>
        <pt x="68" y="921" on="1"/>
        <pt x="123" y="921" on="1"/>
        <pt x="199" y="798" on="1"/>
      </contour>
    </TTGlyph>
    <TTGlyph name="Idblgrave.sc" xMin="-53" yMin="0" xMax="185" yMax="724">
      <contour>
        <pt x="73" y="577" on="1"/>
        <pt x="128" y="577" on="1"/>
        <pt x="128" y="0" on="1"/>
        <pt x="73" y="0" on="1"/>
      </contour>
      <contour>
        <pt x="27" y="613" on="1"/>
        <pt x="-53" y="724" on="1"/>
        <pt x="-1" y="724" on="1"/>
        <pt x="65" y="623" on="1"/>
      </contour>
      <contour>
        <pt x="147" y="613" on="1"/>
        <pt x="67" y="724" on="1"/>
        <pt x="119" y="724" on="1"/>
        <pt x="185" y="623" on="1"/>
      </contour>
    </TTGlyph>
    <TTGlyph name="Idieresis" xMin="-21" yMin="0" xMax="239" yMax="890">
      <contour>
        <pt x="77" y="740" on="1"/>
        <pt x="133" y="740" on="1"/>
        <pt x="133" y="0" on="1"/>
        <pt x="77" y="0" on="1"/>
      </contour>
      <contour>
        <pt x="18" y="812" on="1"/>
        <pt x="0" y="812" on="0"/>
        <pt x="-21" y="831" on="0"/>
        <pt x="-21" y="851" on="1"/>
        <pt x="-21" y="872" on="0"/>
        <pt x="0" y="890" on="0"/>
        <pt x="18" y="890" on="1"/>
        <pt x="36" y="890" on="0"/>
        <pt x="58" y="871" on="0"/>
        <pt x="58" y="851" on="1"/>
        <pt x="58" y="830" on="0"/>
        <pt x="36" y="812" on="0"/>
      </contour>
      <contour>
        <pt x="199" y="812" on="1"/>
        <pt x="181" y="812" on="0"/>
        <pt x="159" y="831" on="0"/>
        <pt x="159" y="851" on="1"/>
        <pt x="159" y="872" on="0"/>
        <pt x="181" y="890" on="0"/>
        <pt x="199" y="890" on="1"/>
        <pt x="216" y="890" on="0"/>
        <pt x="239" y="871" on="0"/>
        <pt x="239" y="851" on="1"/>
        <pt x="239" y="830" on="0"/>
        <pt x="216" y="812" on="0"/>
      </contour>
    </TTGlyph>
    <TTGlyph name="Idieresis.sc" xMin="-15" yMin="0" xMax="221" yMax="704">
      <contour>
        <pt x="73" y="577" on="1"/>
        <pt x="128" y="577" on="1"/>
        <pt x="128" y="0" on="1"/>
        <pt x="73" y="0" on="1"/>
      </contour>
      <contour>
        <pt x="22" y="633" on="1"/>
        <pt x="-15" y="633" on="0"/>
        <pt x="-15" y="668" on="1"/>
        <pt x="-15" y="688" on="0"/>
        <pt x="5" y="704" on="0"/>
        <pt x="22" y="704" on="1"/>
        <pt x="59" y="704" on="0"/>
        <pt x="59" y="668" on="1"/>
        <pt x="59" y="633" on="0"/>
      </contour>
      <contour>
        <pt x="184" y="633" on="1"/>
        <pt x="167" y="633" on="0"/>
        <pt x="146" y="649" on="0"/>
        <pt x="146" y="668" on="1"/>
        <pt x="146" y="688" on="0"/>
        <pt x="167" y="704" on="0"/>
        <pt x="184" y="704" on="1"/>
        <pt x="201" y="704" on="0"/>
        <pt x="221" y="687" on="0"/>
        <pt x="221" y="668" on="1"/>
        <pt x="221" y="649" on="0"/>
        <pt x="201" y="633" on="0"/>
      </contour>
    </TTGlyph>
    <TTGlyph name="Idotaccent" xMin="69" yMin="0" xMax="148" yMax="878">
      <contour>
        <pt x="77" y="740" on="1"/>
        <pt x="133" y="740" on="1"/>
        <pt x="133" y="0" on="1"/>
        <pt x="77" y="0" on="1"/>
      </contour>
      <contour>
        <pt x="108" y="799" on="1"/>
        <pt x="90" y="799" on="0"/>
        <pt x="69" y="818" on="0"/>
        <pt x="69" y="838" on="1"/>
        <pt x="69" y="859" on="0"/>
        <pt x="90" y="878" on="0"/>
        <pt x="108" y="878" on="1"/>
        <pt x="126" y="878" on="0"/>
        <pt x="148" y="858" on="0"/>
        <pt x="148" y="838" on="1"/>
        <pt x="148" y="818" on="0"/>
        <pt x="126" y="799" on="0"/>
      </contour>
    </TTGlyph>
    <TTGlyph name="Idotaccent.sc" xMin="66" yMin="0" xMax="140" yMax="695">
      <contour>
        <pt x="73" y="577" on="1"/>
        <pt x="128" y="577" on="1"/>
        <pt x="128" y="0" on="1"/>
        <pt x="73" y="0" on="1"/>
      </contour>
      <contour>
        <pt x="102" y="624" on="1"/>
        <pt x="85" y="624" on="0"/>
        <pt x="66" y="640" on="0"/>
        <pt x="66" y="660" on="1"/>
        <pt x="66" y="678" on="0"/>
        <pt x="85" y="695" on="0"/>
        <pt x="102" y="695" on="1"/>
        <pt x="140" y="695" on="0"/>
        <pt x="140" y="660" on="1"/>
        <pt x="140" y="640" on="0"/>
        <pt x="120" y="624" on="0"/>
      </contour>
    </TTGlyph>
    <TTGlyph name="Idotbelow" xMin="66" yMin="-168" xMax="148" yMax="740">
      <contour>
        <pt x="77" y="740" on="1"/>
        <pt x="133" y="740" on="1"/>
        <pt x="133" y="0" on="1"/>
        <pt x="77" y="0" on="1"/>
      </contour>
      <contour>
        <pt x="107" y="-168" on="1"/>
        <pt x="87" y="-168" on="0"/>
        <pt x="66" y="-150" on="0"/>
        <pt x="66" y="-127" on="1"/>
        <pt x="66" y="-105" on="0"/>
        <pt x="87" y="-87" on="0"/>
        <pt x="107" y="-87" on="1"/>
        <pt x="126" y="-87" on="0"/>
        <pt x="148" y="-105" on="0"/>
        <pt x="148" y="-127" on="1"/>
        <pt x="148" y="-150" on="0"/>
        <pt x="126" y="-168" on="0"/>
      </contour>
    </TTGlyph>
    <TTGlyph name="Idotbelow.sc" xMin="65" yMin="-135" xMax="140" yMax="577">
      <contour>
        <pt x="73" y="577" on="1"/>
        <pt x="128" y="577" on="1"/>
        <pt x="128" y="0" on="1"/>
        <pt x="73" y="0" on="1"/>
      </contour>
      <contour>
        <pt x="102" y="-135" on="1"/>
        <pt x="84" y="-135" on="0"/>
        <pt x="65" y="-120" on="0"/>
        <pt x="65" y="-101" on="1"/>
        <pt x="65" y="-66" on="0"/>
        <pt x="102" y="-66" on="1"/>
        <pt x="119" y="-66" on="0"/>
        <pt x="140" y="-82" on="0"/>
        <pt x="140" y="-101" on="1"/>
        <pt x="140" y="-120" on="0"/>
        <pt x="119" y="-135" on="0"/>
      </contour>
    </TTGlyph>
    <TTGlyph name="Igrave" xMin="-10" yMin="0" xMax="133" yMax="921">
      <contour>
        <pt x="77" y="740" on="1"/>
        <pt x="133" y="740" on="1"/>
        <pt x="133" y="0" on="1"/>
        <pt x="77" y="0" on="1"/>
      </contour>
      <contour>
        <pt x="81" y="785" on="1"/>
        <pt x="-10" y="921" on="1"/>
        <pt x="50" y="921" on="1"/>
        <pt x="127" y="798" on="1"/>
      </contour>
    </TTGlyph>
    <TTGlyph name="Igrave.sc" xMin="-1" yMin="0" xMax="129" yMax="724">
      <contour>
        <pt x="73" y="577" on="1"/>
        <pt x="129" y="577" on="1"/>
        <pt x="129" y="0" on="1"/>
        <pt x="73" y="0" on="1"/>
      </contour>
      <contour>
        <pt x="78" y="614" on="1"/>
        <pt x="-1" y="724" on="1"/>
        <pt x="57" y="724" on="1"/>
        <pt x="122" y="623" on="1"/>
      </contour>
    </TTGlyph>
    <TTGlyph name="Iinvertedbreve" xMin="-35" yMin="0" xMax="250" yMax="962">
      <contour>
        <pt x="77" y="740" on="1"/>
        <pt x="133" y="740" on="1"/>
        <pt x="133" y="0" on="1"/>
        <pt x="77" y="0" on="1"/>
      </contour>
      <contour>
        <pt x="203" y="822" on="1"/>
        <pt x="203" y="870" on="0"/>
        <pt x="153" y="921" on="0"/>
        <pt x="108" y="921" on="1"/>
        <pt x="61" y="921" on="0"/>
        <pt x="12" y="870" on="0"/>
        <pt x="12" y="822" on="1"/>
        <pt x="-35" y="822" on="1"/>
        <pt x="-35" y="888" on="0"/>
        <pt x="40" y="962" on="0"/>
        <pt x="108" y="962" on="1"/>
        <pt x="175" y="962" on="0"/>
        <pt x="250" y="888" on="0"/>
        <pt x="250" y="822" on="1"/>
      </contour>
    </TTGlyph>
    <TTGlyph name="Iinvertedbreve.sc" xMin="-23" yMin="0" xMax="229" yMax="752">
      <contour>
        <pt x="73" y="577" on="1"/>
        <pt x="128" y="577" on="1"/>
        <pt x="128" y="0" on="1"/>
        <pt x="73" y="0" on="1"/>
      </contour>
      <contour>
        <pt x="184" y="640" on="1"/>
        <pt x="184" y="678" on="0"/>
        <pt x="142" y="716" on="0"/>
        <pt x="103" y="716" on="1"/>
        <pt x="21" y="716" on="0"/>
        <pt x="21" y="640" on="1"/>
        <pt x="-23" y="640" on="1"/>
        <pt x="-23" y="692" on="0"/>
        <pt x="43" y="752" on="0"/>
        <pt x="103" y="752" on="1"/>
        <pt x="163" y="752" on="0"/>
        <pt x="229" y="692" on="0"/>
        <pt x="229" y="640" on="1"/>
      </contour>
    </TTGlyph>
    <TTGlyph name="Imacron" xMin="-15" yMin="0" xMax="213" yMax="888">
      <contour>
        <pt x="77" y="740" on="1"/>
        <pt x="133" y="740" on="1"/>
        <pt x="133" y="0" on="1"/>
        <pt x="77" y="0" on="1"/>
      </contour>
      <contour>
        <pt x="-15" y="888" on="1"/>
        <pt x="213" y="888" on="1"/>
        <pt x="213" y="841" on="1"/>
        <pt x="-15" y="841" on="1"/>
      </contour>
    </TTGlyph>
    <TTGlyph name="Imacron.sc" xMin="-6" yMin="0" xMax="198" yMax="698">
      <contour>
        <pt x="73" y="577" on="1"/>
        <pt x="128" y="577" on="1"/>
        <pt x="128" y="0" on="1"/>
        <pt x="73" y="0" on="1"/>
      </contour>
      <contour>
        <pt x="-6" y="698" on="1"/>
        <pt x="198" y="698" on="1"/>
        <pt x="198" y="656" on="1"/>
        <pt x="-6" y="656" on="1"/>
      </contour>
    </TTGlyph>
    <TTGlyph name="Iogonek" xMin="-5" yMin="-220" xMax="133" yMax="740">
      <contour>
        <pt x="77" y="740" on="1"/>
        <pt x="133" y="740" on="1"/>
        <pt x="133" y="-17" on="1"/>
        <pt x="85" y="-40" on="0"/>
        <pt x="41" y="-97" on="0"/>
        <pt x="41" y="-130" on="1"/>
        <pt x="41" y="-176" on="0"/>
        <pt x="88" y="-176" on="1"/>
        <pt x="111" y="-176" on="0"/>
        <pt x="133" y="-165" on="1"/>
        <pt x="133" y="-208" on="1"/>
        <pt x="107" y="-220" on="0"/>
        <pt x="81" y="-220" on="1"/>
        <pt x="40" y="-220" on="0"/>
        <pt x="-5" y="-176" on="0"/>
        <pt x="-5" y="-135" on="1"/>
        <pt x="-5" y="-58" on="0"/>
        <pt x="86" y="0" on="1"/>
        <pt x="77" y="0" on="1"/>
      </contour>
    </TTGlyph>
    <TTGlyph name="Iogonek.sc" xMin="4" yMin="-172" xMax="128" yMax="577">
      <contour>
        <pt x="73" y="577" on="1"/>
        <pt x="128" y="577" on="1"/>
        <pt x="128" y="-12" on="1"/>
        <pt x="90" y="-26" on="0"/>
        <pt x="48" y="-75" on="0"/>
        <pt x="48" y="-100" on="1"/>
        <pt x="48" y="-133" on="0"/>
        <pt x="87" y="-133" on="1"/>
        <pt x="98" y="-133" on="0"/>
        <pt x="119" y="-128" on="0"/>
        <pt x="128" y="-124" on="1"/>
        <pt x="128" y="-162" on="1"/>
        <pt x="117" y="-167" on="0"/>
        <pt x="95" y="-172" on="0"/>
        <pt x="82" y="-172" on="1"/>
        <pt x="45" y="-172" on="0"/>
        <pt x="4" y="-137" on="0"/>
        <pt x="4" y="-104" on="1"/>
        <pt x="4" y="-45" on="0"/>
        <pt x="82" y="0" on="1"/>
        <pt x="73" y="0" on="1"/>
      </contour>
    </TTGlyph>
    <TTGlyph name="Itilde" xMin="-40" yMin="0" xMax="259" yMax="908">
      <contour>
        <pt x="77" y="740" on="1"/>
        <pt x="133" y="740" on="1"/>
        <pt x="133" y="0" on="1"/>
        <pt x="77" y="0" on="1"/>
      </contour>
      <contour>
        <pt x="-40" y="848" on="1"/>
        <pt x="-24" y="872" on="0"/>
        <pt x="27" y="908" on="0"/>
        <pt x="53" y="908" on="1"/>
        <pt x="72" y="908" on="0"/>
        <pt x="103" y="895" on="0"/>
        <pt x="132" y="879" on="0"/>
        <pt x="160" y="866" on="0"/>
        <pt x="177" y="866" on="1"/>
        <pt x="210" y="866" on="0"/>
        <pt x="232" y="906" on="1"/>
        <pt x="259" y="885" on="1"/>
        <pt x="246" y="856" on="0"/>
        <pt x="196" y="821" on="0"/>
        <pt x="170" y="821" on="1"/>
        <pt x="151" y="821" on="0"/>
        <pt x="120" y="834" on="0"/>
        <pt x="91" y="850" on="0"/>
        <pt x="62" y="863" on="0"/>
        <pt x="46" y="863" on="1"/>
        <pt x="29" y="863" on="0"/>
        <pt x="-4" y="841" on="0"/>
        <pt x="-17" y="824" on="1"/>
      </contour>
    </TTGlyph>
    <TTGlyph name="Itilde.sc" xMin="-28" yMin="0" xMax="238" yMax="714">
      <contour>
        <pt x="73" y="577" on="1"/>
        <pt x="128" y="577" on="1"/>
        <pt x="128" y="0" on="1"/>
        <pt x="73" y="0" on="1"/>
      </contour>
      <contour>
        <pt x="-28" y="661" on="1"/>
        <pt x="-13" y="684" on="0"/>
        <pt x="32" y="714" on="0"/>
        <pt x="55" y="714" on="1"/>
        <pt x="71" y="714" on="0"/>
        <pt x="99" y="704" on="0"/>
        <pt x="125" y="691" on="0"/>
        <pt x="151" y="681" on="0"/>
        <pt x="166" y="681" on="1"/>
        <pt x="195" y="681" on="0"/>
        <pt x="215" y="712" on="1"/>
        <pt x="238" y="696" on="1"/>
        <pt x="225" y="670" on="0"/>
        <pt x="180" y="640" on="0"/>
        <pt x="157" y="640" on="1"/>
        <pt x="141" y="640" on="0"/>
        <pt x="113" y="650" on="0"/>
        <pt x="88" y="663" on="0"/>
        <pt x="62" y="673" on="0"/>
        <pt x="47" y="673" on="1"/>
        <pt x="33" y="673" on="0"/>
        <pt x="3" y="656" on="0"/>
        <pt x="-8" y="642" on="1"/>
      </contour>
    </TTGlyph>
    <TTGlyph name="J" xMin="-5" yMin="-181" xMax="135" yMax="740">
      <contour>
        <pt x="-5" y="-159" on="1"/>
        <pt x="20" y="-105" on="0"/>
        <pt x="53" y="-21" on="0"/>
        <pt x="72" y="55" on="0"/>
        <pt x="79" y="133" on="0"/>
        <pt x="79" y="182" on="1"/>
        <pt x="79" y="740" on="1"/>
        <pt x="135" y="740" on="1"/>
        <pt x="135" y="180" on="1"/>
        <pt x="135" y="86" on="0"/>
        <pt x="86" y="-87" on="0"/>
        <pt x="33" y="-181" on="1"/>
      </contour>
    </TTGlyph>
    <TTGlyph name="J.sc" xMin="4" yMin="-143" xMax="130" yMax="577">
      <contour>
        <pt x="4" y="-124" on="1"/>
        <pt x="25" y="-82" on="0"/>
        <pt x="53" y="-18" on="0"/>
        <pt x="69" y="42" on="0"/>
        <pt x="75" y="104" on="0"/>
        <pt x="75" y="143" on="1"/>
        <pt x="75" y="577" on="1"/>
        <pt x="130" y="577" on="1"/>
        <pt x="130" y="140" on="1"/>
        <pt x="130" y="66" on="0"/>
        <pt x="88" y="-67" on="0"/>
        <pt x="40" y="-143" on="1"/>
      </contour>
    </TTGlyph>
    <TTGlyph name="Jcircumflex" xMin="-25" yMin="-181" xMax="231" yMax="939">
      <contour>
        <pt x="-5" y="-159" on="1"/>
        <pt x="20" y="-105" on="0"/>
        <pt x="53" y="-21" on="0"/>
        <pt x="72" y="55" on="0"/>
        <pt x="79" y="133" on="0"/>
        <pt x="79" y="182" on="1"/>
        <pt x="79" y="740" on="1"/>
        <pt x="135" y="740" on="1"/>
        <pt x="135" y="180" on="1"/>
        <pt x="135" y="86" on="0"/>
        <pt x="86" y="-87" on="0"/>
        <pt x="33" y="-181" on="1"/>
      </contour>
      <contour>
        <pt x="-25" y="867" on="1"/>
        <pt x="103" y="939" on="1"/>
        <pt x="231" y="867" on="1"/>
        <pt x="231" y="814" on="1"/>
        <pt x="103" y="886" on="1"/>
        <pt x="-25" y="814" on="1"/>
      </contour>
    </TTGlyph>
    <TTGlyph name="Jcircumflex.sc" xMin="-13" yMin="-143" xMax="213" yMax="736">
      <contour>
        <pt x="5" y="-124" on="1"/>
        <pt x="26" y="-82" on="0"/>
        <pt x="53" y="-18" on="0"/>
        <pt x="69" y="42" on="0"/>
        <pt x="75" y="104" on="0"/>
        <pt x="75" y="143" on="1"/>
        <pt x="75" y="577" on="1"/>
        <pt x="130" y="577" on="1"/>
        <pt x="130" y="140" on="1"/>
        <pt x="130" y="66" on="0"/>
        <pt x="88" y="-67" on="0"/>
        <pt x="40" y="-143" on="1"/>
      </contour>
      <contour>
        <pt x="-13" y="680" on="1"/>
        <pt x="100" y="736" on="1"/>
        <pt x="213" y="680" on="1"/>
        <pt x="213" y="633" on="1"/>
        <pt x="100" y="689" on="1"/>
        <pt x="-13" y="633" on="1"/>
      </contour>
    </TTGlyph>
    <TTGlyph name="K" xMin="77" yMin="0" xMax="546" yMax="740">
      <contour>
        <pt x="77" y="740" on="1"/>
        <pt x="133" y="740" on="1"/>
        <pt x="133" y="402" on="1"/>
        <pt x="219" y="402" on="1"/>
        <pt x="459" y="740" on="1"/>
        <pt x="526" y="740" on="1"/>
        <pt x="289" y="405" on="1"/>
        <pt x="261" y="380" on="1"/>
        <pt x="261" y="376" on="1"/>
        <pt x="291" y="352" on="1"/>
        <pt x="546" y="0" on="1"/>
        <pt x="481" y="0" on="1"/>
        <pt x="225" y="350" on="1"/>
        <pt x="133" y="350" on="1"/>
        <pt x="133" y="0" on="1"/>
        <pt x="77" y="0" on="1"/>
      </contour>
    </TTGlyph>
    <TTGlyph name="K.sc" xMin="73" yMin="0" xMax="485" yMax="577">
      <contour>
        <pt x="73" y="577" on="1"/>
        <pt x="128" y="577" on="1"/>
        <pt x="128" y="318" on="1"/>
        <pt x="205" y="318" on="1"/>
        <pt x="404" y="577" on="1"/>
        <pt x="469" y="577" on="1"/>
        <pt x="270" y="316" on="1"/>
        <pt x="242" y="296" on="1"/>
        <pt x="242" y="293" on="1"/>
        <pt x="271" y="274" on="1"/>
        <pt x="485" y="0" on="1"/>
        <pt x="423" y="0" on="1"/>
        <pt x="209" y="269" on="1"/>
        <pt x="128" y="269" on="1"/>
        <pt x="128" y="0" on="1"/>
        <pt x="73" y="0" on="1"/>
      </contour>
    </TTGlyph>
    <TTGlyph name="Kcommaaccent" xMin="77" yMin="-220" xMax="546" yMax="740">
      <contour>
        <pt x="258" y="-66" on="1"/>
        <pt x="316" y="-66" on="1"/>
        <pt x="258" y="-220" on="1"/>
        <pt x="208" y="-220" on="1"/>
      </contour>
      <contour>
        <pt x="77" y="740" on="1"/>
        <pt x="133" y="740" on="1"/>
        <pt x="133" y="402" on="1"/>
        <pt x="219" y="402" on="1"/>
        <pt x="459" y="740" on="1"/>
        <pt x="526" y="740" on="1"/>
        <pt x="289" y="405" on="1"/>
        <pt x="261" y="380" on="1"/>
        <pt x="261" y="376" on="1"/>
        <pt x="291" y="352" on="1"/>
        <pt x="546" y="0" on="1"/>
        <pt x="481" y="0" on="1"/>
        <pt x="225" y="350" on="1"/>
        <pt x="133" y="350" on="1"/>
        <pt x="133" y="0" on="1"/>
        <pt x="77" y="0" on="1"/>
      </contour>
    </TTGlyph>
    <TTGlyph name="Kcommaaccent.sc" xMin="73" yMin="-172" xMax="485" yMax="577">
      <contour>
        <pt x="73" y="577" on="1"/>
        <pt x="128" y="577" on="1"/>
        <pt x="128" y="318" on="1"/>
        <pt x="205" y="318" on="1"/>
        <pt x="404" y="577" on="1"/>
        <pt x="469" y="577" on="1"/>
        <pt x="270" y="316" on="1"/>
        <pt x="242" y="296" on="1"/>
        <pt x="242" y="293" on="1"/>
        <pt x="271" y="274" on="1"/>
        <pt x="485" y="0" on="1"/>
        <pt x="423" y="0" on="1"/>
        <pt x="209" y="269" on="1"/>
        <pt x="128" y="269" on="1"/>
        <pt x="128" y="0" on="1"/>
        <pt x="73" y="0" on="1"/>
      </contour>
      <contour>
        <pt x="231" y="-52" on="1"/>
        <pt x="287" y="-52" on="1"/>
        <pt x="236" y="-172" on="1"/>
        <pt x="188" y="-172" on="1"/>
      </contour>
    </TTGlyph>
    <TTGlyph name="L" xMin="77" yMin="0" xMax="387" yMax="740">
      <contour>
        <pt x="77" y="740" on="1"/>
        <pt x="133" y="740" on="1"/>
        <pt x="133" y="52" on="1"/>
        <pt x="387" y="52" on="1"/>
        <pt x="387" y="0" on="1"/>
        <pt x="77" y="0" on="1"/>
      </contour>
    </TTGlyph>
    <TTGlyph name="L.sc" xMin="73" yMin="0" xMax="350" yMax="577">
      <contour>
        <pt x="73" y="577" on="1"/>
        <pt x="128" y="577" on="1"/>
        <pt x="128" y="49" on="1"/>
        <pt x="350" y="49" on="1"/>
        <pt x="350" y="0" on="1"/>
        <pt x="73" y="0" on="1"/>
      </contour>
    </TTGlyph>
    <TTGlyph name="Lacute" xMin="77" yMin="0" xMax="387" yMax="921">
      <contour>
        <pt x="93" y="789" on="1"/>
        <pt x="169" y="921" on="1"/>
        <pt x="229" y="921" on="1"/>
        <pt x="139" y="785" on="1"/>
      </contour>
      <contour>
        <pt x="77" y="740" on="1"/>
        <pt x="133" y="740" on="1"/>
        <pt x="133" y="52" on="1"/>
        <pt x="387" y="52" on="1"/>
        <pt x="387" y="0" on="1"/>
        <pt x="77" y="0" on="1"/>
      </contour>
    </TTGlyph>
    <TTGlyph name="Lacute.sc" xMin="73" yMin="0" xMax="350" yMax="724">
      <contour>
        <pt x="73" y="577" on="1"/>
        <pt x="128" y="577" on="1"/>
        <pt x="128" y="49" on="1"/>
        <pt x="350" y="49" on="1"/>
        <pt x="350" y="0" on="1"/>
        <pt x="73" y="0" on="1"/>
      </contour>
      <contour>
        <pt x="87" y="617" on="1"/>
        <pt x="152" y="724" on="1"/>
        <pt x="210" y="724" on="1"/>
        <pt x="130" y="614" on="1"/>
      </contour>
    </TTGlyph>
    <TTGlyph name="Lcaron" xMin="77" yMin="0" xMax="387" yMax="749">
      <contour>
        <pt x="312" y="749" on="1"/>
        <pt x="363" y="749" on="1"/>
        <pt x="339" y="521" on="1"/>
        <pt x="312" y="521" on="1"/>
      </contour>
      <contour>
        <pt x="77" y="740" on="1"/>
        <pt x="133" y="740" on="1"/>
        <pt x="133" y="52" on="1"/>
        <pt x="387" y="52" on="1"/>
        <pt x="387" y="0" on="1"/>
        <pt x="77" y="0" on="1"/>
      </contour>
    </TTGlyph>
    <TTGlyph name="Lcaron.sc" xMin="73" yMin="0" xMax="350" yMax="589">
      <contour>
        <pt x="73" y="577" on="1"/>
        <pt x="128" y="577" on="1"/>
        <pt x="128" y="49" on="1"/>
        <pt x="350" y="49" on="1"/>
        <pt x="350" y="0" on="1"/>
        <pt x="73" y="0" on="1"/>
      </contour>
      <contour>
        <pt x="283" y="589" on="1"/>
        <pt x="331" y="589" on="1"/>
        <pt x="309" y="412" on="1"/>
        <pt x="283" y="412" on="1"/>
      </contour>
    </TTGlyph>
    <TTGlyph name="Lcommaaccent" xMin="77" yMin="-220" xMax="387" yMax="740">
      <contour>
        <pt x="216" y="-66" on="1"/>
        <pt x="274" y="-66" on="1"/>
        <pt x="216" y="-220" on="1"/>
        <pt x="166" y="-220" on="1"/>
      </contour>
      <contour>
        <pt x="77" y="740" on="1"/>
        <pt x="133" y="740" on="1"/>
        <pt x="133" y="52" on="1"/>
        <pt x="387" y="52" on="1"/>
        <pt x="387" y="0" on="1"/>
        <pt x="77" y="0" on="1"/>
      </contour>
    </TTGlyph>
    <TTGlyph name="Lcommaaccent.sc" xMin="73" yMin="-172" xMax="350" yMax="577">
      <contour>
        <pt x="73" y="577" on="1"/>
        <pt x="128" y="577" on="1"/>
        <pt x="128" y="49" on="1"/>
        <pt x="350" y="49" on="1"/>
        <pt x="350" y="0" on="1"/>
        <pt x="73" y="0" on="1"/>
      </contour>
      <contour>
        <pt x="193" y="-52" on="1"/>
        <pt x="249" y="-52" on="1"/>
        <pt x="198" y="-172" on="1"/>
        <pt x="151" y="-172" on="1"/>
      </contour>
    </TTGlyph>
    <TTGlyph name="Ldot" xMin="77" yMin="0" xMax="387" yMax="740">
      <contour>
        <pt x="77" y="740" on="1"/>
        <pt x="133" y="740" on="1"/>
        <pt x="133" y="52" on="1"/>
        <pt x="387" y="52" on="1"/>
        <pt x="387" y="0" on="1"/>
        <pt x="77" y="0" on="1"/>
      </contour>
      <contour>
        <pt x="300" y="330" on="1"/>
        <pt x="282" y="330" on="0"/>
        <pt x="260" y="349" on="0"/>
        <pt x="260" y="370" on="1"/>
        <pt x="260" y="391" on="0"/>
        <pt x="282" y="410" on="0"/>
        <pt x="300" y="410" on="1"/>
        <pt x="318" y="410" on="0"/>
        <pt x="340" y="390" on="0"/>
        <pt x="340" y="370" on="1"/>
        <pt x="340" y="350" on="0"/>
        <pt x="318" y="330" on="0"/>
      </contour>
    </TTGlyph>
    <TTGlyph name="Ldot.sc" xMin="73" yMin="0" xMax="350" yMax="577">
      <contour>
        <pt x="73" y="577" on="1"/>
        <pt x="128" y="577" on="1"/>
        <pt x="128" y="49" on="1"/>
        <pt x="350" y="49" on="1"/>
        <pt x="350" y="0" on="1"/>
        <pt x="73" y="0" on="1"/>
      </contour>
      <contour>
        <pt x="276" y="253" on="1"/>
        <pt x="240" y="253" on="0"/>
        <pt x="240" y="289" on="1"/>
        <pt x="240" y="324" on="0"/>
        <pt x="276" y="324" on="1"/>
        <pt x="293" y="324" on="0"/>
        <pt x="314" y="308" on="0"/>
        <pt x="314" y="289" on="1"/>
        <pt x="314" y="270" on="0"/>
        <pt x="293" y="253" on="0"/>
      </contour>
    </TTGlyph>
    <TTGlyph name="Lslash" xMin="12" yMin="0" xMax="411" yMax="740">
      <contour>
        <pt x="12" y="281" on="1"/>
        <pt x="101" y="360" on="1"/>
        <pt x="101" y="740" on="1"/>
        <pt x="157" y="740" on="1"/>
        <pt x="157" y="410" on="1"/>
        <pt x="255" y="497" on="1"/>
        <pt x="255" y="437" on="1"/>
        <pt x="157" y="350" on="1"/>
        <pt x="157" y="52" on="1"/>
        <pt x="411" y="52" on="1"/>
        <pt x="411" y="0" on="1"/>
        <pt x="101" y="0" on="1"/>
        <pt x="101" y="300" on="1"/>
        <pt x="12" y="221" on="1"/>
      </contour>
    </TTGlyph>
    <TTGlyph name="Lslash.sc" xMin="19" yMin="0" xMax="370" yMax="577">
      <contour>
        <pt x="19" y="226" on="1"/>
        <pt x="94" y="287" on="1"/>
        <pt x="94" y="577" on="1"/>
        <pt x="149" y="577" on="1"/>
        <pt x="149" y="323" on="1"/>
        <pt x="236" y="392" on="1"/>
        <pt x="236" y="339" on="1"/>
        <pt x="149" y="270" on="1"/>
        <pt x="149" y="49" on="1"/>
        <pt x="370" y="49" on="1"/>
        <pt x="370" y="0" on="1"/>
        <pt x="94" y="0" on="1"/>
        <pt x="94" y="233" on="1"/>
        <pt x="19" y="173" on="1"/>
      </contour>
    </TTGlyph>
    <TTGlyph name="M" xMin="77" yMin="0" xMax="701" yMax="740">
      <contour>
        <pt x="77" y="740" on="1"/>
        <pt x="151" y="740" on="1"/>
        <pt x="356" y="195" on="1"/>
        <pt x="386" y="99" on="1"/>
        <pt x="391" y="99" on="1"/>
        <pt x="422" y="195" on="1"/>
        <pt x="627" y="740" on="1"/>
        <pt x="701" y="740" on="1"/>
        <pt x="701" y="0" on="1"/>
        <pt x="646" y="0" on="1"/>
        <pt x="646" y="634" on="1"/>
        <pt x="642" y="635" on="1"/>
        <pt x="607" y="534" on="1"/>
        <pt x="419" y="32" on="1"/>
        <pt x="358" y="32" on="1"/>
        <pt x="170" y="534" on="1"/>
        <pt x="135" y="635" on="1"/>
        <pt x="131" y="634" on="1"/>
        <pt x="131" y="0" on="1"/>
        <pt x="77" y="0" on="1"/>
      </contour>
    </TTGlyph>
    <TTGlyph name="M.sc" xMin="73" yMin="0" xMax="622" yMax="577">
      <contour>
        <pt x="73" y="577" on="1"/>
        <pt x="146" y="577" on="1"/>
        <pt x="318" y="167" on="1"/>
        <pt x="345" y="91" on="1"/>
        <pt x="350" y="91" on="1"/>
        <pt x="377" y="167" on="1"/>
        <pt x="549" y="577" on="1"/>
        <pt x="622" y="577" on="1"/>
        <pt x="622" y="0" on="1"/>
        <pt x="569" y="0" on="1"/>
        <pt x="569" y="488" on="1"/>
        <pt x="565" y="488" on="1"/>
        <pt x="531" y="400" on="1"/>
        <pt x="376" y="26" on="1"/>
        <pt x="319" y="26" on="1"/>
        <pt x="163" y="400" on="1"/>
        <pt x="129" y="488" on="1"/>
        <pt x="126" y="488" on="1"/>
        <pt x="126" y="0" on="1"/>
        <pt x="73" y="0" on="1"/>
      </contour>
    </TTGlyph>
    <TTGlyph name="N" xMin="77" yMin="0" xMax="570" yMax="740">
      <contour>
        <pt x="77" y="740" on="1"/>
        <pt x="134" y="740" on="1"/>
        <pt x="467" y="183" on="1"/>
        <pt x="512" y="99" on="1"/>
        <pt x="517" y="100" on="1"/>
        <pt x="517" y="740" on="1"/>
        <pt x="570" y="740" on="1"/>
        <pt x="570" y="0" on="1"/>
        <pt x="512" y="0" on="1"/>
        <pt x="183" y="552" on="1"/>
        <pt x="135" y="641" on="1"/>
        <pt x="130" y="640" on="1"/>
        <pt x="130" y="0" on="1"/>
        <pt x="77" y="0" on="1"/>
      </contour>
    </TTGlyph>
    <TTGlyph name="N.sc" xMin="73" yMin="0" xMax="505" yMax="577">
      <contour>
        <pt x="73" y="577" on="1"/>
        <pt x="126" y="577" on="1"/>
        <pt x="409" y="158" on="1"/>
        <pt x="449" y="92" on="1"/>
        <pt x="454" y="93" on="1"/>
        <pt x="454" y="577" on="1"/>
        <pt x="505" y="577" on="1"/>
        <pt x="505" y="0" on="1"/>
        <pt x="452" y="0" on="1"/>
        <pt x="171" y="417" on="1"/>
        <pt x="129" y="485" on="1"/>
        <pt x="124" y="485" on="1"/>
        <pt x="124" y="0" on="1"/>
        <pt x="73" y="0" on="1"/>
      </contour>
    </TTGlyph>
    <TTGlyph name="Nacute" xMin="77" yMin="0" xMax="570" yMax="921">
      <contour>
        <pt x="301" y="789" on="1"/>
        <pt x="377" y="921" on="1"/>
        <pt x="437" y="921" on="1"/>
        <pt x="347" y="785" on="1"/>
      </contour>
      <contour>
        <pt x="77" y="740" on="1"/>
        <pt x="134" y="740" on="1"/>
        <pt x="467" y="183" on="1"/>
        <pt x="512" y="99" on="1"/>
        <pt x="517" y="100" on="1"/>
        <pt x="517" y="740" on="1"/>
        <pt x="570" y="740" on="1"/>
        <pt x="570" y="0" on="1"/>
        <pt x="512" y="0" on="1"/>
        <pt x="183" y="552" on="1"/>
        <pt x="135" y="641" on="1"/>
        <pt x="130" y="640" on="1"/>
        <pt x="130" y="0" on="1"/>
        <pt x="77" y="0" on="1"/>
      </contour>
    </TTGlyph>
    <TTGlyph name="Nacute.sc" xMin="73" yMin="0" xMax="505" yMax="724">
      <contour>
        <pt x="73" y="577" on="1"/>
        <pt x="126" y="577" on="1"/>
        <pt x="409" y="158" on="1"/>
        <pt x="449" y="92" on="1"/>
        <pt x="454" y="93" on="1"/>
        <pt x="454" y="577" on="1"/>
        <pt x="505" y="577" on="1"/>
        <pt x="505" y="0" on="1"/>
        <pt x="452" y="0" on="1"/>
        <pt x="171" y="417" on="1"/>
        <pt x="129" y="485" on="1"/>
        <pt x="124" y="485" on="1"/>
        <pt x="124" y="0" on="1"/>
        <pt x="73" y="0" on="1"/>
      </contour>
      <contour>
        <pt x="266" y="617" on="1"/>
        <pt x="332" y="724" on="1"/>
        <pt x="389" y="724" on="1"/>
        <pt x="310" y="614" on="1"/>
      </contour>
    </TTGlyph>
    <TTGlyph name="Ncaron" xMin="77" yMin="0" xMax="570" yMax="922">
      <contour>
        <pt x="204" y="922" on="1"/>
        <pt x="332" y="850" on="1"/>
        <pt x="460" y="922" on="1"/>
        <pt x="460" y="869" on="1"/>
        <pt x="332" y="797" on="1"/>
        <pt x="204" y="869" on="1"/>
      </contour>
      <contour>
        <pt x="77" y="740" on="1"/>
        <pt x="134" y="740" on="1"/>
        <pt x="467" y="183" on="1"/>
        <pt x="512" y="99" on="1"/>
        <pt x="517" y="100" on="1"/>
        <pt x="517" y="740" on="1"/>
        <pt x="570" y="740" on="1"/>
        <pt x="570" y="0" on="1"/>
        <pt x="512" y="0" on="1"/>
        <pt x="183" y="552" on="1"/>
        <pt x="135" y="641" on="1"/>
        <pt x="130" y="640" on="1"/>
        <pt x="130" y="0" on="1"/>
        <pt x="77" y="0" on="1"/>
      </contour>
    </TTGlyph>
    <TTGlyph name="Ncaron.sc" xMin="73" yMin="0" xMax="505" yMax="724">
      <contour>
        <pt x="73" y="577" on="1"/>
        <pt x="126" y="577" on="1"/>
        <pt x="409" y="158" on="1"/>
        <pt x="449" y="92" on="1"/>
        <pt x="454" y="93" on="1"/>
        <pt x="454" y="577" on="1"/>
        <pt x="505" y="577" on="1"/>
        <pt x="505" y="0" on="1"/>
        <pt x="452" y="0" on="1"/>
        <pt x="171" y="417" on="1"/>
        <pt x="129" y="485" on="1"/>
        <pt x="124" y="485" on="1"/>
        <pt x="124" y="0" on="1"/>
        <pt x="73" y="0" on="1"/>
      </contour>
      <contour>
        <pt x="183" y="678" on="1"/>
        <pt x="183" y="724" on="1"/>
        <pt x="296" y="668" on="1"/>
        <pt x="409" y="724" on="1"/>
        <pt x="409" y="678" on="1"/>
        <pt x="297" y="621" on="1"/>
      </contour>
    </TTGlyph>
    <TTGlyph name="Ncommaaccent" xMin="77" yMin="-220" xMax="570" yMax="740">
      <contour>
        <pt x="326" y="-66" on="1"/>
        <pt x="384" y="-66" on="1"/>
        <pt x="326" y="-220" on="1"/>
        <pt x="276" y="-220" on="1"/>
      </contour>
      <contour>
        <pt x="77" y="740" on="1"/>
        <pt x="134" y="740" on="1"/>
        <pt x="467" y="183" on="1"/>
        <pt x="512" y="99" on="1"/>
        <pt x="517" y="100" on="1"/>
        <pt x="517" y="740" on="1"/>
        <pt x="570" y="740" on="1"/>
        <pt x="570" y="0" on="1"/>
        <pt x="512" y="0" on="1"/>
        <pt x="183" y="552" on="1"/>
        <pt x="135" y="641" on="1"/>
        <pt x="130" y="640" on="1"/>
        <pt x="130" y="0" on="1"/>
        <pt x="77" y="0" on="1"/>
      </contour>
    </TTGlyph>
    <TTGlyph name="Ncommaaccent.sc" xMin="73" yMin="-172" xMax="505" yMax="577">
      <contour>
        <pt x="73" y="577" on="1"/>
        <pt x="126" y="577" on="1"/>
        <pt x="409" y="158" on="1"/>
        <pt x="449" y="92" on="1"/>
        <pt x="454" y="93" on="1"/>
        <pt x="454" y="577" on="1"/>
        <pt x="505" y="577" on="1"/>
        <pt x="505" y="0" on="1"/>
        <pt x="452" y="0" on="1"/>
        <pt x="171" y="417" on="1"/>
        <pt x="129" y="485" on="1"/>
        <pt x="124" y="485" on="1"/>
        <pt x="124" y="0" on="1"/>
        <pt x="73" y="0" on="1"/>
      </contour>
      <contour>
        <pt x="287" y="-52" on="1"/>
        <pt x="342" y="-52" on="1"/>
        <pt x="292" y="-172" on="1"/>
        <pt x="244" y="-172" on="1"/>
      </contour>
    </TTGlyph>
    <TTGlyph name="Ndotaccent" xMin="77" yMin="0" xMax="570" yMax="878">
      <contour>
        <pt x="327" y="799" on="1"/>
        <pt x="309" y="799" on="0"/>
        <pt x="288" y="818" on="0"/>
        <pt x="288" y="838" on="1"/>
        <pt x="288" y="859" on="0"/>
        <pt x="309" y="878" on="0"/>
        <pt x="327" y="878" on="1"/>
        <pt x="345" y="878" on="0"/>
        <pt x="367" y="858" on="0"/>
        <pt x="367" y="838" on="1"/>
        <pt x="367" y="818" on="0"/>
        <pt x="345" y="799" on="0"/>
      </contour>
      <contour>
        <pt x="77" y="740" on="1"/>
        <pt x="134" y="740" on="1"/>
        <pt x="467" y="183" on="1"/>
        <pt x="512" y="99" on="1"/>
        <pt x="517" y="100" on="1"/>
        <pt x="517" y="740" on="1"/>
        <pt x="570" y="740" on="1"/>
        <pt x="570" y="0" on="1"/>
        <pt x="512" y="0" on="1"/>
        <pt x="183" y="552" on="1"/>
        <pt x="135" y="641" on="1"/>
        <pt x="130" y="640" on="1"/>
        <pt x="130" y="0" on="1"/>
        <pt x="77" y="0" on="1"/>
      </contour>
    </TTGlyph>
    <TTGlyph name="Ndotaccent.sc" xMin="73" yMin="0" xMax="505" yMax="695">
      <contour>
        <pt x="73" y="577" on="1"/>
        <pt x="126" y="577" on="1"/>
        <pt x="409" y="158" on="1"/>
        <pt x="449" y="92" on="1"/>
        <pt x="454" y="93" on="1"/>
        <pt x="454" y="577" on="1"/>
        <pt x="505" y="577" on="1"/>
        <pt x="505" y="0" on="1"/>
        <pt x="452" y="0" on="1"/>
        <pt x="171" y="417" on="1"/>
        <pt x="129" y="485" on="1"/>
        <pt x="124" y="485" on="1"/>
        <pt x="124" y="0" on="1"/>
        <pt x="73" y="0" on="1"/>
      </contour>
      <contour>
        <pt x="292" y="624" on="1"/>
        <pt x="275" y="624" on="0"/>
        <pt x="255" y="640" on="0"/>
        <pt x="255" y="660" on="1"/>
        <pt x="255" y="695" on="0"/>
        <pt x="292" y="695" on="1"/>
        <pt x="329" y="695" on="0"/>
        <pt x="329" y="660" on="1"/>
        <pt x="329" y="640" on="0"/>
        <pt x="309" y="624" on="0"/>
      </contour>
    </TTGlyph>
    <TTGlyph name="Ntilde" xMin="77" yMin="0" xMax="570" yMax="908">
      <contour>
        <pt x="180" y="848" on="1"/>
        <pt x="196" y="872" on="0"/>
        <pt x="247" y="908" on="0"/>
        <pt x="273" y="908" on="1"/>
        <pt x="292" y="908" on="0"/>
        <pt x="323" y="895" on="0"/>
        <pt x="352" y="879" on="0"/>
        <pt x="380" y="866" on="0"/>
        <pt x="397" y="866" on="1"/>
        <pt x="430" y="866" on="0"/>
        <pt x="452" y="906" on="1"/>
        <pt x="479" y="885" on="1"/>
        <pt x="466" y="856" on="0"/>
        <pt x="416" y="821" on="0"/>
        <pt x="390" y="821" on="1"/>
        <pt x="371" y="821" on="0"/>
        <pt x="340" y="834" on="0"/>
        <pt x="311" y="850" on="0"/>
        <pt x="282" y="863" on="0"/>
        <pt x="266" y="863" on="1"/>
        <pt x="249" y="863" on="0"/>
        <pt x="216" y="841" on="0"/>
        <pt x="203" y="824" on="1"/>
      </contour>
      <contour>
        <pt x="77" y="740" on="1"/>
        <pt x="134" y="740" on="1"/>
        <pt x="467" y="183" on="1"/>
        <pt x="512" y="99" on="1"/>
        <pt x="517" y="100" on="1"/>
        <pt x="517" y="740" on="1"/>
        <pt x="570" y="740" on="1"/>
        <pt x="570" y="0" on="1"/>
        <pt x="512" y="0" on="1"/>
        <pt x="183" y="552" on="1"/>
        <pt x="135" y="641" on="1"/>
        <pt x="130" y="640" on="1"/>
        <pt x="130" y="0" on="1"/>
        <pt x="77" y="0" on="1"/>
      </contour>
    </TTGlyph>
    <TTGlyph name="Ntilde.sc" xMin="73" yMin="0" xMax="505" yMax="714">
      <contour>
        <pt x="161" y="661" on="1"/>
        <pt x="176" y="684" on="0"/>
        <pt x="222" y="714" on="0"/>
        <pt x="245" y="714" on="1"/>
        <pt x="261" y="714" on="0"/>
        <pt x="289" y="704" on="0"/>
        <pt x="314" y="691" on="0"/>
        <pt x="340" y="681" on="0"/>
        <pt x="355" y="681" on="1"/>
        <pt x="385" y="681" on="0"/>
        <pt x="405" y="712" on="1"/>
        <pt x="428" y="696" on="1"/>
        <pt x="415" y="670" on="0"/>
        <pt x="370" y="640" on="0"/>
        <pt x="347" y="640" on="1"/>
        <pt x="330" y="640" on="0"/>
        <pt x="303" y="650" on="0"/>
        <pt x="277" y="663" on="0"/>
        <pt x="252" y="673" on="0"/>
        <pt x="237" y="673" on="1"/>
        <pt x="222" y="673" on="0"/>
        <pt x="193" y="656" on="0"/>
        <pt x="181" y="642" on="1"/>
      </contour>
      <contour>
        <pt x="73" y="577" on="1"/>
        <pt x="126" y="577" on="1"/>
        <pt x="409" y="158" on="1"/>
        <pt x="449" y="92" on="1"/>
        <pt x="454" y="93" on="1"/>
        <pt x="454" y="577" on="1"/>
        <pt x="505" y="577" on="1"/>
        <pt x="505" y="0" on="1"/>
        <pt x="452" y="0" on="1"/>
        <pt x="171" y="417" on="1"/>
        <pt x="129" y="485" on="1"/>
        <pt x="124" y="485" on="1"/>
        <pt x="124" y="0" on="1"/>
        <pt x="73" y="0" on="1"/>
      </contour>
    </TTGlyph>
    <TTGlyph name="O" xMin="46" yMin="-10" xMax="555" yMax="750">
      <contour>
        <pt x="300" y="-10" on="1"/>
        <pt x="46" y="-10" on="0"/>
        <pt x="46" y="369" on="1"/>
        <pt x="46" y="562" on="0"/>
        <pt x="171" y="750" on="0"/>
        <pt x="300" y="750" on="1"/>
        <pt x="555" y="750" on="0"/>
        <pt x="555" y="369" on="1"/>
        <pt x="555" y="-10" on="0"/>
      </contour>
      <contour>
        <pt x="300" y="42" on="1"/>
        <pt x="403" y="42" on="0"/>
        <pt x="497" y="198" on="0"/>
        <pt x="497" y="369" on="1"/>
        <pt x="497" y="538" on="0"/>
        <pt x="401" y="699" on="0"/>
        <pt x="300" y="699" on="1"/>
        <pt x="197" y="699" on="0"/>
        <pt x="103" y="541" on="0"/>
        <pt x="103" y="369" on="1"/>
        <pt x="103" y="197" on="0"/>
        <pt x="196" y="42" on="0"/>
      </contour>
    </TTGlyph>
    <TTGlyph name="O.sc" xMin="45" yMin="-8" xMax="493" yMax="585">
      <contour>
        <pt x="269" y="-8" on="1"/>
        <pt x="45" y="-8" on="0"/>
        <pt x="45" y="288" on="1"/>
        <pt x="45" y="585" on="0"/>
        <pt x="269" y="585" on="1"/>
        <pt x="493" y="585" on="0"/>
        <pt x="493" y="288" on="1"/>
        <pt x="493" y="-8" on="0"/>
      </contour>
      <contour>
        <pt x="269" y="41" on="1"/>
        <pt x="356" y="41" on="0"/>
        <pt x="437" y="159" on="0"/>
        <pt x="437" y="288" on="1"/>
        <pt x="437" y="417" on="0"/>
        <pt x="356" y="536" on="0"/>
        <pt x="269" y="536" on="1"/>
        <pt x="181" y="536" on="0"/>
        <pt x="100" y="419" on="0"/>
        <pt x="100" y="288" on="1"/>
        <pt x="100" y="157" on="0"/>
        <pt x="180" y="41" on="0"/>
      </contour>
    </TTGlyph>
</ttFont>
